<?xml version="1.0" encoding="UTF-8"?>
<!DOCTYPE svg PUBLIC "-//W3C//DTD SVG 1.1//EN" "http://www.w3.org/Graphics/SVG/1.1/DTD/svg11.dtd">
<!-- Creator: CorelDRAW -->
<svg xmlns="http://www.w3.org/2000/svg" xml:space="preserve" width="20px" height="17px" version="1.1" style="shape-rendering:geometricPrecision; text-rendering:geometricPrecision; image-rendering:optimizeQuality; fill-rule:evenodd; clip-rule:evenodd"
viewBox="0 0 0.28 0.23"
 xmlns:xlink="http://www.w3.org/1999/xlink"
 xmlns:xodm="http://www.corel.com/coreldraw/odm/2003">
 <defs>
  <style type="text/css">
   <![CDATA[
    .fil0 {fill:#848688}
   ]]>
  </style>
 </defs>
 <g id="Layer_x0020_1">
  <metadata id="CorelCorpID_0Corel-Layer"/>
  <g id="_1442017961568">
   <path class="fil0" d="M0.03 0.02l0.04 0 0 -0.01c0,-0.01 0,-0.01 -0.01,-0.01 0,0 0,0 0,0l-0.02 0c-0.01,0 -0.01,0 -0.01,0 0,0 0,0 0,0.01l0 0.01z"/>
   <path class="fil0" d="M0.09 0.02l0 0c0,0 0,-0.01 0,-0.01 0.01,0 0.01,0 0.02,0l0.06 0c0.01,0 0.01,0 0.01,0 0.01,0 0.01,0.01 0.01,0.01l0 0 -0.01 0 0 0c0,0 0,0 0,0 0,0 -0.01,-0.01 -0.01,-0.01l-0.06 0c-0.01,0 -0.01,0.01 -0.01,0.01 0,0 0,0 0,0l0 0 -0.01 0z"/>
   <path class="fil0" d="M0.21 0.02l0.04 0 0 -0.01c0,-0.01 0,-0.01 0,-0.01 -0.01,0 -0.01,0 -0.01,0l-0.02 0c-0.01,0 -0.01,0 -0.01,0 0,0 0,0 0,0.01l0 0.01z"/>
   <path class="fil0" d="M0 0.14l0.1 0c0,0 0.01,0 0.01,0l0.03 0.03c0,0 0,0 0,0l0.14 0 0 -0.12c0,-0.01 -0.01,-0.01 -0.01,-0.01 0,-0.01 0,-0.01 -0.01,-0.01l-0.25 0c0,0 0,0 -0.01,0.01 0,0 0,0 0,0.01l0 0.09 0 0zm0.25 0c0,-0.01 0,-0.01 0,-0.02 0,0 -0.01,0 -0.01,0l-0.06 0c-0.01,0 -0.01,0 -0.01,0 -0.01,0.01 -0.01,0.01 -0.01,0.02l0 0.01c0,0 0,0 0.01,0.01 0,0 0,0 0.01,0l0.06 0c0,0 0.01,0 0.01,0 0,-0.01 0,-0.01 0,-0.01l0 -0.01zm-0.01 0l0 0.01c0,0 0,0 0,0 0,0 0,0 0,0l-0.06 0c0,0 -0.01,0 -0.01,0 0,0 0,0 0,0l0 -0.01c0,-0.01 0,-0.01 0,-0.01 0,0 0.01,0 0.01,0l0.06 0c0,0 0,0 0,0 0,0 0,0 0,0.01zm-0.18 -0.07l0 -0.01c0,0 0,0 -0.01,0 0,0 0,0 0,0l0 0.01 -0.01 0c0,0 0,0 0,0.01 0,0 0,0 0,0l0.01 0 0 0.01c0,0 0,0 0,0 0.01,0 0.01,0 0.01,0l0 -0.01 0.01 0c0,0 0,0 0,0 0,-0.01 0,-0.01 0,-0.01l-0.01 0zm0.15 0.01l0.03 0c0,0 0,0 0,0 0,-0.01 0,-0.01 0,-0.01l-0.03 0c0,0 -0.01,0 -0.01,0.01 0,0 0.01,0 0.01,0z"/>
   <path class="fil0" d="M0.28 0.18l-0.14 0c0,0 -0.01,0 -0.01,0 -0.01,-0.01 -0.02,-0.02 -0.03,-0.03 0,0 0,-0.01 0,-0.01l-0.1 0 0 0.08c0,0 0,0 0,0.01 0.01,0 0.01,0 0.01,0l0.25 0c0.01,0 0.01,0 0.01,0 0,-0.01 0.01,-0.01 0.01,-0.01l0 -0.04 0 0z"/>
  </g>
 </g>
</svg>
