<?xml version="1.0" encoding="UTF-8"?>
<!DOCTYPE svg PUBLIC "-//W3C//DTD SVG 1.1//EN" "http://www.w3.org/Graphics/SVG/1.1/DTD/svg11.dtd">
<!-- Creator: CorelDRAW -->
<svg xmlns="http://www.w3.org/2000/svg" xml:space="preserve" width="23.0314mm" height="23.0315mm" version="1.1" style="shape-rendering:geometricPrecision; text-rendering:geometricPrecision; image-rendering:optimizeQuality; fill-rule:evenodd; clip-rule:evenodd"
viewBox="0 0 107.4 107.4"
 xmlns:xlink="http://www.w3.org/1999/xlink"
 xmlns:xodm="http://www.corel.com/coreldraw/odm/2003">
 <defs>
  <style type="text/css">
   <![CDATA[
    .fil0 {fill:#96989A;fill-rule:nonzero}
   ]]>
  </style>
 </defs>
 <g id="Layer_x0020_1">
  <metadata id="CorelCorpID_0Corel-Layer"/>
  <g id="_2958944711520">
   <path class="fil0" d="M55.05 96.61l0 10.79c8.51,-0.2 16.86,-2.44 24.33,-6.52l-5.39 -9.35c-5.83,3.14 -12.31,4.88 -18.93,5.08l-0 -0z"/>
   <path class="fil0" d="M91.53 73.99l9.35 5.39c4.08,-7.47 6.32,-15.81 6.52,-24.33l-10.79 0c-0.2,6.62 -1.94,13.1 -5.08,18.94l0 0z"/>
   <path class="fil0" d="M76.32 90.18l5.39 9.35c7.26,-4.45 13.36,-10.56 17.81,-17.81l-9.35 -5.39 0 0c-3.5,5.62 -8.24,10.36 -13.86,13.86l-0 0z"/>
   <path class="fil0" d="M28.03 100.88l-0 0c7.48,4.08 15.82,6.32 24.33,6.52l0 -10.79c-6.62,-0.2 -13.1,-1.94 -18.93,-5.08l-5.4 9.35z"/>
   <path class="fil0" d="M90.18 31.09l9.35 -5.39c-4.45,-7.26 -10.56,-13.36 -17.81,-17.81l-5.39 9.35c5.62,3.5 10.36,8.24 13.86,13.86l0 0z"/>
   <path class="fil0" d="M17.23 76.32l-9.35 5.39c4.46,7.26 10.56,13.36 17.81,17.81l5.39 -9.35 -0 -0c-5.62,-3.5 -10.35,-8.24 -13.86,-13.86l-0 0z"/>
   <path class="fil0" d="M31.09 17.23l-5.39 -9.35c-7.26,4.46 -13.36,10.56 -17.81,17.81l9.35 5.39c3.5,-5.62 8.24,-10.36 13.86,-13.86l0 -0z"/>
   <path class="fil0" d="M10.79 55.05l-10.79 0c0.2,8.51 2.44,16.86 6.52,24.33l9.35 -5.39c-3.14,-5.83 -4.88,-12.31 -5.08,-18.93l0 -0z"/>
   <path class="fil0" d="M52.35 10.79l0 -10.79c-8.51,0.2 -16.86,2.43 -24.33,6.52l5.39 9.35c5.83,-3.14 12.31,-4.88 18.93,-5.08l0 0z"/>
   <path class="fil0" d="M15.87 33.42l-9.35 -5.39c-4.09,7.47 -6.33,15.81 -6.53,24.33l10.79 -0c0.2,-6.62 1.94,-13.1 5.08,-18.93l0 -0z"/>
   <path class="fil0" d="M96.61 52.35l10.79 0c-0.2,-8.51 -2.43,-16.86 -6.52,-24.33l-9.35 5.39c3.14,5.83 4.88,12.31 5.08,18.93l-0 0z"/>
   <path class="fil0" d="M79.38 6.53c-7.47,-4.09 -15.81,-6.33 -24.33,-6.53l0 10.79c6.62,0.2 13.1,1.94 18.94,5.08l5.39 -9.34z"/>
   <path class="fil0" d="M93.94 53.7c0,-22.19 -18.05,-40.23 -40.23,-40.23 -22.19,0 -40.23,18.05 -40.23,40.23 0,22.18 18.05,40.23 40.23,40.23 22.19,0 40.23,-18.05 40.23,-40.23zm-19.33 9.64c0,7.23 -4.82,13.37 -11.46,15.45l0 2.92c0,2.48 -2.01,4.5 -4.5,4.5 -2.48,0 -4.5,-2.01 -4.5,-4.5l0 -2.17 -3.43 0 0 2.17c0,2.49 -2.01,4.5 -4.49,4.5 -2.48,0 -4.5,-2.01 -4.5,-4.5l0 -2.17 -4.44 0c-2.48,0 -4.5,-2.01 -4.5,-4.5 0,-2.48 2.01,-4.5 4.5,-4.5l2.54 0 0 -33.1 -2.54 0c-2.48,0 -4.5,-2.01 -4.5,-4.5 0,-2.48 2.01,-4.5 4.5,-4.5l4.43 0 0 -1.82 0 0c0,-2.49 2.01,-4.5 4.5,-4.5 2.48,0 4.5,2.01 4.5,4.5l0 1.82 3.44 0 0 -1.82c0,-2.49 2.01,-4.5 4.5,-4.5 2.48,0 4.5,2.01 4.5,4.5l0 2.45c5.44,1.72 9.4,6.76 9.4,12.69l0 0.44c0,3.17 -1.15,6.24 -3.23,8.64 3.36,3.05 5.29,7.37 5.29,11.91l0.01 0.56z"/>
   <path class="fil0" d="M58.18 55.55l-9.34 0 0 15.01 9.34 0c4.1,0 7.42,-3.24 7.42,-7.22l0 -0.57c0.02,-3.98 -3.32,-7.22 -7.42,-7.22z"/>
   <path class="fil0" d="M59.06 46.56c2.47,0 4.5,-1.94 4.5,-4.33l0 -0.44c0,-2.39 -2.02,-4.33 -4.5,-4.33l-10.22 -0 0 9.09 10.22 0 0 0.01z"/>
  </g>
 </g>
</svg>
