<?xml version="1.0" encoding="UTF-8"?>
<!DOCTYPE svg PUBLIC "-//W3C//DTD SVG 1.1//EN" "http://www.w3.org/Graphics/SVG/1.1/DTD/svg11.dtd">
<!-- Creator: CorelDRAW -->
<svg xmlns="http://www.w3.org/2000/svg" xml:space="preserve" width="23.1495mm" height="23.151mm" version="1.1" style="shape-rendering:geometricPrecision; text-rendering:geometricPrecision; image-rendering:optimizeQuality; fill-rule:evenodd; clip-rule:evenodd"
viewBox="0 0 97.39 97.39"
 xmlns:xlink="http://www.w3.org/1999/xlink"
 xmlns:xodm="http://www.corel.com/coreldraw/odm/2003">
 <defs>
  <style type="text/css">
   <![CDATA[
    .fil0 {fill:#96989A}
   ]]>
  </style>
 </defs>
 <g id="Layer_x0020_1">
  <metadata id="CorelCorpID_0Corel-Layer"/>
  <path class="fil0" d="M47.07 96.99c-22.52,-11.9 -34.68,-23.9 -40.97,-35.8 -6.41,-12.12 -6.83,-24.24 -5.46,-36.37 0.2,-1.76 1.69,-3.09 3.46,-3.09 10.68,0 16.27,-8.27 16.27,-18.26 0,-1.92 1.56,-3.48 3.48,-3.48l49.7 0c1.92,0 3.48,1.56 3.48,3.48 0,9.99 5.59,18.26 16.27,18.26 1.77,0 3.26,1.33 3.46,3.09 1.37,12.13 0.95,24.24 -5.46,36.37 -6.29,11.9 -18.45,23.9 -40.97,35.8 -1.02,0.54 -2.23,0.54 -3.25,0l0 0zm0 -17.39c1.02,0.54 2.23,0.54 3.25,0 14.18,-7.49 21.81,-15.09 25.77,-22.58 4.09,-7.72 4.38,-15.43 3.51,-23.16 -0.2,-1.76 -1.69,-3.09 -3.46,-3.09 -5.75,0 -8.68,-4.52 -8.68,-9.9 0,-1.92 -1.56,-3.48 -3.48,-3.48l-30.58 0c-1.92,0 -3.48,1.56 -3.48,3.48 0,5.38 -2.93,9.9 -8.68,9.9 -1.77,0 -3.26,1.33 -3.46,3.09 -0.87,7.72 -0.58,15.44 3.51,23.16 3.96,7.49 11.59,15.09 25.77,22.58l0 0zm1.63 -7.03c-11.47,-6.3 -17.91,-12.5 -21.24,-18.81 -2.87,-5.43 -3.37,-10.87 -3,-16.31 6.87,-1.22 11.1,-6.4 12.17,-13.1l24.17 -0c1.07,6.7 5.29,11.89 12.17,13.1 0.36,5.43 -0.13,10.87 -3,16.31 -3.33,6.3 -9.78,12.51 -21.24,18.81l-0 0z"/>
 </g>
</svg>
