<?xml version="1.0" encoding="UTF-8"?>
<!DOCTYPE svg PUBLIC "-//W3C//DTD SVG 1.1//EN" "http://www.w3.org/Graphics/SVG/1.1/DTD/svg11.dtd">
<!-- Creator: CorelDRAW -->
<svg xmlns="http://www.w3.org/2000/svg" xml:space="preserve" width="23.1176mm" height="22.9904mm" version="1.1" style="shape-rendering:geometricPrecision; text-rendering:geometricPrecision; image-rendering:optimizeQuality; fill-rule:evenodd; clip-rule:evenodd"
viewBox="0 0 148.98 148.16"
 xmlns:xlink="http://www.w3.org/1999/xlink"
 xmlns:xodm="http://www.corel.com/coreldraw/odm/2003">
 <defs>
  <style type="text/css">
   <![CDATA[
    .fil0 {fill:#96989A;fill-rule:nonzero}
   ]]>
  </style>
 </defs>
 <g id="Layer_x0020_1">
  <metadata id="CorelCorpID_0Corel-Layer"/>
  <path class="fil0" d="M125.4 44.55l-5.44 5.42c-7.01,-13.21 -21.65,-40.44 -25.45,-44.95 -4.86,-5.77 -18.35,-6.47 -49.71,-2.6l-1.06 0.12c-4.22,0.49 -8,2.8 -10.35,6.34 -0.48,0.72 -0.88,1.47 -1.2,2.24 -0.8,-0.08 -1.61,-0.14 -2.44,-0.14 -14.09,0 -25.56,11.47 -25.56,25.56 0,4.36 1.1,8.47 3.04,12.06 -4.45,5.16 -7.17,11.86 -7.22,19.19 -0.06,10.07 4.96,19.41 13.25,24.94l-0.24 39 16.24 16.45 18.18 -17.95 -7.26 -7.36 7.35 -7.26 -7.26 -7.35 5.62 -5.55 0.06 -9.76c8.36,-5.42 13.49,-14.7 13.55,-24.77 0.01,-1.22 -0.08,-2.42 -0.22,-3.6 6.02,6.98 11.2,12.69 13.04,13.91 1.65,1.1 7.56,4.17 12.42,6.64l-9.13 9.1 20.07 23.35 53.31 -45.57 -23.58 -27.42zm-95.65 -25.26c0.62,0 1.23,0.04 1.84,0.1 0.61,2.64 1.96,5.36 3.99,8.04 -0.71,3.81 0.31,7.98 3.01,12.13 -2.74,-0.85 -5.64,-1.33 -8.66,-1.35 -0.06,0 -0.12,0 -0.19,0 -5.88,0 -11.36,1.74 -15.99,4.71 -0.8,-1.98 -1.25,-4.14 -1.25,-6.4 0,-9.51 7.73,-17.24 17.24,-17.24zm10.08 67.58l-2.18 1.17 -0.07 11.15 -9.09 8.98 7.26 7.35 -7.35 7.26 7.26 7.36 -6.34 6.26 -7.97 -8.07 0.25 -40.38 -2.17 -1.19c-6.9,-3.8 -11.16,-11.05 -11.11,-18.91 0.03,-4.68 1.58,-8.99 4.16,-12.5 2.46,2.26 5.37,4.04 8.57,5.21 0.27,4.56 4,8.19 8.63,8.22 4.83,0.03 8.76,-3.86 8.79,-8.68 0.03,-4.83 -3.86,-8.76 -8.68,-8.79 -1.95,-0.01 -3.73,0.63 -5.19,1.7 -2.22,-0.69 -4.24,-1.83 -5.97,-3.3 3.25,-1.98 7.04,-3.14 11.11,-3.14 0.04,0 0.09,0 0.13,0 11.81,0.07 21.36,9.74 21.29,21.55 -0.05,7.87 -4.39,15.06 -11.34,18.77zm37.12 -15.32c-2.19,-1.6 -14.83,-16.21 -30.07,-34.72 -2.22,-2.7 -4.43,-6.56 -2.41,-9.6 0.91,-1.36 2.29,-2.28 3.89,-2.6 1.54,-0.31 3.11,-0.02 4.43,0.81l5.31 4.33 18 15.64 5.46 -6.28 -18.1 -15.72 -5.58 -4.55 -0.32 -0.24c-3.2,-2.14 -7.06,-2.9 -10.83,-2.14 -0.31,0.06 -0.61,0.15 -0.91,0.23 -1.64,-1.33 -3.45,-2.46 -5.38,-3.35 1,-1.41 2.54,-2.34 4.24,-2.54l1.09 -0.12c34.86,-4.29 41.25,-1.64 42.38,-0.29 2.89,3.43 16.38,28.2 25.66,45.72l-22.86 22.8c-5.78,-2.93 -12.64,-6.47 -13.99,-7.36z"/>
 </g>
</svg>
