<?xml version="1.0" encoding="UTF-8"?>
<!DOCTYPE svg PUBLIC "-//W3C//DTD SVG 1.1//EN" "http://www.w3.org/Graphics/SVG/1.1/DTD/svg11.dtd">
<!-- Creator: CorelDRAW -->
<svg xmlns="http://www.w3.org/2000/svg" xml:space="preserve" width="9.7151mm" height="9.5663mm" version="1.1" style="shape-rendering:geometricPrecision; text-rendering:geometricPrecision; image-rendering:optimizeQuality; fill-rule:evenodd; clip-rule:evenodd"
viewBox="0 0 14.16 13.94"
 xmlns:xlink="http://www.w3.org/1999/xlink"
 xmlns:xodm="http://www.corel.com/coreldraw/odm/2003">
 <defs>
  <style type="text/css">
   <![CDATA[
    .fil0 {fill:#57585A}
   ]]>
  </style>
 </defs>
 <g id="Layer_x0020_1">
  <metadata id="CorelCorpID_0Corel-Layer"/>
  <path class="fil0" d="M0.84 6.97c0,-3.39 2.79,-6.14 6.23,-6.14 3.45,0 6.23,2.75 6.23,6.14 0,3.39 -2.79,6.14 -6.23,6.14 -3.45,0 -6.23,-2.75 -6.23,-6.14zm-0.84 0c0,-3.85 3.16,-6.97 7.08,-6.97 3.91,0 7.08,3.12 7.08,6.97 0,3.85 -3.16,6.97 -7.08,6.97 -3.91,0 -7.08,-3.12 -7.08,-6.97zm0.56 0c0,-3.53 2.93,-6.42 6.52,-6.42 3.59,0 6.52,2.89 6.52,6.42 0,3.53 -2.93,6.42 -6.52,6.42 -3.59,0 -6.52,-2.89 -6.52,-6.42zm3.87 0.74c0.7,-0.72 1.31,0.12 1.73,0.53 0.89,-0.46 1.8,-1.27 2.2,-2.17 -1.27,-1.15 -1.03,-1.32 0.42,-2.65 0.73,-0.69 1.31,0.12 1.76,0.58 0.23,0.21 0.35,0.48 0.38,0.81 0.23,2.05 -3.12,5.84 -5.79,6 -0.8,0.02 -1.1,-0.42 -1.66,-0.97 -0.33,-0.35 -0.35,-0.83 0.02,-1.18l0.94 -0.95z"/>
 </g>
</svg>
