<?xml version="1.0" encoding="UTF-8"?>
<!DOCTYPE svg PUBLIC "-//W3C//DTD SVG 1.1//EN" "http://www.w3.org/Graphics/SVG/1.1/DTD/svg11.dtd">
<!-- Creator: CorelDRAW -->
<svg xmlns="http://www.w3.org/2000/svg" xml:space="preserve" width="23.5785mm" height="23.0429mm" version="1.1" style="shape-rendering:geometricPrecision; text-rendering:geometricPrecision; image-rendering:optimizeQuality; fill-rule:evenodd; clip-rule:evenodd"
viewBox="0 0 131.79 128.8"
 xmlns:xlink="http://www.w3.org/1999/xlink"
 xmlns:xodm="http://www.corel.com/coreldraw/odm/2003">
 <defs>
  <style type="text/css">
   <![CDATA[
    .fil0 {fill:#96989A;fill-rule:nonzero}
   ]]>
  </style>
 </defs>
 <g id="Layer_x0020_1">
  <metadata id="CorelCorpID_0Corel-Layer"/>
  <g id="_2961618116128">
   <path class="fil0" d="M131.57 15.89c-1.56,-10.2 -11.15,-17.23 -21.34,-15.67 -4.94,0.76 -9.3,3.39 -12.26,7.43 -2.23,3.04 -3.46,6.59 -3.62,10.28 -0.05,1.22 0.01,2.46 0.2,3.7 0.23,1.5 1.63,2.52 3.12,2.29 1.32,-0.2 2.28,-1.32 2.32,-2.61 0.01,-0.19 0,-0.38 -0.03,-0.57 -0.13,-0.86 -0.17,-1.71 -0.14,-2.56 0.12,-2.59 0.99,-5.09 2.56,-7.23 2.09,-2.85 5.17,-4.72 8.67,-5.25 7.22,-1.11 13.99,3.87 15.1,11.08 0.13,0.86 0.18,1.71 0.14,2.56 -0.12,2.59 -0.99,5.09 -2.56,7.23 -2.09,2.85 -5.17,4.72 -8.67,5.25 -1.65,0.25 -3.3,0.2 -4.91,-0.17 -1.48,-0.33 -2.94,0.59 -3.27,2.07 -0.04,0.2 -0.06,0.39 -0.06,0.58 -0.04,1.28 0.83,2.45 2.13,2.75 1.34,0.3 2.71,0.46 4.08,0.46 0.95,0 1.91,-0.07 2.86,-0.22 4.94,-0.76 9.3,-3.39 12.26,-7.43 2.23,-3.04 3.47,-6.59 3.62,-10.28 0.05,-1.22 -0.01,-2.46 -0.2,-3.7z"/>
   <path class="fil0" d="M3.64 29.86c2.96,4.03 7.31,6.67 12.25,7.42 0.95,0.15 1.91,0.22 2.86,0.22 1.37,0 2.74,-0.15 4.08,-0.46 1.3,-0.29 2.17,-1.46 2.13,-2.75 0,-0.19 -0.02,-0.39 -0.06,-0.58 -0.33,-1.48 -1.8,-2.4 -3.27,-2.07 -1.6,0.36 -3.26,0.42 -4.91,0.16 -3.5,-0.53 -6.58,-2.4 -8.67,-5.25 -1.57,-2.14 -2.45,-4.64 -2.56,-7.23 -0.03,-0.85 0.01,-1.7 0.14,-2.56 1.11,-7.22 7.88,-12.2 15.1,-11.08 3.5,0.53 6.58,2.4 8.67,5.25 1.57,2.14 2.44,4.64 2.56,7.23 0.03,0.85 -0.01,1.7 -0.14,2.56 -0.03,0.19 -0.04,0.38 -0.03,0.57 0.05,1.29 1,2.41 2.32,2.61 1.48,0.22 2.89,-0.8 3.12,-2.29 0.19,-1.24 0.26,-2.47 0.2,-3.7 -0.15,-3.68 -1.39,-7.24 -3.62,-10.28 -2.96,-4.03 -7.31,-6.67 -12.26,-7.43 -10.19,-1.56 -19.78,5.46 -21.34,15.67 -0.19,1.24 -0.26,2.47 -0.2,3.7 0.15,3.69 1.39,7.24 3.62,10.28z"/>
   <path class="fil0" d="M34.11 104.94c-1.5,0.23 -2.52,1.63 -2.29,3.12 0.53,3.5 -0.32,6.99 -2.41,9.85 -2.09,2.85 -5.17,4.72 -8.67,5.25 -7.22,1.11 -13.99,-3.87 -15.1,-11.08 -0.54,-3.5 0.32,-6.99 2.42,-9.85 2.09,-2.85 5.17,-4.72 8.67,-5.25 1.65,-0.25 3.3,-0.2 4.91,0.17 1.47,0.33 2.94,-0.59 3.27,-2.07 0.33,-1.48 -0.59,-2.94 -2.07,-3.28 -2.28,-0.51 -4.62,-0.59 -6.94,-0.24 -4.94,0.76 -9.3,3.39 -12.26,7.42 -2.96,4.03 -4.17,8.97 -3.42,13.92 1.42,9.25 9.41,15.89 18.5,15.89 0.94,0 1.89,-0.07 2.85,-0.22 4.94,-0.76 9.3,-3.39 12.26,-7.43 2.96,-4.03 4.17,-8.97 3.41,-13.92 -0.23,-1.49 -1.63,-2.53 -3.12,-2.29z"/>
   <path class="fil0" d="M115.9 91.57c-2.33,-0.36 -4.67,-0.27 -6.95,0.24 -1.48,0.34 -2.4,1.8 -2.07,3.28 0.33,1.48 1.8,2.4 3.27,2.07 1.61,-0.36 3.26,-0.42 4.91,-0.17 3.49,0.53 6.58,2.4 8.67,5.25 2.09,2.85 2.95,6.35 2.41,9.85 -1.1,7.22 -7.88,12.19 -15.1,11.08 -3.5,-0.54 -6.58,-2.4 -8.67,-5.25 -2.09,-2.85 -2.95,-6.35 -2.41,-9.84 0.23,-1.5 -0.8,-2.89 -2.29,-3.12 -1.49,-0.23 -2.89,0.8 -3.12,2.29 -0.76,4.94 0.45,9.89 3.41,13.92 2.96,4.03 7.31,6.67 12.26,7.43 0.96,0.15 1.91,0.22 2.85,0.22 9.08,0 17.08,-6.64 18.5,-15.89 0.76,-4.94 -0.46,-9.89 -3.42,-13.92 -2.96,-4.03 -7.31,-6.67 -12.25,-7.42z"/>
   <path class="fil0" d="M104.76 110.18c0,4.49 3.65,8.15 8.14,8.15 4.49,0 8.14,-3.65 8.14,-8.15 0,-4.49 -3.65,-8.14 -8.14,-8.14 -1.21,0 -2.35,0.28 -3.38,0.76l-19.34 -25.49 0 -25.76 19.34 -25.49c1.03,0.47 2.17,0.76 3.38,0.76 4.49,0 8.15,-3.65 8.15,-8.14 0,-4.49 -3.65,-8.15 -8.15,-8.15 -4.49,0 -8.14,3.65 -8.14,8.15 0,0.88 0.18,1.72 0.44,2.52l-27.58 20.93 -23.46 0 -27.58 -20.93c0.26,-0.8 0.44,-1.63 0.44,-2.51 0,-4.49 -3.65,-8.14 -8.14,-8.14 -4.49,0 -8.15,3.65 -8.15,8.14 0,4.49 3.65,8.14 8.15,8.14 1.21,0 2.35,-0.28 3.38,-0.76l19.35 25.49 0 25.76 -19.34 25.49c-1.03,-0.48 -2.17,-0.76 -3.38,-0.76 -4.49,0 -8.14,3.66 -8.14,8.14 0,4.49 3.65,8.15 8.14,8.15 4.49,0 8.14,-3.65 8.14,-8.15 0,-0.88 -0.18,-1.72 -0.44,-2.52l27.58 -20.93 23.45 0 27.58 20.93c-0.26,0.8 -0.44,1.63 -0.44,2.52zm3.27 -85.02c0.03,0.02 0.05,0.04 0.07,0.06 -0.03,-0.02 -0.05,-0.04 -0.07,-0.06zm4.87 -9.15c1.47,0 2.67,1.2 2.67,2.67 0,1.47 -1.2,2.67 -2.67,2.67 -1.47,0 -2.67,-1.2 -2.67,-2.67 0,-1.47 1.2,-2.67 2.67,-2.67zm-6.03 8.09c-0.01,-0.01 -0.03,-0.03 -0.04,-0.04 0.01,0.02 0.02,0.03 0.04,0.04zm-87.99 -2.76c-1.47,0 -2.67,-1.2 -2.67,-2.67 0,-1.47 1.2,-2.67 2.67,-2.67 1.47,0 2.67,1.2 2.67,2.67 0,1.47 -1.2,2.67 -2.67,2.67zm0 91.51c-1.47,0 -2.67,-1.19 -2.67,-2.67 0,-1.47 1.2,-2.67 2.67,-2.67 1.47,0 2.67,1.2 2.67,2.67 0,1.47 -1.2,2.67 -2.67,2.67zm94.02 -5.34c1.47,0 2.67,1.2 2.67,2.67 0,1.47 -1.2,2.67 -2.67,2.67 -1.47,0 -2.67,-1.19 -2.67,-2.67 0,-1.47 1.2,-2.67 2.67,-2.67z"/>
  </g>
 </g>
</svg>
