<?xml version="1.0" encoding="UTF-8"?>
<!DOCTYPE svg PUBLIC "-//W3C//DTD SVG 1.1//EN" "http://www.w3.org/Graphics/SVG/1.1/DTD/svg11.dtd">
<!-- Creator: CorelDRAW -->
<svg xmlns="http://www.w3.org/2000/svg" xml:space="preserve" width="20px" height="20px" version="1.1" style="shape-rendering:geometricPrecision; text-rendering:geometricPrecision; image-rendering:optimizeQuality; fill-rule:evenodd; clip-rule:evenodd"
viewBox="0 0 10.73 10.73"
 xmlns:xlink="http://www.w3.org/1999/xlink"
 xmlns:xodm="http://www.corel.com/coreldraw/odm/2003">
 <defs>
  <style type="text/css">
   <![CDATA[
    .fil0 {fill:#848688;fill-rule:nonzero}
   ]]>
  </style>
 </defs>
 <g id="Layer_x0020_1">
  <metadata id="CorelCorpID_0Corel-Layer"/>
  <g id="_1442010917776">
   <path class="fil0" d="M9.72 3.95l0 0c-0.29,-0.91 -0.88,-1.73 -1.66,-2.29 -0.79,-0.58 -1.72,-0.88 -2.7,-0.88 -0.97,0 -1.9,0.3 -2.69,0.88 -0.78,0.56 -1.37,1.38 -1.67,2.29 -0.14,0.45 -0.22,0.93 -0.22,1.41 0,0.49 0.08,0.97 0.22,1.42 0.3,0.91 0.89,1.73 1.67,2.29 0.79,0.58 1.72,0.88 2.69,0.88 0,0 0,0 0,0 0,0 0,0 0,0 0,0 0,0 0,0 0.98,0 1.91,-0.3 2.7,-0.88 0.78,-0.56 1.37,-1.38 1.67,-2.29 0.14,-0.45 0.22,-0.93 0.22,-1.42 0,-0.48 -0.08,-0.96 -0.23,-1.41zm-3.65 1.94c-0.05,0.07 -0.12,0.13 -0.19,0.19 -0.08,0.05 -0.16,0.1 -0.25,0.12 -0.18,0.06 -0.37,0.06 -0.55,0l0 0c-0.08,-0.03 -0.16,-0.07 -0.23,-0.12 -0.08,-0.06 -0.15,-0.13 -0.2,-0.2 -0.06,-0.08 -0.1,-0.16 -0.12,-0.24 -0.03,-0.09 -0.05,-0.18 -0.05,-0.28l0 0c0,-0.09 0.02,-0.18 0.05,-0.27 0.03,-0.09 0.07,-0.17 0.13,-0.25 0.05,-0.07 0.11,-0.14 0.19,-0.19 0.07,-0.06 0.16,-0.1 0.25,-0.13 0.18,-0.05 0.37,-0.05 0.54,0.01l0 0c0.09,0.03 0.17,0.07 0.24,0.12 0.08,0.06 0.15,0.13 0.2,0.2 0.05,0.08 0.09,0.16 0.12,0.24 0.03,0.09 0.05,0.18 0.05,0.27l0 0.01c-0.01,0.09 -0.02,0.18 -0.05,0.27 -0.03,0.09 -0.07,0.17 -0.13,0.25zm-1.01 0.39l0.01 -0.03 -0.01 0.03 0 0zm0.61 -1.83l-0.01 0.03 0.01 -0.03 0 0zm0.66 0.51c-0.02,-0.05 -0.04,-0.1 -0.07,-0.14 0.25,-0.22 1.27,-1.1 1.74,-1.26 0.4,-0.12 1.11,0.22 1.43,0.39l-3.1 1.01zm-0.42 -0.49c-0.04,-0.03 -0.09,-0.06 -0.14,-0.08 0.13,-0.59 0.42,-1.68 0.67,-2.03 0.25,-0.34 1.02,-0.48 1.39,-0.53l-1.92 2.64zm-0.63 -0.15c-0.05,0 -0.11,0.01 -0.16,0.02 -0.13,-0.3 -0.65,-1.54 -0.65,-2.04 0,-0.42 0.54,-0.99 0.81,-1.24l0 3.26zm-0.71 0.36c-0.28,-0.17 -1.44,-0.86 -1.73,-1.27 -0.25,-0.34 -0.14,-1.12 -0.08,-1.48l1.92 2.64c-0.04,0.03 -0.08,0.07 -0.11,0.11zm-0.25 0.6c-0.33,0.03 -1.67,0.14 -2.15,-0.01 -0.4,-0.13 -0.77,-0.83 -0.93,-1.16l3.1 1.01c-0.01,0.05 -0.02,0.1 -0.02,0.16zm0.07 0.49c0.02,0.05 0.05,0.09 0.08,0.14 -0.25,0.22 -1.27,1.1 -1.74,1.25 -0.4,0.13 -1.11,-0.21 -1.43,-0.38l3.09 -1.01zm0.43 0.49c0.04,0.03 0.09,0.05 0.14,0.07 -0.13,0.6 -0.42,1.69 -0.67,2.04 -0.25,0.34 -1.03,0.48 -1.39,0.53l1.92 -2.64zm0.63 0.15c0.05,0 0.1,-0.01 0.16,-0.02 0.13,0.3 0.65,1.54 0.65,2.04 0,0.42 -0.55,0.99 -0.81,1.24l0 -3.26zm0.71 -0.36c0.28,0.17 1.44,0.86 1.73,1.27 0.25,0.34 0.14,1.12 0.07,1.48l-1.91 -2.64c0.04,-0.03 0.08,-0.07 0.11,-0.11zm0.25 -0.6c0.33,-0.03 1.67,-0.15 2.15,0.01 0.39,0.13 0.77,0.82 0.93,1.15l-3.1 -1c0.01,-0.05 0.02,-0.11 0.02,-0.16z"/>
   <path class="fil0" d="M9.16 1.57c-1.02,-1.01 -2.36,-1.57 -3.8,-1.57 -1.43,0 -2.78,0.56 -3.79,1.57 -1.01,1.01 -1.57,2.36 -1.57,3.79 0,1.44 0.56,2.78 1.57,3.8 1.01,1.01 2.36,1.57 3.79,1.57 1.44,0 2.78,-0.56 3.8,-1.57 1.01,-1.02 1.57,-2.36 1.57,-3.8 0,-1.43 -0.56,-2.78 -1.57,-3.79zm-3.8 8.99c-2.86,0 -5.19,-2.33 -5.19,-5.2 0,-2.86 2.33,-5.19 5.19,-5.19 2.87,0 5.2,2.33 5.2,5.19 0,2.87 -2.33,5.2 -5.2,5.2z"/>
   <path class="fil0" d="M5.98 5.36c0,-0.33 -0.28,-0.61 -0.62,-0.61 -0.33,0 -0.61,0.28 -0.61,0.61 0,0.34 0.28,0.62 0.61,0.62 0.34,0 0.62,-0.28 0.62,-0.62z"/>
  </g>
 </g>
</svg>
