<?xml version="1.0" encoding="UTF-8"?>
<!DOCTYPE svg PUBLIC "-//W3C//DTD SVG 1.1//EN" "http://www.w3.org/Graphics/SVG/1.1/DTD/svg11.dtd">
<!-- Creator: CorelDRAW -->
<svg xmlns="http://www.w3.org/2000/svg" xml:space="preserve" width="20px" height="20px" version="1.1" style="shape-rendering:geometricPrecision; text-rendering:geometricPrecision; image-rendering:optimizeQuality; fill-rule:evenodd; clip-rule:evenodd"
viewBox="0 0 0.47 0.48"
 xmlns:xlink="http://www.w3.org/1999/xlink"
 xmlns:xodm="http://www.corel.com/coreldraw/odm/2003">
 <defs>
  <style type="text/css">
   <![CDATA[
    .fil0 {fill:#606062}
   ]]>
  </style>
 </defs>
 <g id="Layer_x0020_1">
  <metadata id="CorelCorpID_0Corel-Layer"/>
  <path class="fil0" d="M0.35 0.01c-0.02,-0.01 -0.04,-0.01 -0.06,-0.01 -0.06,0 -0.12,0.02 -0.17,0.06 -0.05,0.04 -0.09,0.1 -0.11,0.16 -0.01,0.02 -0.01,0.04 -0.01,0.06 0,0.04 0.01,0.07 0.03,0.1 0.02,0.02 0.04,0.04 0.08,0.05 0.01,0 0.03,0.01 0.05,0.01 0.06,0 0.12,-0.03 0.18,-0.07 0.05,-0.04 0.09,-0.09 0.11,-0.15 0,-0.02 0.01,-0.04 0.01,-0.06 0,-0.04 -0.01,-0.07 -0.03,-0.1 -0.02,-0.02 -0.05,-0.04 -0.08,-0.05zm0.05 0.21c0,0 0,0 0,0 -0.01,0.05 -0.04,0.09 -0.08,0.12 -0.05,0.04 -0.1,0.06 -0.14,0.06 -0.02,0 -0.04,-0.01 -0.05,-0.01 -0.03,-0.01 -0.05,-0.02 -0.06,-0.05 -0.02,-0.02 -0.03,-0.04 -0.03,-0.07 0,-0.02 0.01,-0.03 0.01,-0.05 0,0 0,0 0,0 0.02,-0.05 0.05,-0.09 0.09,-0.13 0.04,-0.03 0.09,-0.05 0.14,-0.05 0.02,0 0.03,0 0.05,0.01 0.02,0.01 0.04,0.02 0.06,0.04 0.01,0.02 0.02,0.05 0.02,0.08 0,0.01 0,0.03 -0.01,0.05l0 0zm-0.13 -0.15l0.01 -0.02c0.02,0 0.03,0 0.04,0 0.03,0.01 0.05,0.03 0.07,0.05 0.01,0.02 0.02,0.04 0.02,0.07 0,0.01 0,0.03 -0.01,0.05l-0.03 0c0,0 0,0 0,0 0,0 0,0 0,0l0.03 0c-0.02,0.05 -0.05,0.09 -0.09,0.12 -0.04,0.03 -0.08,0.05 -0.13,0.05l0.01 -0.03c0,0 0,0 0,0 -0.01,0 -0.01,0 -0.01,0l-0.01 0.03c-0.01,0 -0.02,0 -0.04,-0.01 -0.02,0 -0.04,-0.02 -0.06,-0.04 -0.01,-0.02 -0.02,-0.04 -0.02,-0.07 0,-0.02 0,-0.03 0.01,-0.05l0.02 0c0,0 0.01,0 0.01,0 0,0 -0.01,0 -0.01,0l-0.02 0c0.01,-0.05 0.04,-0.09 0.08,-0.12 0.04,-0.03 0.09,-0.05 0.14,-0.05l-0.01 0.02c0,0 0,0.01 0,0.01 0,0 0,0 0,-0.01l0 0zm0 0.14c-0.01,0.01 -0.01,0.02 -0.02,0.03l0 0c-0.01,0.01 -0.02,0.01 -0.03,0.02 -0.01,0 -0.02,-0.01 -0.02,-0.01l0 0c-0.01,-0.01 -0.01,-0.02 -0.01,-0.03 0,-0.01 0.01,-0.02 0.02,-0.02l0 -0.01c0.01,0 0.02,-0.01 0.03,-0.01 0.01,0 0.02,0 0.02,0.01l0 0c0.01,0.01 0.01,0.02 0.01,0.02zm-0.06 0.05l-0.1 0.07c0,0 0,0 -0.01,0 0,0 0,-0.01 0,-0.01l0.08 -0.09c0,0 0,-0.01 0.01,-0.01 0,-0.01 0,-0.02 0.01,-0.03l0 0c0.01,-0.01 0.03,-0.01 0.04,-0.01 0,0 0,0 0.01,0l0.1 -0.07c0,0 0,0 0,0 0,0 0,0 0,0l-0.08 0.1c0,0 0,0 0,0.01 0,0.01 -0.01,0.02 -0.02,0.03l0 0c-0.01,0 -0.02,0.01 -0.03,0.01 0,0 -0.01,0 -0.01,0l0 0zm0.25 -0.13c0,0.02 0.01,0.03 0.01,0.05 0,0.03 0,0.05 -0.01,0.08 -0.02,0.06 -0.06,0.11 -0.11,0.15 -0.05,0.04 -0.11,0.07 -0.17,0.07 -0.04,0 -0.08,-0.02 -0.11,-0.04 -0.02,-0.02 -0.04,-0.04 -0.05,-0.07 0,0 0,0.01 0,0.01 0.02,0.02 0.05,0.04 0.09,0.05 0.01,0.01 0.03,0.01 0.05,0.01 0.06,0 0.13,-0.02 0.18,-0.06 0.05,-0.04 0.09,-0.1 0.11,-0.16 0.01,-0.02 0.01,-0.04 0.01,-0.06 0,-0.01 0,-0.02 0,-0.03l0 0z"/>
 </g>
</svg>
