<?xml version="1.0" encoding="UTF-8"?>
<!DOCTYPE svg PUBLIC "-//W3C//DTD SVG 1.1//EN" "http://www.w3.org/Graphics/SVG/1.1/DTD/svg11.dtd">
<!-- Creator: CorelDRAW -->
<svg xmlns="http://www.w3.org/2000/svg" xml:space="preserve" width="20px" height="20px" version="1.1" style="shape-rendering:geometricPrecision; text-rendering:geometricPrecision; image-rendering:optimizeQuality; fill-rule:evenodd; clip-rule:evenodd"
viewBox="0 0 0.53 0.54"
 xmlns:xlink="http://www.w3.org/1999/xlink"
 xmlns:xodm="http://www.corel.com/coreldraw/odm/2003">
 <defs>
  <style type="text/css">
   <![CDATA[
    .fil0 {fill:#606062;fill-rule:nonzero}
   ]]>
  </style>
 </defs>
 <g id="Layer_x0020_1">
  <metadata id="CorelCorpID_0Corel-Layer"/>
  <g id="_2675802249632">
   <polygon class="fil0" points="0.22,0.34 0,0.34 0,0.41 0.22,0.41 0.22,0.41 0.26,0.41 0.26,0.39 0.23,0.39 0.23,0.36 0.26,0.36 0.26,0.35 0.22,0.35 "/>
   <path class="fil0" d="M0.24 0.25c0,-0.03 -0.01,-0.04 -0.01,-0.04l0 0 0 0 -0.12 -0.21 -0.09 0c0,0 -0.01,0 -0.01,0 0,0.01 0,0.01 0,0.02 0.03,0.03 0.04,0.07 0.05,0.11 0,0.03 0,0.06 -0.01,0.09 -0.02,0.05 -0.04,0.08 -0.05,0.09l0 0.01 0.22 0 0 -0.01 0.04 0 0 0 0 -0.01 -0.02 0 0 -0.05z"/>
   <path class="fil0" d="M0.22 0.44l-0.22 0 0 0.07c0,0.03 0.02,0.03 0.03,0.03l0.18 0c0.01,0 0.02,0 0.02,0 0.01,-0.02 0.01,-0.04 0.01,-0.04l0 0 0.02 0 0 -0.01 -0.03 0 0 -0.03 0.03 0 0 -0.01 -0.04 0 0 -0.01z"/>
   <path class="fil0" d="M0.32 0.32l0.21 0 0 -0.01c0,-0.01 -0.03,-0.04 -0.04,-0.09 -0.01,-0.03 -0.02,-0.06 -0.01,-0.09 0,-0.04 0.01,-0.08 0.04,-0.11 0,-0.01 0,-0.01 0,-0.02 0,0 0,0 -0.01,0l-0.08 0 -0.13 0.21 0 0c0,0 -0.01,0.01 -0.01,0.04l0 0.05 -0.02 0 0 0.01 0.05 0 0 0.01z"/>
   <path class="fil0" d="M0.32 0.45l-0.05 0 0 0.01 0.03 0 0 0.03 -0.03 0 0 0.01 0.02 0 0 0c0,0 0,0.02 0.01,0.04 0.01,0 0.01,0 0.02,0l0.19 0c0,0 0.02,0 0.02,-0.03l0 -0.07 -0.21 0 0 0.01 0 0z"/>
   <polygon class="fil0" points="0.32,0.35 0.27,0.35 0.27,0.36 0.3,0.36 0.3,0.39 0.27,0.39 0.27,0.41 0.32,0.41 0.32,0.41 0.53,0.41 0.53,0.41 0.53,0.34 0.32,0.34 "/>
  </g>
 </g>
</svg>
