<?xml version="1.0" encoding="UTF-8"?>
<!DOCTYPE svg PUBLIC "-//W3C//DTD SVG 1.1//EN" "http://www.w3.org/Graphics/SVG/1.1/DTD/svg11.dtd">
<!-- Creator: CorelDRAW -->
<svg xmlns="http://www.w3.org/2000/svg" xml:space="preserve" width="20px" height="20px" version="1.1" style="shape-rendering:geometricPrecision; text-rendering:geometricPrecision; image-rendering:optimizeQuality; fill-rule:evenodd; clip-rule:evenodd"
viewBox="0 0 4 4.01"
 xmlns:xlink="http://www.w3.org/1999/xlink"
 xmlns:xodm="http://www.corel.com/coreldraw/odm/2003">
 <defs>
  <style type="text/css">
   <![CDATA[
    .fil0 {fill:#606062;fill-rule:nonzero}
   ]]>
  </style>
 </defs>
 <g id="Layer_x0020_1">
  <metadata id="CorelCorpID_0Corel-Layer"/>
  <g id="_2279224912160">
   <path class="fil0" d="M0.21 3.82l-0.07 0.07c-0.03,0.03 -0.01,0.08 0.03,0.08 0.02,0 0.03,-0.01 0.04,-0.02l0.06 -0.06c0.02,-0.02 0.02,-0.05 0,-0.07 -0.02,-0.01 -0.05,-0.01 -0.06,0z"/>
   <path class="fil0" d="M1.22 2.88c-0.02,-0.02 -0.05,-0.02 -0.07,0l-0.69 0.69c-0.01,0.01 -0.01,0.04 0,0.06 0.02,0.02 0.05,0.02 0.07,0l0.69 -0.68c0.01,-0.02 0.01,-0.05 0,-0.07z"/>
   <path class="fil0" d="M3.99 0.01l-2.65 1.59 0 0.57 -1.33 1.33c-0.01,0.02 -0.01,0.05 0,0.07 0.02,0.01 0.05,0.01 0.07,0l1.26 -1.27 0 0.36 0.56 0 -1.27 1.27c-0.02,0.02 -0.02,0.05 0,0.06 0.02,0.02 0.05,0.02 0.06,0l1.33 -1.33 0.38 0 1.59 -2.65z"/>
   <polygon class="fil0" points="2.48,2.71 3.06,3.87 4,0.17 "/>
   <polygon class="fil0" points="3.84,0 0.13,0.94 1.29,1.53 "/>
  </g>
 </g>
</svg>
