<?xml version="1.0" encoding="UTF-8"?>
<!DOCTYPE svg PUBLIC "-//W3C//DTD SVG 1.1//EN" "http://www.w3.org/Graphics/SVG/1.1/DTD/svg11.dtd">
<!-- Creator: CorelDRAW -->
<svg xmlns="http://www.w3.org/2000/svg" xml:space="preserve" width="20px" height="19px" version="1.1" style="shape-rendering:geometricPrecision; text-rendering:geometricPrecision; image-rendering:optimizeQuality; fill-rule:evenodd; clip-rule:evenodd"
viewBox="0 0 1.27 1.2"
 xmlns:xlink="http://www.w3.org/1999/xlink"
 xmlns:xodm="http://www.corel.com/coreldraw/odm/2003">
 <defs>
  <style type="text/css">
   <![CDATA[
    .fil0 {fill:#606062}
   ]]>
  </style>
 </defs>
 <g id="Layer_x0020_1">
  <metadata id="CorelCorpID_0Corel-Layer"/>
  <path class="fil0" d="M0.27 0.68c0,0 0,0 0,0 -0.05,0 -0.1,0.05 -0.1,0.1 0,0.05 0.05,0.09 0.1,0.09 0.05,0 0.1,-0.04 0.1,-0.09 0,0 0,0 0,0 0,-0.05 -0.05,-0.1 -0.1,-0.1l0 0zm0 0.23c0,0 0,0 0,0 -0.08,0 -0.14,-0.06 -0.14,-0.13 0,-0.08 0.06,-0.14 0.14,-0.14 0.07,0 0.13,0.06 0.13,0.14 0,0.07 -0.06,0.13 -0.13,0.13l0 0zm-0.2 0.06c-0.04,-0.06 -0.07,-0.12 -0.07,-0.2 0,0 0,0 0,0 0,-0.07 0.03,-0.14 0.08,-0.19 0.05,-0.05 0.12,-0.08 0.19,-0.08 0.07,0 0.14,0.03 0.19,0.08 0.05,0.05 0.08,0.12 0.08,0.19 0,0 0,0 0,0 0,0.08 -0.03,0.14 -0.08,0.2l-0.15 0.19 0.76 0c0.08,0 0.16,-0.07 0.16,-0.16 0,-0.09 -0.08,-0.16 -0.16,-0.16l-0.39 0c-0.07,0 -0.12,-0.05 -0.12,-0.12 0,-0.06 0.05,-0.11 0.12,-0.11l0.14 0 -0.14 -0.18c-0.04,-0.05 -0.07,-0.11 -0.07,-0.18 0,0 0,-0.01 0,-0.01 0,-0.06 0.03,-0.12 0.07,-0.17 0.05,-0.04 0.11,-0.07 0.18,-0.07 0.07,0 0.13,0.03 0.18,0.07 0.05,0.05 0.07,0.11 0.07,0.17 0,0 0,0.01 0,0.01 0,0.07 -0.03,0.13 -0.07,0.18l-0.16 0.21c-0.01,0 -0.01,0.01 -0.02,0.01l0 0 -0.18 0c0,0 0,0 0,0 -0.04,0 -0.08,0.03 -0.08,0.07 0,0.05 0.04,0.08 0.08,0.08 0,0 0,0 0,0l0.39 0c0.11,0 0.2,0.09 0.2,0.2 0,0.11 -0.09,0.2 -0.2,0.2l-0.8 0c-0.01,0 -0.01,0 -0.02,0l-0.18 -0.23 0 0zm0.7 -0.72c0,0 0,0 0,0 0,0.05 0.04,0.09 0.09,0.09 0.05,0 0.09,-0.04 0.09,-0.09 0,-0.04 -0.04,-0.08 -0.09,-0.08 0,0 0,0 0,0 -0.05,0 -0.09,0.04 -0.09,0.08l0 0zm0.22 0c0,0 0,0 0,0 0,-0.07 -0.06,-0.12 -0.13,-0.12 -0.07,0 -0.13,0.05 -0.13,0.12 0,0.07 0.06,0.13 0.13,0.13 0.07,0 0.13,-0.06 0.13,-0.13l0 0z"/>
 </g>
</svg>
