<?xml version="1.0" encoding="UTF-8"?>
<!DOCTYPE svg PUBLIC "-//W3C//DTD SVG 1.1//EN" "http://www.w3.org/Graphics/SVG/1.1/DTD/svg11.dtd">
<!-- Creator: CorelDRAW -->
<svg xmlns="http://www.w3.org/2000/svg" xml:space="preserve" width="20px" height="17px" version="1.1" style="shape-rendering:geometricPrecision; text-rendering:geometricPrecision; image-rendering:optimizeQuality; fill-rule:evenodd; clip-rule:evenodd"
viewBox="0 0 1.12 0.95"
 xmlns:xlink="http://www.w3.org/1999/xlink"
 xmlns:xodm="http://www.corel.com/coreldraw/odm/2003">
 <defs>
  <style type="text/css">
   <![CDATA[
    .fil0 {fill:#606062;fill-rule:nonzero}
   ]]>
  </style>
 </defs>
 <g id="Layer_x0020_1">
  <metadata id="CorelCorpID_0Corel-Layer"/>
  <g id="_2279221679424">
   <path class="fil0" d="M0.25 0.42l-0.17 0 0 -0.05c0,0 0,0 0,0 0,-0.04 0.03,-0.07 0.07,-0.07l0.23 0 0 -0.08 -0.23 0c-0.08,0 -0.15,0.07 -0.15,0.15l0 0.13 0.25 0 0 -0.08z"/>
   <polygon class="fil0" points="0.29,0.63 0.4,0.95 0.48,0.95 0.38,0.63 "/>
   <polygon class="fil0" points="0.14,0.63 0.14,0.57 0.06,0.57 0.06,0.71 0.2,0.71 0.28,0.95 0.36,0.95 0.26,0.63 "/>
   <path class="fil0" d="M0.98 0.22l-0.24 0 0 0.08 0.24 0c0.03,0 0.06,0.03 0.06,0.07l0 0.05 -0.17 0 0 0.08 0.25 0 0 -0.13c0,0 0,0 0,0 0,-0.08 -0.06,-0.15 -0.14,-0.15z"/>
   <polygon class="fil0" points="0.79,0.42 0.79,0.5 0.6,0.5 0.6,0.95 0.52,0.95 0.52,0.5 0.34,0.5 0.34,0.42 "/>
   <polygon class="fil0" points="0.75,0.63 0.64,0.95 0.72,0.95 0.83,0.63 "/>
   <polygon class="fil0" points="0.98,0.63 0.87,0.63 0.76,0.95 0.84,0.95 0.92,0.71 1.06,0.71 1.06,0.57 0.98,0.57 "/>
   <path class="fil0" d="M0.28 0.13c0.02,-0.01 0.03,-0.03 0.03,-0.05 0,-0.05 -0.04,-0.08 -0.08,-0.08 -0.04,0 -0.08,0.03 -0.08,0.08 0,0.02 0.01,0.04 0.03,0.05 0.01,0.01 0.03,0.02 0.05,0.02 0.02,0 0.04,-0.01 0.05,-0.02l0 0z"/>
   <path class="fil0" d="M0.96 0.13c0.02,-0.01 0.03,-0.03 0.03,-0.05 0,-0.05 -0.04,-0.08 -0.08,-0.08 -0.04,0 -0.08,0.03 -0.08,0.08 0,0.02 0.01,0.04 0.03,0.05 0.01,0.01 0.03,0.02 0.05,0.02 0.02,0 0.04,-0.01 0.05,-0.02z"/>
  </g>
 </g>
</svg>
