<?xml version="1.0" encoding="UTF-8"?>
<!DOCTYPE svg PUBLIC "-//W3C//DTD SVG 1.1//EN" "http://www.w3.org/Graphics/SVG/1.1/DTD/svg11.dtd">
<!-- Creator: CorelDRAW -->
<svg xmlns="http://www.w3.org/2000/svg" xml:space="preserve" width="20px" height="22px" version="1.1" style="shape-rendering:geometricPrecision; text-rendering:geometricPrecision; image-rendering:optimizeQuality; fill-rule:evenodd; clip-rule:evenodd"
viewBox="0 0 3.98 4.34"
 xmlns:xlink="http://www.w3.org/1999/xlink"
 xmlns:xodm="http://www.corel.com/coreldraw/odm/2003">
 <defs>
  <style type="text/css">
   <![CDATA[
    .fil0 {fill:#606062}
   ]]>
  </style>
 </defs>
 <g id="Layer_x0020_1">
  <metadata id="CorelCorpID_0Corel-Layer"/>
  <path class="fil0" d="M1.04 1.51c0.02,0.04 0,0.08 -0.03,0.1 -0.04,0.01 -0.08,0 -0.1,-0.03 -0.12,-0.25 -0.31,-0.44 -0.59,-0.3 -0.01,0 -0.02,0.01 -0.03,0.01 -0.03,0.02 -0.07,0.01 -0.09,-0.03 -0.02,-0.03 -0.01,-0.07 0.03,-0.09 0.36,-0.21 0.64,0.01 0.81,0.34l0 0zm2.37 -1.05c-0.33,0.47 -0.63,1.21 -0.79,1.84 0.08,0.09 0.14,0.07 0.21,-0.04l0 0c0.08,-0.1 0.16,-0.16 0.24,-0.16 0.09,0 0.17,0.06 0.24,0.16 0.05,0.07 0.09,0.1 0.13,0.1 0.03,0 0.05,-0.01 0.08,-0.04 0.02,-0.05 0.05,-0.11 0.07,-0.17 0.2,-0.51 0.35,-1.06 0.38,-1.48 0.03,-0.33 0,-0.55 -0.1,-0.58 -0.1,-0.04 -0.27,0.11 -0.46,0.37l0 0zm0.15 0.21c-0.04,-0.02 -0.06,-0.06 -0.05,-0.09 0.02,-0.04 0.06,-0.06 0.09,-0.04l0.18 0.06c0.04,0.01 0.06,0.05 0.04,0.09 -0.01,0.04 -0.05,0.06 -0.09,0.04l-0.17 -0.06 0 0zm-0.22 0.44l0.27 0.1c0.04,0.01 0.06,0.05 0.04,0.09 -0.01,0.04 -0.05,0.06 -0.09,0.04l-0.27 -0.1c-0.03,-0.01 -0.05,-0.05 -0.04,-0.09 0.02,-0.03 0.06,-0.05 0.09,-0.04l0 0zm-0.37 0.61c0.01,-0.03 0.05,-0.05 0.09,-0.04l0.4 0.15c0.04,0.01 0.06,0.05 0.05,0.09 -0.02,0.04 -0.06,0.05 -0.09,0.04l-0.41 -0.15c-0.04,-0.01 -0.06,-0.05 -0.04,-0.09l0 0zm-1.19 -1.48l0.49 0 0 -0.24 -0.49 0 0 0.24 0 0zm-0.16 1.09c0.27,0.22 0.43,0.68 0.33,1.03 0.06,0.02 0.11,-0.04 0.15,-0.09 0,0 0,0 0,0 0,0 0,0 0,-0.01 0.12,-0.16 0.27,-0.21 0.41,-0.08 0.01,-0.07 0.04,-0.14 0.06,-0.21 0,-0.02 0,-0.03 0.01,-0.04l0 -0.7c0,-0.11 -0.04,-0.22 -0.1,-0.31 -0.06,-0.09 -0.15,-0.16 -0.26,-0.2 -0.02,-0.01 -0.05,-0.04 -0.05,-0.07l0 -0.27 -0.29 0 0 0.27 0 0c0,0.03 -0.02,0.06 -0.05,0.07 -0.21,0.08 -0.35,0.28 -0.35,0.52 0.04,0.02 0.09,0.05 0.14,0.09l0 0zm-0.01 0.92c0.04,0 0.08,0.03 0.13,0.1l0 0 0.03 0.04 0 0c0.06,0.06 0.13,0.11 0.21,0.11 0.1,0 0.18,-0.07 0.24,-0.15 0.04,-0.07 0.09,-0.1 0.13,-0.1 0.03,0 0.07,0.03 0.12,0.09 0,0 0,0.01 0,0.01 0.16,0.2 0.33,0.2 0.48,-0.01l0 0c0.05,-0.06 0.09,-0.1 0.12,-0.1 0.04,0 0.08,0.04 0.13,0.1 0,0 0,0 0,0.01 0.15,0.21 0.33,0.2 0.48,-0.01 0.07,-0.1 0.11,-0.11 0.15,-0.09 0.04,0.03 0.09,0.09 0.13,0.14l-0.95 1.95 -2.06 0 -0.95 -1.95c0.04,-0.05 0.09,-0.11 0.13,-0.14 0.03,-0.02 0.08,-0.01 0.15,0.09l0 0c0.15,0.22 0.32,0.22 0.48,0.01l0 0c0.05,-0.07 0.08,-0.11 0.12,-0.11 0.04,0 0.08,0.04 0.13,0.1 0.14,0.21 0.32,0.21 0.48,0.01l0 0c0.04,-0.07 0.08,-0.1 0.12,-0.1l0 0zm0.18 -0.42c-0.06,-0.17 -0.15,-0.31 -0.26,-0.4 -0.1,-0.08 -0.21,-0.11 -0.3,-0.08 -0.1,0.03 -0.16,0.12 -0.19,0.22l0 0c-0.01,0.04 -0.07,0.06 -0.11,0.03 -0.2,-0.15 -0.41,-0.09 -0.48,0.18 -0.04,0.17 -0.01,0.39 0.08,0.58 0.03,0 0.07,-0.03 0.12,-0.1l0 0c0.15,-0.21 0.33,-0.21 0.47,0 0.09,0.13 0.16,0.13 0.26,0l0 0c0.13,-0.19 0.3,-0.21 0.45,-0.02 0.01,-0.04 0.01,-0.08 0.01,-0.12 0,-0.09 -0.02,-0.19 -0.05,-0.28 0,0 0,-0.01 0,-0.01z"/>
 </g>
</svg>
