<?xml version="1.0" encoding="UTF-8"?>
<!DOCTYPE svg PUBLIC "-//W3C//DTD SVG 1.1//EN" "http://www.w3.org/Graphics/SVG/1.1/DTD/svg11.dtd">
<!-- Creator: CorelDRAW -->
<svg xmlns="http://www.w3.org/2000/svg" xml:space="preserve" width="20px" height="20px" version="1.1" style="shape-rendering:geometricPrecision; text-rendering:geometricPrecision; image-rendering:optimizeQuality; fill-rule:evenodd; clip-rule:evenodd"
viewBox="0 0 0.6 0.6"
 xmlns:xlink="http://www.w3.org/1999/xlink"
 xmlns:xodm="http://www.corel.com/coreldraw/odm/2003">
 <defs>
  <style type="text/css">
   <![CDATA[
    .fil0 {fill:#606062;fill-rule:nonzero}
   ]]>
  </style>
 </defs>
 <g id="Layer_x0020_1">
  <metadata id="CorelCorpID_0Corel-Layer"/>
  <path class="fil0" d="M0.52 0l-0.44 0c-0.04,0 -0.08,0.04 -0.08,0.08l0 0.44c0,0.05 0.04,0.08 0.08,0.08l0.44 0c0.05,0 0.08,-0.03 0.08,-0.08l0 -0.44c0,-0.04 -0.03,-0.08 -0.08,-0.08zm-0.34 0.38c0.01,0 0.02,0.01 0.02,0.01 0,0.01 0,0.02 -0.01,0.02 0,0.01 -0.01,0.01 -0.01,0.01 -0.01,-0.01 -0.02,-0.01 -0.02,-0.02 0,-0.01 0.01,-0.02 0.02,-0.02l0 0zm-0.02 -0.03c0,-0.01 0.01,-0.02 0.02,-0.02 0,0 0.01,0 0.01,0 0.01,0.01 0.01,0.02 0.01,0.02 0,0.01 -0.01,0.01 -0.02,0.01 0,0 -0.01,0 -0.01,0 0,-0.01 -0.01,-0.01 -0.01,-0.01l0 0zm0.02 0.09c0.01,0 0.02,0 0.02,0.01 0,0 0,0.01 -0.01,0.02 0,0 -0.01,0 -0.01,0 -0.01,0 -0.02,-0.01 -0.02,-0.02 0.01,-0.01 0.01,-0.01 0.02,-0.01l0 0zm0.06 -0.06c0.01,0 0.02,0.01 0.02,0.01 0,0.01 0,0.02 -0.01,0.02 0,0.01 -0.01,0.01 -0.01,0.01 -0.01,-0.01 -0.01,-0.01 -0.01,-0.02 0,-0.01 0,-0.02 0.01,-0.02l0 0zm-0.01 -0.04c0,0 0,-0.01 0.01,-0.01 0,0 0.01,0 0.01,0 0.01,0.01 0.01,0.01 0.01,0.02 0,0.01 -0.01,0.01 -0.02,0.01 -0.01,0 -0.02,0 -0.02,-0.01l0.01 -0.01zm0.01 0.09c0.01,0 0.02,0.01 0.02,0.02 0,0 0,0.01 -0.01,0.01 0,0.01 -0.01,0.01 -0.01,0.01 -0.01,0 -0.01,-0.01 -0.01,-0.02 0,-0.01 0,-0.01 0.01,-0.01l0 -0.01zm0.06 -0.05c0.01,0 0.02,0 0.02,0.01 0,0.01 0,0.02 0,0.02 -0.01,0.01 -0.02,0.01 -0.02,0 -0.01,0 -0.01,-0.01 -0.01,-0.01 0,-0.01 0,-0.02 0.01,-0.02l0 0zm-0.01 -0.04l0 0c0,0 0,-0.01 0.01,-0.01 0,-0.01 0.01,0 0.02,0 0,0.01 0,0.01 0,0.02 0,0.01 -0.01,0.01 -0.02,0.01 -0.01,0 -0.01,0 -0.02,-0.01l0.01 -0.01zm0.01 0.09c0.01,0 0.02,0.01 0.02,0.01 0,0.01 0,0.02 0,0.02 -0.01,0.01 -0.02,0.01 -0.02,0.01 -0.01,-0.01 -0.01,-0.01 -0.01,-0.02 0,-0.01 0,-0.01 0.01,-0.01l0 -0.01zm0.06 -0.05l0 0c0.01,0 0.02,0 0.02,0.01 0,0.01 0,0.01 0,0.02 -0.01,0 -0.02,0.01 -0.02,0 -0.01,0 -0.01,-0.01 -0.01,-0.01 0,-0.01 0,-0.02 0.01,-0.02l0 0zm-0.01 -0.04l0 0c0,0 0,-0.01 0.01,-0.01 0,-0.01 0.01,-0.01 0.02,0 0,0 0,0.01 0,0.02 0,0.01 -0.01,0.01 -0.02,0.01 -0.01,0 -0.01,-0.01 -0.02,-0.01l0.01 -0.01zm0.01 0.09l0 0c0.01,0 0.02,0.01 0.02,0.01 0,0.01 0,0.02 0,0.02 -0.01,0.01 -0.02,0.01 -0.02,0.01 -0.01,-0.01 -0.01,-0.01 -0.01,-0.02 0,-0.01 0,-0.01 0.01,-0.01l0 -0.01zm0.06 -0.05l0 0c0.01,0 0.02,0 0.02,0.01 0,0.01 0,0.01 0,0.02 -0.01,0 -0.02,0 -0.02,0 -0.01,0 -0.01,-0.01 -0.01,-0.01 0,-0.01 0,-0.02 0.01,-0.02l0 0zm-0.01 -0.04l0 0c0,-0.01 0,-0.01 0.01,-0.02 0,0 0.01,0 0.02,0.01 0,0 0,0.01 0,0.02 0,0 -0.01,0.01 -0.02,0.01 -0.01,0 -0.01,-0.01 -0.02,-0.01l0.01 -0.01zm0.01 0.09l0 0c0.01,0 0.02,0.01 0.02,0.01 0,0.01 0,0.02 0,0.02 -0.01,0.01 -0.02,0.01 -0.02,0 -0.01,0 -0.01,0 -0.01,-0.01 0,-0.01 0,-0.01 0.01,-0.01l0 -0.01zm0.03 -0.16c-0.01,0.01 -0.03,0.02 -0.04,0.02l-0.22 0c-0.01,0 -0.03,-0.01 -0.04,-0.02 -0.01,-0.01 -0.01,-0.03 -0.01,-0.04 0.02,-0.05 0.05,-0.09 0.09,-0.11 0.05,-0.02 0.1,-0.02 0.14,0 0.04,0.02 0.08,0.06 0.09,0.11 0,0.01 0,0.03 -0.01,0.04l0 0z"/>
 </g>
</svg>
