<?xml version="1.0" encoding="UTF-8"?>
<!DOCTYPE svg PUBLIC "-//W3C//DTD SVG 1.1//EN" "http://www.w3.org/Graphics/SVG/1.1/DTD/svg11.dtd">
<!-- Creator: CorelDRAW -->
<svg xmlns="http://www.w3.org/2000/svg" xml:space="preserve" width="20px" height="13px" version="1.1" style="shape-rendering:geometricPrecision; text-rendering:geometricPrecision; image-rendering:optimizeQuality; fill-rule:evenodd; clip-rule:evenodd"
viewBox="0 0 0.64 0.42"
 xmlns:xlink="http://www.w3.org/1999/xlink"
 xmlns:xodm="http://www.corel.com/coreldraw/odm/2003">
 <defs>
  <style type="text/css">
   <![CDATA[
    .fil0 {fill:#848688;fill-rule:nonzero}
   ]]>
  </style>
 </defs>
 <g id="Layer_x0020_1">
  <metadata id="CorelCorpID_0Corel-Layer"/>
  <g id="_1441979754608">
   <path class="fil0" d="M0.37 0.36c-0.01,0 -0.01,0 -0.01,0 -0.01,0 -0.03,-0.01 -0.04,-0.01 0,0 -0.01,0.01 -0.01,0.01l-0.07 0c0,0 -0.01,-0.01 -0.02,-0.02l-0.01 -0.02c0,0 0,-0.01 0,-0.01 0,-0.01 0.01,-0.01 0.01,-0.01l0.05 0c0,-0.01 0,-0.02 -0.01,-0.04 0,0 0,-0.01 0,-0.02l-0.15 0c-0.02,0 -0.03,0 -0.04,0.01 0,0.01 -0.01,0.01 -0.01,0.02 0,0 0,0.01 0,0.02l0 0.08c0,0 0,0 0,0 0,0 0,0 0,0l0.3 0c0,0 0.01,0 0.01,-0.01l0 0zm-0.2 -0.02c0,0 0,0 0,0l-0.05 0c-0.03,0 -0.04,-0.02 -0.04,-0.04 0,-0.02 0.01,-0.04 0.04,-0.04 0.04,0 0.05,0.07 0.06,0.07 0,0 0,0 -0.01,0.01z"/>
   <path class="fil0" d="M0.17 0.09l0.13 0 0 0.08c0,0 0,0.01 0,0.01 -0.02,0.01 -0.03,0.03 -0.03,0.04l-0.16 0c-0.01,0 -0.02,0 -0.02,0.01l0.05 -0.12c0,-0.01 0.02,-0.02 0.03,-0.02z"/>
   <path class="fil0" d="M0.31 0.34l-0.07 0c0,0 0,0 0,-0.01l-0.02 -0.02 0.06 0c0.01,0.01 0.02,0.02 0.03,0.03z"/>
   <path class="fil0" d="M0.12 0.28c-0.01,0 -0.03,0 -0.03,0.02 0,0.01 0.01,0.02 0.03,0.02l0.04 0c-0.01,-0.02 -0.02,-0.04 -0.04,-0.04z"/>
   <path class="fil0" d="M0.07 0.41c0,0.01 0,0.01 0.01,0.01l0.04 0c0.01,0 0.01,0 0.01,-0.01l0 -0.02 -0.06 0 0 0.02z"/>
   <path class="fil0" d="M0.06 0.22c0,-0.01 -0.01,-0.01 -0.02,-0.01l-0.02 0c-0.01,0 -0.02,0 -0.02,0.01 0,0.01 0.01,0.02 0.02,0.02l0.04 0 0 -0.02z"/>
   <path class="fil0" d="M0.43 0.19c-0.01,0 -0.01,-0.01 -0.01,-0.02l0 -0.12c0,-0.03 -0.02,-0.05 -0.05,-0.05 -0.03,0 -0.05,0.02 -0.05,0.05l0 0.12c0,0.01 -0.01,0.02 -0.01,0.02 -0.02,0.02 -0.03,0.05 -0.03,0.07 0,0.04 0.04,0.08 0.08,0.08 0,0 0,0 0.01,0 0.02,0 0.04,0 0.06,-0.02 0.02,-0.02 0.03,-0.04 0.03,-0.06 0,-0.03 -0.01,-0.05 -0.03,-0.07zm-0.06 0.1c-0.02,0 -0.04,-0.01 -0.04,-0.03 0,-0.02 0.01,-0.04 0.03,-0.04l0 -0.13c0,0 0,-0.01 0.01,-0.01 0,0 0.01,0.01 0.01,0.01l0 0.13c0.01,0 0.03,0.02 0.03,0.04 0,0.02 -0.02,0.03 -0.04,0.03z"/>
   <path class="fil0" d="M0.39 0.26c0,-0.02 -0.01,-0.03 -0.02,-0.03 -0.01,0 -0.02,0.01 -0.02,0.03 0,0.01 0.01,0.02 0.02,0.02 0.01,0 0.02,-0.01 0.02,-0.02z"/>
   <path class="fil0" d="M0.64 0.17c0,0.01 0,0.01 -0.01,0.01l-0.02 0 0.01 0.01c0.01,0.01 0.01,0.01 0,0.01 0,0.01 0,0.01 0,0.01 -0.01,0 -0.01,0 -0.01,-0.01l-0.02 -0.02 -0.05 0c0,0.01 0,0.01 -0.01,0.02l0.03 0.03 0.03 0c0.01,0 0.01,0 0.01,0.01 0,0 0,0.01 -0.01,0.01l-0.01 0 0.02 0.01c0,0.01 0,0.01 0,0.02 0,0 -0.01,0 -0.01,0 0,0 0,0 0,0l-0.02 -0.02 0 0.01c0,0.01 0,0.01 -0.01,0.01 0,0 -0.01,0 -0.01,-0.01l0 -0.03 -0.03 -0.03c-0.01,0 -0.01,0.01 -0.02,0.01l0 0.04 0.03 0.03c0,0 0,0.01 0,0.01 0,0 -0.01,0 -0.01,0 0,0 0,0 -0.01,0l-0.01 -0.01 0 0.02c0,0 0,0.01 -0.01,0.01 0,0 0,-0.01 0,-0.01l0 -0.02 -0.02 0.01c0,0 -0.01,0 -0.01,0 0,0 0,-0.01 0,-0.01l0.03 -0.03 0 -0.04c-0.03,-0.01 -0.04,-0.03 -0.04,-0.05 0,-0.02 0.01,-0.04 0.04,-0.04l0 -0.05 -0.03 -0.03c0,0 0,0 0,-0.01 0,0 0.01,0 0.01,0l0.02 0.02 0 -0.03c0,0 0,0 0,0 0.01,0 0.01,0 0.01,0l0 0.03 0.01 -0.02c0.01,0 0.01,0 0.02,0 0,0.01 0,0.01 0,0.01l-0.03 0.03 0 0.05c0.01,0 0.01,0 0.02,0l0.03 -0.03 0 -0.03c0,0 0.01,-0.01 0.01,-0.01 0.01,0 0.01,0.01 0.01,0.01l0 0.01 0.02 -0.01c0,-0.01 0,-0.01 0.01,0 0,0 0,0.01 0,0.01l-0.02 0.02 0.01 0c0.01,0 0.01,0 0.01,0 0,0.01 0,0.01 -0.01,0.01l-0.03 0 -0.03 0.04c0.01,0 0.01,0.01 0.01,0.01l0.05 0 0.02 -0.02c0,0 0.01,0 0.01,0 0.01,0 0.01,0.01 0,0.01l-0.01 0.01 0.02 0c0.01,0 0.01,0.01 0.01,0.01z"/>
  </g>
 </g>
</svg>
