<?xml version="1.0" encoding="UTF-8"?>
<!DOCTYPE svg PUBLIC "-//W3C//DTD SVG 1.1//EN" "http://www.w3.org/Graphics/SVG/1.1/DTD/svg11.dtd">
<!-- Creator: CorelDRAW -->
<svg xmlns="http://www.w3.org/2000/svg" xml:space="preserve" width="20px" height="20px" version="1.1" style="shape-rendering:geometricPrecision; text-rendering:geometricPrecision; image-rendering:optimizeQuality; fill-rule:evenodd; clip-rule:evenodd"
viewBox="0 0 0.9 0.9"
 xmlns:xlink="http://www.w3.org/1999/xlink"
 xmlns:xodm="http://www.corel.com/coreldraw/odm/2003">
 <defs>
  <style type="text/css">
   <![CDATA[
    .fil0 {fill:#848688}
   ]]>
  </style>
 </defs>
 <g id="Layer_x0020_1">
  <metadata id="CorelCorpID_0Corel-Layer"/>
  <path class="fil0" d="M0.86 0.22c0.02,0 0.04,-0.01 0.04,-0.03l0 -0.12c0,-0.02 -0.02,-0.03 -0.04,-0.03l-0.22 0c-0.02,0 -0.04,0.01 -0.04,0.03l0 0.12c0,0.02 0.02,0.03 0.04,0.03l0.07 0 0 0.1 -0.09 0.09 -0.34 0 -0.09 -0.09 0 -0.08 0.04 0.02c0.01,0 0.01,0 0.02,0 0,0 0.01,0 0.01,0 0.01,-0.01 0.02,-0.01 0.02,-0.02l0.04 -0.11c0.01,-0.02 0,-0.04 -0.02,-0.05l-0.21 -0.08c-0.01,0 -0.02,0 -0.03,0 -0.01,0.01 -0.01,0.01 -0.02,0.02l-0.04 0.11c0,0.02 0,0.04 0.02,0.05l0.09 0.03 0 0.11 -0.1 0.1c-0.01,0.02 -0.01,0.04 0,0.05l0.1 0.11 0 0.07 -0.02 -0.01c-0.01,-0.01 -0.02,-0.01 -0.03,0 -0.01,0 -0.01,0.01 -0.02,0.02l-0.04 0.1c0,0.02 0,0.04 0.02,0.05l0.21 0.08c0.01,0.01 0.01,0.01 0.02,0.01 0,0 0.01,0 0.01,-0.01 0.01,0 0.02,-0.01 0.02,-0.02l0.04 -0.1c0.01,-0.02 0,-0.04 -0.02,-0.05l-0.11 -0.04 0 -0.1 0.09 -0.09 0.34 0 0.09 0.09 0 0.09 -0.07 0c-0.02,0 -0.04,0.02 -0.04,0.04l0 0.11c0,0.02 0.02,0.04 0.04,0.04l0.22 0c0.02,0 0.04,-0.02 0.04,-0.04l0 -0.11c0,-0.02 -0.02,-0.04 -0.04,-0.04l-0.07 0 0 -0.09 0.1 -0.11c0.01,-0.01 0.01,-0.03 0,-0.05l-0.1 -0.1 0 -0.1 0.07 0z"/>
 </g>
</svg>
