<?xml version="1.0" encoding="UTF-8"?>
<!DOCTYPE svg PUBLIC "-//W3C//DTD SVG 1.1//EN" "http://www.w3.org/Graphics/SVG/1.1/DTD/svg11.dtd">
<!-- Creator: CorelDRAW -->
<svg xmlns="http://www.w3.org/2000/svg" xml:space="preserve" width="20px" height="13px" version="1.1" style="shape-rendering:geometricPrecision; text-rendering:geometricPrecision; image-rendering:optimizeQuality; fill-rule:evenodd; clip-rule:evenodd"
viewBox="0 0 0.87 0.57"
 xmlns:xlink="http://www.w3.org/1999/xlink"
 xmlns:xodm="http://www.corel.com/coreldraw/odm/2003">
 <defs>
  <style type="text/css">
   <![CDATA[
    .fil0 {fill:#848688;fill-rule:nonzero}
   ]]>
  </style>
 </defs>
 <g id="Layer_x0020_1">
  <metadata id="CorelCorpID_0Corel-Layer"/>
  <g id="_1442011200544">
   <path class="fil0" d="M0.59 0.08c0,-0.01 -0.01,-0.02 -0.01,-0.03 0,0 0,0 0,-0.01 -0.01,-0.01 -0.02,-0.02 -0.03,-0.03 -0.01,-0.02 -0.05,-0.01 -0.1,0.02 -0.03,0.02 -0.05,0.03 -0.07,0.04 0,-0.01 -0.01,-0.01 -0.02,-0.02 0,0 -0.01,0 -0.01,0 0,0 -0.01,0 -0.01,0 -0.01,0 -0.01,0.01 -0.02,0.01 -0.05,-0.03 -0.1,-0.05 -0.16,-0.06 -0.01,0 -0.01,0 -0.01,0 -0.02,0 -0.03,0.01 -0.04,0.03 0,0.02 0,0.04 -0.01,0.06 0,0 0,0 0,0.01 0,0 0,0.01 0,0.01 0,0.01 0.01,0.01 0.01,0.01 0,0.01 0.01,0.03 0.02,0.04 0.01,0.02 0.04,0.02 0.1,0 0.04,-0.02 0.07,-0.03 0.08,-0.04 0,0 0,0.01 0,0.01 0,0 0,0.01 0.01,0.01l0 0 0 0.35 0.05 0 0 -0.35c0.05,0.02 0.1,0.03 0.15,0.03 0.01,0 0.02,0 0.03,0 0.02,0 0.04,-0.02 0.04,-0.04 0,0 0,-0.01 0,-0.02 0,-0.01 0,-0.02 0,-0.03l0 0zm-0.32 0.03c-0.01,0.01 -0.03,0.02 -0.04,0.02 -0.03,0.01 -0.05,0.02 -0.07,0.02 0,0 0,0 -0.01,0 0,0 -0.01,0 -0.01,-0.01 0,0 0,0 -0.01,0 0,-0.01 0,-0.01 -0.01,-0.02l0 -0.01 0.01 0c0.03,0.01 0.1,0 0.14,0l0.03 0 -0.03 0zm0.09 -0.03c0,0 0,-0.01 0,-0.01 0.01,0 0.01,0.01 0.01,0.01 0,0 0,0 0,0 -0.01,0.02 -0.01,0.03 -0.01,0.04 0,0 0,0.01 0,0.01 0,0 -0.01,0.01 -0.01,0.01 0,0 0,0 0,0 0,0 0,0 0,0 0,0 0,0 0,-0.01 0,0 -0.01,0 -0.01,0 0,0 0,0 0,0 0,0 0,-0.01 0.01,-0.01 0,-0.01 0,-0.03 0.01,-0.04l0 0zm-0.04 0.04c0,-0.02 0.01,-0.03 0.01,-0.05 0,0 0.01,0 0.01,0 0,0 0,0 0,0 0,0 0,0 0,0 0.01,0 0.01,0 0.01,0 0,0 0,0 0,0 -0.01,0.02 -0.01,0.03 -0.02,0.05 0,0 0,0.01 0,0.01 0,0 0,0 0,0 -0.01,0 -0.01,-0.01 -0.01,-0.01l0 0zm0.09 -0.04c0.01,-0.01 0.03,-0.02 0.04,-0.03 0.04,-0.02 0.07,-0.03 0.09,-0.02 0,0 0,0 0,0 0.01,0.01 0.01,0.01 0.02,0.02l0 0 -0.01 0c-0.03,0 -0.1,0.02 -0.14,0.04l-0.02 0.01 0.02 -0.02z"/>
   <path class="fil0" d="M0.18 0.42c-0.04,0 -0.07,0.04 -0.07,0.07 0,0.05 0.03,0.08 0.07,0.08 0.04,0 0.07,-0.03 0.07,-0.07 0,0 0,0 0,0 0,-0.05 -0.03,-0.08 -0.07,-0.08 0,0 0,0 0,0l0 0zm0 0.12c-0.03,0 -0.04,-0.02 -0.04,-0.05 0,-0.02 0.02,-0.04 0.04,-0.04 0.02,0 0.04,0.02 0.04,0.04 0,0 0,0 0,0 0,0.03 -0.02,0.05 -0.04,0.05 0,0 0,0 0,0l0 0z"/>
   <path class="fil0" d="M0.65 0.42c-0.04,0 -0.07,0.04 -0.07,0.07 0,0.05 0.04,0.08 0.08,0.08 0.04,0 0.07,-0.03 0.07,-0.07 0,0 0,0 0,0 0,-0.05 -0.03,-0.08 -0.07,-0.08 -0.01,0 -0.01,0 -0.01,0l0 0zm0 0.12c-0.02,0 -0.04,-0.02 -0.04,-0.05 0,-0.02 0.02,-0.04 0.05,-0.04 0.02,0 0.04,0.02 0.04,0.04 0,0 0,0 0,0 0,0.03 -0.02,0.05 -0.04,0.05 -0.01,0 -0.01,0 -0.01,0l0 0z"/>
   <path class="fil0" d="M0.02 0.3l0 0.08c-0.01,0.01 -0.02,0.02 -0.02,0.03l0 0.05c0,0.02 0.01,0.03 0.03,0.03l0.06 0c0,0 0,0 0,0 0,-0.05 0.04,-0.09 0.09,-0.09 0.05,0 0.1,0.04 0.1,0.09l0.02 0 0 -0.15 -0.23 0c-0.01,0 -0.01,0 -0.01,-0.01l0 -0.03c0,-0.01 0,-0.01 0.01,-0.01 0.02,-0.01 0.04,-0.02 0.06,-0.03 0.05,-0.02 0.11,-0.05 0.17,-0.05l0 -0.04c-0.1,0.01 -0.19,0.07 -0.24,0.08 -0.02,0.01 -0.04,0.03 -0.04,0.05 0,0 0,0 0,0l0 0zm0.05 0.06l0.03 0c0,0 0,0 0,0 0,0 0.01,0.01 0.01,0.01 0,0 0,0 0,0 0,0.01 -0.01,0.02 -0.01,0.02 0,0 0,0 0,0l-0.03 0c0,0 0,0 0,0 -0.01,0 -0.01,-0.01 -0.01,-0.02 0,0 0,0 0,0 0,0 0,-0.01 0.01,-0.01 0,0 0,0 0,0l0 0z"/>
   <path class="fil0" d="M0.87 0.46l-0.02 -0.06c-0.01,-0.03 -0.03,-0.06 -0.07,-0.06l-0.11 -0.02c-0.02,0 -0.05,-0.01 -0.07,-0.03 -0.06,-0.05 -0.13,-0.09 -0.21,-0.11l0 0.03c0.07,0.03 0.13,0.06 0.19,0.11 0,0 0,0 0,0.01 0,0.01 0,0.01 -0.01,0.01 0,0 0,0 0,0l-0.18 0 0 0.02c0.01,0 0.01,0.01 0.01,0.01 0,0.01 0,0.01 -0.01,0.01l0 0.11 0.17 0c0,0 0,0 0,0 0,-0.05 0.05,-0.09 0.1,-0.09 0.02,0 0.05,0.01 0.06,0.03 0.02,0.02 0.03,0.04 0.03,0.06l0.09 0c0,0 0,0 0,0 0.01,0 0.03,-0.01 0.03,-0.03 0,0 0,0 0,0l0 0z"/>
  </g>
 </g>
</svg>
