<?xml version="1.0" encoding="UTF-8"?>
<!DOCTYPE svg PUBLIC "-//W3C//DTD SVG 1.1//EN" "http://www.w3.org/Graphics/SVG/1.1/DTD/svg11.dtd">
<!-- Creator: CorelDRAW -->
<svg xmlns="http://www.w3.org/2000/svg" xml:space="preserve" width="20px" height="23px" version="1.1" style="shape-rendering:geometricPrecision; text-rendering:geometricPrecision; image-rendering:optimizeQuality; fill-rule:evenodd; clip-rule:evenodd"
viewBox="0 0 2.1 2.42"
 xmlns:xlink="http://www.w3.org/1999/xlink"
 xmlns:xodm="http://www.corel.com/coreldraw/odm/2003">
 <defs>
  <style type="text/css">
   <![CDATA[
    .fil0 {fill:#606062;fill-rule:nonzero}
   ]]>
  </style>
 </defs>
 <g id="Layer_x0020_1">
  <metadata id="CorelCorpID_0Corel-Layer"/>
  <g id="_2640396878192">
   <path class="fil0" d="M0.06 1.07c0,0.02 0.01,0.05 0.01,0.06 0,0 0,0 0,0 0,0.03 0.01,0.07 0.04,0.09l0 0.14c0,0 0,0 0,0.01 0,0.08 0.06,0.14 0.14,0.14l0.11 0c0.08,0 0.14,-0.06 0.14,-0.14 0,-0.01 0,-0.01 0,-0.01l0 -0.09 1.09 0 0 0.09c0,0 0,0 0,0.01 0,0.08 0.06,0.14 0.14,0.14l0.12 0c0.08,0 0.14,-0.06 0.14,-0.14 0,-0.01 0,-0.01 0,-0.01l0 -0.14c0.02,-0.02 0.04,-0.06 0.04,-0.09 0,0 0,0 0,0 0,-0.01 0,-0.04 0.01,-0.06 0.01,-0.05 0.02,-0.11 0.02,-0.17 0,0 0.02,-0.31 -0.05,-0.42 -0.03,-0.05 -0.07,-0.11 -0.11,-0.16 0,0 -0.01,-0.01 -0.01,-0.01l-0.2 -0.25c-0.03,-0.04 -0.07,-0.06 -0.12,-0.06 0,0 0,0 0,0l-1.04 0c0,0 0,0 0,0 -0.05,0 -0.09,0.02 -0.12,0.06l-0.23 0.29c0,0 0,0 -0.01,0 -0.03,0.04 -0.06,0.09 -0.09,0.13 -0.06,0.11 -0.05,0.41 -0.05,0.41 0.01,0.06 0.02,0.12 0.03,0.18l0 0zm0.3 0.29c0,0 0,0 0,0 0,0 0,0.01 0,0.01l-0.1 0c0,0 0,-0.01 0,-0.01 0,0 0,0 0,0l0 -0.09 0.1 0 0 0.09zm1.48 0c0,0 0,0 0,0 0,0 0,0.01 0,0.01l-0.1 0c0,0 0,-0.01 0,-0.01 0,0 0,0 0,0l0 -0.09 0.11 0 -0.01 0.09zm0.05 -0.32c0,0.03 -0.01,0.06 -0.01,0.08 -0.01,0.01 -0.02,0.01 -0.03,0.01 0,0 0,0 0,0l-1.6 0c0,0 0,0 -0.01,0 0,0 -0.01,0 -0.02,-0.01 0,-0.02 -0.01,-0.05 -0.02,-0.08l0 0 1.69 0 0 0zm-1.37 -0.89c0,0 0.01,0 0.01,0l1.04 0c0,0 0,0 0,0l0.16 0.2 -1.36 0 0.15 -0.2zm-0.34 0.63l0.12 0c0.05,0 0.08,-0.04 0.08,-0.08 0,-0.04 -0.03,-0.07 -0.08,-0.07l-0.11 0c0,-0.03 0.01,-0.05 0.02,-0.07 0.01,-0.02 0.02,-0.04 0.04,-0.07l1.59 0c0.02,0.03 0.03,0.05 0.04,0.07 0.01,0.02 0.02,0.04 0.02,0.07l-0.11 0c-0.04,0 -0.08,0.03 -0.08,0.07 0,0.04 0.04,0.08 0.08,0.08l0.13 0c0,0.04 0,0.08 0,0.11l-1.74 0c0,0 0,0 0,-0.01 0,-0.03 0,-0.07 0,-0.1z"/>
   <path class="fil0" d="M0.75 0.78l0.58 0c0.04,0 0.07,-0.04 0.07,-0.08 0,-0.04 -0.03,-0.07 -0.07,-0.07l-0.58 0c-0.04,0 -0.07,0.03 -0.07,0.07 0,0.04 0.03,0.08 0.07,0.08l0 0z"/>
   <path class="fil0" d="M1.42 1.5l-0.74 0c0,0 0,0 0,0 -0.02,0 -0.04,0.01 -0.06,0.03l-0.2 0.26c-0.02,0.01 -0.02,0.03 -0.02,0.04 0,0.04 0.03,0.08 0.07,0.08 0,0 0,0 0,0l1.15 0c0,0 0,0 0,0 0.04,0 0.08,-0.04 0.08,-0.08 0,-0.01 -0.01,-0.03 -0.02,-0.04l-0.21 -0.26c-0.01,-0.02 -0.03,-0.03 -0.05,-0.03 0,0 0,0 0,0zm-0.79 0.26l0.09 -0.11 0.66 0 0.09 0.11 -0.84 0z"/>
   <path class="fil0" d="M0.07 2.42l1.95 0c0,0 0,0 0,0 0.04,0 0.08,-0.04 0.08,-0.08 0,-0.01 -0.01,-0.03 -0.02,-0.04l-0.21 -0.26c-0.01,-0.02 -0.03,-0.03 -0.06,-0.03 0,0 0,0 0,0l-1.53 0c0,0 0,0 0,0 -0.02,0 -0.04,0.01 -0.06,0.03l-0.2 0.26c-0.01,0.01 -0.02,0.03 -0.02,0.05 0,0.04 0.03,0.07 0.07,0.07 0,0 0,0 0,0l0 0zm0.25 -0.27l1.46 0 0.09 0.12 -1.64 0 0.09 -0.12z"/>
  </g>
 </g>
</svg>
