<?xml version="1.0" encoding="UTF-8"?>
<!DOCTYPE svg PUBLIC "-//W3C//DTD SVG 1.1//EN" "http://www.w3.org/Graphics/SVG/1.1/DTD/svg11.dtd">
<!-- Creator: CorelDRAW -->
<svg xmlns="http://www.w3.org/2000/svg" xml:space="preserve" width="20px" height="17px" version="1.1" style="shape-rendering:geometricPrecision; text-rendering:geometricPrecision; image-rendering:optimizeQuality; fill-rule:evenodd; clip-rule:evenodd"
viewBox="0 0 28.14 24.5"
 xmlns:xlink="http://www.w3.org/1999/xlink"
 xmlns:xodm="http://www.corel.com/coreldraw/odm/2003">
 <defs>
  <style type="text/css">
   <![CDATA[
    .fil0 {fill:#606062;fill-rule:nonzero}
   ]]>
  </style>
 </defs>
 <g id="Layer_x0020_1">
  <metadata id="CorelCorpID_0Corel-Layer"/>
  <path class="fil0" d="M5.35 18.93c0.33,0.34 0.33,0.88 0,1.22 -0.34,0.34 -0.89,0.34 -1.23,0 -2.75,-2.75 -4.12,-6.35 -4.12,-9.95 0,-3.6 1.37,-7.2 4.12,-9.95 0.34,-0.33 0.89,-0.33 1.23,0 0.33,0.34 0.33,0.89 0,1.23 -2.41,2.41 -3.62,5.56 -3.62,8.72 0,3.16 1.21,6.32 3.62,8.73l0 0zm5.33 2.67l2.24 0 0 -7.78c-0.59,-0.18 -1.11,-0.51 -1.54,-0.93 -0.68,-0.69 -1.11,-1.64 -1.11,-2.69 0,-1.05 0.43,-2 1.11,-2.68 0.69,-0.69 1.64,-1.12 2.69,-1.12 1.05,0 2,0.43 2.68,1.12l0.01 0c0.69,0.69 1.11,1.64 1.11,2.68 0,1.05 -0.42,2 -1.11,2.69 -0.43,0.42 -0.95,0.75 -1.54,0.93l0 7.78 2.24 0c0.79,0 1.45,0.66 1.45,1.45l0 0c0,0.8 -0.66,1.45 -1.45,1.45l-6.78 0c-0.79,0 -1.45,-0.65 -1.45,-1.45l0 0c0,-0.79 0.66,-1.45 1.45,-1.45l0 0zm-0.64 -7.37c0.34,0.34 0.34,0.89 0,1.23 -0.34,0.33 -0.89,0.33 -1.22,0 -1.45,-1.45 -2.18,-3.36 -2.18,-5.26 0,-1.9 0.73,-3.8 2.18,-5.25 0.33,-0.34 0.88,-0.34 1.22,0 0.34,0.34 0.34,0.89 0,1.22 -1.11,1.12 -1.67,2.57 -1.67,4.03 0,1.46 0.56,2.92 1.67,4.03l0 0zm8.06 -8.06c-0.34,-0.33 -0.34,-0.88 0,-1.22 0.34,-0.34 0.89,-0.34 1.22,0 1.45,1.45 2.18,3.35 2.18,5.25 0,1.9 -0.73,3.81 -2.18,5.26 -0.33,0.33 -0.88,0.33 -1.22,0 -0.34,-0.34 -0.34,-0.89 0,-1.23 1.11,-1.11 1.67,-2.57 1.67,-4.03 0,-1.46 -0.56,-2.91 -1.67,-4.03l0 0zm-10.41 10.41c0.34,0.34 0.34,0.89 0,1.22 -0.33,0.34 -0.88,0.34 -1.22,0 -2.1,-2.09 -3.15,-4.85 -3.15,-7.6 0,-2.75 1.05,-5.5 3.15,-7.6 0.34,-0.34 0.89,-0.34 1.22,0 0.34,0.34 0.34,0.89 0,1.23 -1.76,1.76 -2.64,4.06 -2.64,6.37 0,2.31 0.88,4.62 2.64,6.38zm12.76 -12.75c-0.34,-0.34 -0.34,-0.89 0,-1.23 0.34,-0.34 0.88,-0.34 1.22,0 2.1,2.1 3.15,4.85 3.15,7.6 0,2.75 -1.05,5.51 -3.15,7.6 -0.34,0.34 -0.88,0.34 -1.22,0 -0.34,-0.33 -0.34,-0.88 0,-1.22 1.76,-1.76 2.64,-4.07 2.64,-6.38 0,-2.31 -0.88,-4.61 -2.64,-6.37zm2.35 -2.35c-0.34,-0.34 -0.34,-0.89 0,-1.23 0.33,-0.33 0.88,-0.33 1.22,0 2.75,2.75 4.12,6.35 4.12,9.95 0,3.6 -1.37,7.2 -4.12,9.95 -0.34,0.34 -0.89,0.34 -1.22,0 -0.34,-0.34 -0.34,-0.88 0,-1.22 2.4,-2.41 3.61,-5.57 3.61,-8.73 0,-3.16 -1.21,-6.31 -3.61,-8.72l0 0z"/>
 </g>
</svg>
