<?xml version="1.0" encoding="UTF-8"?>
<!DOCTYPE svg PUBLIC "-//W3C//DTD SVG 1.1//EN" "http://www.w3.org/Graphics/SVG/1.1/DTD/svg11.dtd">
<!-- Creator: CorelDRAW -->
<svg xmlns="http://www.w3.org/2000/svg" xml:space="preserve" width="20px" height="22px" version="1.1" style="shape-rendering:geometricPrecision; text-rendering:geometricPrecision; image-rendering:optimizeQuality; fill-rule:evenodd; clip-rule:evenodd"
viewBox="0 0 1.16 1.26"
 xmlns:xlink="http://www.w3.org/1999/xlink"
 xmlns:xodm="http://www.corel.com/coreldraw/odm/2003">
 <defs>
  <style type="text/css">
   <![CDATA[
    .fil0 {fill:#848688;fill-rule:nonzero}
   ]]>
  </style>
 </defs>
 <g id="Layer_x0020_1">
  <metadata id="CorelCorpID_0Corel-Layer"/>
  <g id="_1442113121632">
   <path class="fil0" d="M1.12 0.71c-0.02,-0.03 -0.07,-0.06 -0.08,-0.1 -0.02,-0.04 -0.06,-0.42 -0.07,-0.48 0,-0.05 -0.05,-0.11 -0.14,-0.12 -0.05,0 -0.15,-0.01 -0.25,-0.01 -0.1,0 -0.2,0.01 -0.25,0.01 -0.09,0.01 -0.14,0.07 -0.14,0.12 -0.01,0.06 -0.05,0.44 -0.07,0.48 -0.01,0.04 -0.06,0.07 -0.08,0.1 -0.03,0.02 -0.05,0.05 -0.03,0.17 0.02,0.12 0.04,0.14 0.06,0.15 0.06,0.01 0.96,0.01 1.02,0 0.02,-0.01 0.04,-0.03 0.06,-0.15 0.02,-0.12 0,-0.15 -0.03,-0.17zm-0.19 0.07c-0.06,0.01 -0.2,0.01 -0.35,0.01 -0.14,0 -0.31,0.01 -0.36,-0.02 -0.04,-0.03 0.04,-0.12 0.08,-0.19 0,0 0.14,0.08 0.28,0.08 0.15,0 0.28,-0.08 0.28,-0.08 0,0 0.16,0.19 0.07,0.2z"/>
   <polygon class="fil0" points="0.26,1.26 0.9,1.26 0.9,1.11 0.26,1.11 "/>
  </g>
 </g>
</svg>
