<?xml version="1.0" encoding="UTF-8"?>
<!DOCTYPE svg PUBLIC "-//W3C//DTD SVG 1.1//EN" "http://www.w3.org/Graphics/SVG/1.1/DTD/svg11.dtd">
<!-- Creator: CorelDRAW -->
<svg xmlns="http://www.w3.org/2000/svg" xml:space="preserve" width="20px" height="20px" version="1.1" style="shape-rendering:geometricPrecision; text-rendering:geometricPrecision; image-rendering:optimizeQuality; fill-rule:evenodd; clip-rule:evenodd"
viewBox="0 0 0.26 0.26"
 xmlns:xlink="http://www.w3.org/1999/xlink"
 xmlns:xodm="http://www.corel.com/coreldraw/odm/2003">
 <defs>
  <style type="text/css">
   <![CDATA[
    .fil0 {fill:#848688;fill-rule:nonzero}
   ]]>
  </style>
 </defs>
 <g id="Layer_x0020_1">
  <metadata id="CorelCorpID_0Corel-Layer"/>
  <g id="_1440670115488" data-name="Charging Time">
   <path class="fil0" d="M0.17 0l0 0.02c0,0 0,0 0,0l-0.04 0c0,0 0,0 0,0 0,0 0,0 0,0l0 -0.02c0,0 0,0 0,0l0.04 0c0,0 0,0 0,0 0,0 0,0 0,0z"/>
   <path class="fil0" d="M0.26 0.06l-0.01 0.01c0,0 0,0 0,0 0,0 0,0 -0.01,0l0 0 -0.01 -0.01 0 -0.01c0,0 0,0 0,0 0,0 0,0 0,0l0 -0.01c0,0 0.01,0 0.01,0 0,0 0,0 0,0l0.02 0.02c0,0 0,0 0,0 0,0 0,0 0,0z"/>
   <path class="fil0" d="M0.23 0.08l0 -0.01 -0.01 -0.01 0 0.01c-0.02,-0.02 -0.04,-0.02 -0.06,-0.03l0 -0.01 -0.02 0 0 0.01c-0.02,0.01 -0.04,0.01 -0.06,0.03l0 -0.01 -0.01 0.01 0 0.01c0,0 0,0 0,0 0,0 0,0.01 0,0.01 0,0 0,0 0,0 0,0 0,0 0,0l0 0.01c0.02,-0.03 0.05,-0.04 0.08,-0.04 0.05,0 0.09,0.04 0.09,0.09 0,0.05 -0.04,0.09 -0.09,0.09 -0.02,0 -0.04,0 -0.06,-0.01l0 0.01c0.02,0.01 0.04,0.02 0.06,0.02 0.06,0 0.11,-0.05 0.11,-0.11 0,-0.03 -0.01,-0.05 -0.03,-0.07l0 0z"/>
   <path class="fil0" d="M0.15 0.07c0,0 0,0 0,0 -0.03,0 -0.06,0.01 -0.07,0.03l0 0c0.01,0 0.01,0.01 0.01,0.02l0 0.09c0.02,0.02 0.04,0.02 0.06,0.02 0.05,0 0.08,-0.03 0.08,-0.08 0,-0.05 -0.03,-0.08 -0.08,-0.08 0,0 0,0 0,0l0 0zm0 0.08l0 -0.07c0.04,0 0.07,0.03 0.07,0.07l-0.07 0z"/>
   <path class="fil0" d="M0.07 0.05l0 0.01 -0.01 0.01 0 0c-0.01,0 -0.01,0 -0.01,0 0,0 0,0 0,0l-0.01 -0.01c0,0 0,0 0,0 0,0 0,0 0,0l0.02 -0.02c0,0 0,0 0,0 0,0 0.01,0 0.01,0l0 0.01c0,0 0,0 0,0 0,0 0,0 0,0l0 0z"/>
   <path class="fil0" d="M0.06 0.09l0 0.01 -0.03 0 0 -0.01c0,0 0,0 0,0l0.03 0c0,0 0,0 0,0 0,0 0,0 0,0 0,0 0,0 0,0 0,0 0,0 0,0l0 0z"/>
   <path class="fil0" d="M0.08 0.11l-0.07 0c-0.01,0 -0.01,0.01 -0.01,0.01l0 0.13c0,0 0,0 0.01,0l0.07 0c0,0 0.01,0 0.01,0 0,0 0,0 0,0l0 -0.13c0,0 0,0 0,0 0,0 -0.01,-0.01 -0.01,-0.01l0 0zm-0.01 0.12l-0.05 0c0,0 0,0 0,0l0 -0.03c0,0 0,0 0,0 0,0 0,0 0,0 0,0 0,0 0,0l0.05 0.03c0,0 0,0 0,0 0,0 0,0 0,0 0,0 0,0 0,0l0 0z"/>
  </g>
 </g>
</svg>
