<?xml version="1.0" encoding="UTF-8"?>
<!DOCTYPE svg PUBLIC "-//W3C//DTD SVG 1.1//EN" "http://www.w3.org/Graphics/SVG/1.1/DTD/svg11.dtd">
<!-- Creator: CorelDRAW -->
<svg xmlns="http://www.w3.org/2000/svg" xml:space="preserve" width="20px" height="20px" version="1.1" style="shape-rendering:geometricPrecision; text-rendering:geometricPrecision; image-rendering:optimizeQuality; fill-rule:evenodd; clip-rule:evenodd"
viewBox="0 0 5 4.99"
 xmlns:xlink="http://www.w3.org/1999/xlink"
 xmlns:xodm="http://www.corel.com/coreldraw/odm/2003">
 <defs>
  <style type="text/css">
   <![CDATA[
    .fil0 {fill:#848688}
   ]]>
  </style>
 </defs>
 <g id="Layer_x0020_1">
  <metadata id="CorelCorpID_0Corel-Layer"/>
  <path class="fil0" d="M0.7 0l3.61 0 0 1.46 -3.61 0 0 -1.46zm2.42 2.47l0 0.21 -0.36 0c-0.2,0 -0.2,0.3 0,0.3l0.36 0 0 0.53 -0.36 0c-0.2,0 -0.2,0.29 0,0.29l0.36 0 0 0.53 -0.36 0c-0.2,0 -0.2,0.29 0,0.29l0.36 0 0 0.37 -1.24 0 0 -0.37 0.37 0c0.19,0 0.19,-0.29 0,-0.29l-0.37 0 0 -0.53 0.37 0c0.19,0 0.19,-0.29 0,-0.29l-0.37 0 0 -0.53 0.37 0c0.19,0 0.19,-0.3 0,-0.3l-0.37 0 0 -0.21 1.24 0zm-2.57 -2.01l-0.55 0 0 0.5 0.55 0 0 -0.5zm3.9 0l0.55 0 0 0.5 -0.55 0 0 -0.5zm-4.45 0.65l0.55 0 0 0.35c0,0.08 0.07,0.14 0.15,0.14l3.61 0c0.08,0 0.14,-0.06 0.14,-0.14l0 -0.35 0.55 0 0 1.21 -5 0 0 -1.21 0 0zm1.56 -0.73c0.06,0.03 0.06,0.15 0,0.26 -0.07,0.11 -0.17,0.17 -0.23,0.13 -0.06,-0.04 -0.06,-0.15 0,-0.26 0.06,-0.11 0.16,-0.17 0.23,-0.13l0 0zm2.11 -0.11c0.06,0.04 0.06,0.16 0,0.26 -0.06,0.11 -0.16,0.17 -0.22,0.13 -0.07,-0.03 -0.07,-0.15 0,-0.26 0.06,-0.1 0.16,-0.16 0.22,-0.13l0 0zm-0.58 0.52c0.06,0.04 0.06,0.15 0,0.26 -0.07,0.11 -0.17,0.17 -0.23,0.13 -0.06,-0.03 -0.06,-0.15 0,-0.26 0.06,-0.11 0.16,-0.16 0.23,-0.13zm-0.48 -0.48c0.07,0.03 0.07,0.15 0,0.26 -0.06,0.11 -0.16,0.16 -0.22,0.13 -0.06,-0.04 -0.06,-0.15 0,-0.26 0.06,-0.11 0.16,-0.17 0.22,-0.13l0 0zm-0.61 0.38c0.06,0.03 0.06,0.15 0,0.26 -0.06,0.11 -0.16,0.16 -0.23,0.13 -0.06,-0.04 -0.06,-0.15 0,-0.26 0.07,-0.11 0.17,-0.17 0.23,-0.13z"/>
 </g>
</svg>
