<?xml version="1.0" encoding="UTF-8"?>
<!DOCTYPE svg PUBLIC "-//W3C//DTD SVG 1.1//EN" "http://www.w3.org/Graphics/SVG/1.1/DTD/svg11.dtd">
<!-- Creator: CorelDRAW -->
<svg xmlns="http://www.w3.org/2000/svg" xml:space="preserve" width="20px" height="20px" version="1.1" style="shape-rendering:geometricPrecision; text-rendering:geometricPrecision; image-rendering:optimizeQuality; fill-rule:evenodd; clip-rule:evenodd"
viewBox="0 0 1.7 1.68"
 xmlns:xlink="http://www.w3.org/1999/xlink"
 xmlns:xodm="http://www.corel.com/coreldraw/odm/2003">
 <defs>
  <style type="text/css">
   <![CDATA[
    .fil0 {fill:#848688}
   ]]>
  </style>
 </defs>
 <g id="Layer_x0020_1">
  <metadata id="CorelCorpID_0Corel-Layer"/>
  <path class="fil0" d="M0.85 0c0.08,0 0.13,0.11 0.21,0.14 0.08,0.02 0.18,-0.05 0.25,0 0.07,0.04 0.05,0.16 0.1,0.22 0.06,0.07 0.18,0.06 0.22,0.14 0.03,0.08 -0.05,0.16 -0.04,0.25 0.01,0.08 0.12,0.14 0.11,0.23 -0.02,0.08 -0.13,0.11 -0.17,0.18 -0.03,0.08 0.02,0.19 -0.04,0.26 -0.05,0.06 -0.16,0.02 -0.23,0.06 -0.07,0.05 -0.09,0.17 -0.17,0.2 -0.08,0.02 -0.16,-0.07 -0.24,-0.07 -0.08,0 -0.16,0.09 -0.24,0.07 -0.08,-0.03 -0.09,-0.15 -0.16,-0.19 -0.08,-0.05 -0.19,-0.01 -0.25,-0.07 -0.05,-0.07 0,-0.17 -0.03,-0.25 -0.04,-0.08 -0.16,-0.11 -0.17,-0.19 -0.01,-0.09 0.09,-0.15 0.11,-0.23 0.01,-0.08 -0.07,-0.17 -0.04,-0.25 0.03,-0.08 0.15,-0.07 0.21,-0.13 0.05,-0.07 0.03,-0.19 0.11,-0.23 0.07,-0.05 0.16,0.02 0.24,0 0.08,-0.03 0.13,-0.14 0.22,-0.14l0 0zm-0.42 0.68c0.03,-0.08 0.09,-0.16 0.16,-0.21 0.07,-0.05 0.16,-0.08 0.26,-0.08 0.09,0 0.18,0.03 0.25,0.08 0.08,0.05 0.14,0.13 0.17,0.21 0,0.01 0.01,0.02 0.02,0.02 0.01,-0.01 0.02,-0.02 0.01,-0.03 -0.03,-0.09 -0.09,-0.17 -0.17,-0.23 -0.08,-0.05 -0.18,-0.09 -0.28,-0.09 -0.11,0 -0.2,0.04 -0.28,0.09 -0.08,0.06 -0.14,0.14 -0.18,0.23 0,0.01 0,0.02 0.01,0.03 0.01,0 0.02,-0.01 0.03,-0.02l0 0zm0.84 0.32c-0.03,0.08 -0.09,0.16 -0.17,0.21 -0.07,0.05 -0.16,0.08 -0.25,0.08 -0.1,0 -0.19,-0.03 -0.26,-0.08 -0.07,-0.05 -0.13,-0.13 -0.16,-0.21 -0.01,-0.01 -0.02,-0.02 -0.03,-0.01 -0.01,0 -0.01,0.01 -0.01,0.02 0.04,0.09 0.1,0.17 0.18,0.23 0.08,0.05 0.17,0.09 0.28,0.09 0.1,0 0.2,-0.04 0.28,-0.09 0.08,-0.06 0.14,-0.14 0.17,-0.23 0.01,-0.01 0,-0.02 -0.01,-0.02 -0.01,-0.01 -0.02,0 -0.02,0.01l0 0zm-0.39 -0.41c0,-0.01 -0.02,-0.02 -0.03,-0.02 -0.02,0 -0.03,0.01 -0.03,0.02l-0.04 0.13c-0.01,0.02 -0.03,0.03 -0.05,0.03l-0.13 0c-0.02,0 -0.03,0.01 -0.04,0.02 0,0.02 0,0.03 0.02,0.04l0.1 0.08c0.02,0.01 0.03,0.03 0.02,0.05l-0.04 0.13c0,0.01 0,0.03 0.01,0.04 0.01,0.01 0.03,0.01 0.04,0l0.1 -0.08c0.02,-0.01 0.05,-0.01 0.07,0l0.1 0.08c0.02,0.01 0.03,0.01 0.04,0 0.02,-0.01 0.02,-0.03 0.02,-0.04l-0.05 -0.13c0,-0.02 0.01,-0.04 0.02,-0.05l0.11 -0.08c0.01,-0.01 0.02,-0.02 0.01,-0.04 0,-0.01 -0.02,-0.02 -0.03,-0.02l-0.13 0c-0.02,0 -0.04,-0.01 -0.05,-0.03l-0.04 -0.13zm-0.03 -0.29c-0.3,0 -0.55,0.24 -0.55,0.54 0,0.3 0.25,0.54 0.55,0.54 0.3,0 0.54,-0.24 0.54,-0.54 0,-0.3 -0.24,-0.54 -0.54,-0.54z"/>
 </g>
</svg>
