<?xml version="1.0" encoding="UTF-8"?>
<!DOCTYPE svg PUBLIC "-//W3C//DTD SVG 1.1//EN" "http://www.w3.org/Graphics/SVG/1.1/DTD/svg11.dtd">
<!-- Creator: CorelDRAW -->
<svg xmlns="http://www.w3.org/2000/svg" xml:space="preserve" width="20px" height="20px" version="1.1" style="shape-rendering:geometricPrecision; text-rendering:geometricPrecision; image-rendering:optimizeQuality; fill-rule:evenodd; clip-rule:evenodd"
viewBox="0 0 0.32 0.32"
 xmlns:xlink="http://www.w3.org/1999/xlink"
 xmlns:xodm="http://www.corel.com/coreldraw/odm/2003">
 <defs>
  <style type="text/css">
   <![CDATA[
    .fil0 {fill:#848688;fill-rule:nonzero}
    .fil1 {fill:#373435;fill-rule:nonzero}
   ]]>
  </style>
 </defs>
 <g id="Layer_x0020_1">
  <metadata id="CorelCorpID_0Corel-Layer"/>
  <g id="_1442038414592">
   <path class="fil0" d="M0.24 0.2c0,0 0,0 0,0.01l0 0.01c0,0 -0.01,0.01 -0.01,0.01l-0.02 0c-0.01,0 -0.01,0 -0.02,0.01 0,0.01 0,0.02 0,0.03l0.01 0.01c0,0 0,0 0,0 0,0.01 0,0.01 0,0.01l-0.04 0.02c0,0 0,0 0,0 0,0 0,-0.01 0,-0.01l-0.01 -0.01c-0.01,-0.01 -0.02,-0.01 -0.03,-0.01 -0.01,0 -0.02,0 -0.02,0.01l-0.01 0.01c0,0.01 0,0.01 -0.01,0.01l-0.03 -0.02c0,0 0,0 0,-0.01 0,0 0,0 0,0l0.01 -0.01c0,-0.01 0,-0.02 0,-0.03 -0.01,-0.01 -0.02,-0.01 -0.03,-0.01l-0.01 0c0,0 -0.01,-0.01 -0.01,-0.01l0 -0.04c0,0 0.01,0 0.01,0l0.01 0c0.01,0 0.02,-0.01 0.03,-0.02 0,-0.01 0,-0.02 0,-0.03l-0.01 -0.01c0,0 0,0 0,0 0,0 0,-0.01 0,-0.01l0.03 -0.01c0.01,-0.01 0.01,-0.01 0.01,0l0.01 0c0,0 0,0.01 0,0 0.01,0 0.01,0 0.01,0l-0.01 -0.01c0,-0.01 -0.01,-0.01 -0.02,0l-0.03 0.01c-0.01,0.01 -0.01,0.01 -0.01,0.01 0,0.01 0,0.01 0,0.02l0.01 0.01c0,0.01 0,0.01 0,0.02 -0.01,0 -0.01,0 -0.02,0l-0.01 0c-0.01,0 -0.02,0.01 -0.02,0.02l0 0.04c0,0.01 0.01,0.02 0.02,0.02l0.01 0c0.01,0 0.01,0 0.02,0 0,0.01 0,0.02 0,0.02l-0.01 0.01c0,0.01 0,0.01 0,0.02 0,0 0,0.01 0.01,0.01l0.03 0.02c0.01,0 0.02,0 0.02,-0.01l0.01 -0.01c0,-0.01 0.01,-0.01 0.01,-0.01 0.01,0 0.02,0 0.02,0.01l0 0.01c0.01,0 0.01,0.01 0.02,0.01 0,0 0,0 0,0 0,0 0.01,0 0.01,0l0.03 -0.02c0.01,0 0.01,-0.01 0.01,-0.01 0,-0.01 0,-0.01 0,-0.02l-0.01 -0.01c0,0 0,-0.01 0,-0.01 0,-0.01 0.01,-0.01 0.02,-0.01l0.01 0c0.01,0 0.02,-0.01 0.02,-0.02l0 -0.01c0,-0.01 0,-0.01 -0.01,-0.01l0 0z"/>
   <path class="fil0" d="M0.3 0.06l-0.01 0c0,0 -0.01,0 -0.01,0 0,0 0,-0.01 0,-0.01l0.01 -0.01c0,-0.01 0,-0.01 0,-0.01 0,-0.01 -0.01,-0.01 -0.01,-0.01l-0.02 -0.02c-0.01,0 -0.02,0 -0.03,0.01l0 0.01c0,0 -0.01,0 -0.01,0 -0.01,0 -0.01,0 -0.01,0l-0.01 -0.01c0,-0.01 -0.01,-0.01 -0.02,-0.01l-0.02 0.02c-0.01,0 -0.01,0 -0.01,0.01 0,0 0,0 0,0.01l0.01 0.01c0,0 0,0.01 0,0.01 -0.01,0 -0.01,0 -0.01,0l-0.02 0c0,0 -0.01,0.01 -0.01,0.02l0 0.03c0,0.01 0.01,0.01 0.01,0.01l0.02 0c0,0 0,0.01 0.01,0.01 0,0 0,0.01 0,0.01l-0.01 0.01c0,0 0,0.01 0,0.01 0,0.01 0,0.01 0.01,0.01l0.02 0.02c0.01,0 0.02,0 0.02,-0.01l0.01 -0.01c0,0 0,0 0.01,0 0,0 0.01,0 0.01,0l0 0.01c0.01,0.01 0.01,0.01 0.02,0.01 0,0 0,0 0.01,0l0.02 -0.02c0,0 0.01,0 0.01,-0.01 0,0 0,-0.01 0,-0.01l-0.01 -0.01c0,0 0,-0.01 0,-0.01 0,0 0.01,-0.01 0.01,-0.01l0.01 0c0.01,0 0.02,0 0.02,-0.01l0 -0.03c0,-0.01 -0.01,-0.02 -0.02,-0.02zm-0.08 0.08c-0.02,0 -0.04,-0.02 -0.04,-0.05 0,-0.02 0.02,-0.04 0.04,-0.04 0.02,0 0.04,0.02 0.04,0.04 0,0.03 -0.02,0.05 -0.04,0.05z"/>
   <path class="fil1" d="M0.12 0.16c0.01,0 0.01,0 0.01,0 0,0 0.01,0 0.01,-0.01 0,0 -0.01,0 -0.01,0 0,0 0,0 -0.01,0 -0.03,0 -0.05,0.02 -0.05,0.05 0,0.03 0.02,0.05 0.05,0.05 0.03,0 0.06,-0.02 0.06,-0.05 0,0 -0.01,0 -0.01,0l0 0c0,0 0,0 0,0 -0.01,0.02 -0.02,0.04 -0.05,0.04 -0.02,0 -0.04,-0.02 -0.04,-0.04 0,-0.02 0.02,-0.04 0.04,-0.04l0 0z"/>
  </g>
 </g>
</svg>
