<?xml version="1.0" encoding="UTF-8"?>
<!DOCTYPE svg PUBLIC "-//W3C//DTD SVG 1.1//EN" "http://www.w3.org/Graphics/SVG/1.1/DTD/svg11.dtd">
<!-- Creator: CorelDRAW -->
<svg xmlns="http://www.w3.org/2000/svg" xml:space="preserve" width="20px" height="20px" version="1.1" style="shape-rendering:geometricPrecision; text-rendering:geometricPrecision; image-rendering:optimizeQuality; fill-rule:evenodd; clip-rule:evenodd"
viewBox="0 0 0.98 0.98"
 xmlns:xlink="http://www.w3.org/1999/xlink"
 xmlns:xodm="http://www.corel.com/coreldraw/odm/2003">
 <defs>
  <style type="text/css">
   <![CDATA[
    .fil0 {fill:#848688;fill-rule:nonzero}
   ]]>
  </style>
 </defs>
 <g id="Layer_x0020_1">
  <metadata id="CorelCorpID_0Corel-Layer"/>
  <g id="_1442010828192">
   <path class="fil0" d="M0.84 0.56c-0.02,0 -0.04,-0.01 -0.04,-0.03 0,-0.19 -0.16,-0.35 -0.35,-0.35 -0.02,0 -0.03,-0.01 -0.03,-0.03l0 -0.08c-0.24,0.02 -0.42,0.22 -0.42,0.46 0,0.25 0.2,0.45 0.45,0.45 0.25,0 0.44,-0.18 0.46,-0.42l-0.07 0zm-0.39 0.24c-0.15,0 -0.27,-0.12 -0.27,-0.27 0,-0.15 0.12,-0.28 0.27,-0.28 0.15,0 0.28,0.13 0.28,0.28 0,0.15 -0.13,0.27 -0.28,0.27z"/>
   <path class="fil0" d="M0.51 0.53c0,-0.03 -0.03,-0.06 -0.06,-0.06 -0.03,0 -0.05,0.03 -0.05,0.06 0,0.03 0.02,0.05 0.05,0.05 0.03,0 0.06,-0.02 0.06,-0.05z"/>
   <path class="fil0" d="M0.49 0.36c0,-0.02 -0.02,-0.03 -0.04,-0.03 -0.02,0 -0.03,0.01 -0.03,0.03 0,0.02 0.01,0.04 0.03,0.04 0.02,0 0.04,-0.02 0.04,-0.04z"/>
   <path class="fil0" d="M0.33 0.53c0,-0.02 -0.02,-0.04 -0.04,-0.04 -0.02,0 -0.04,0.02 -0.04,0.04 0,0.02 0.02,0.03 0.04,0.03 0.02,0 0.04,-0.01 0.04,-0.03z"/>
   <path class="fil0" d="M0.49 0.69c0,-0.02 -0.02,-0.04 -0.04,-0.04 -0.02,0 -0.03,0.02 -0.03,0.04 0,0.02 0.01,0.04 0.03,0.04 0.02,0 0.04,-0.02 0.04,-0.04z"/>
   <path class="fil0" d="M0.65 0.53c0,-0.02 -0.01,-0.04 -0.03,-0.04 -0.02,0 -0.04,0.02 -0.04,0.04 0,0.02 0.02,0.03 0.04,0.03 0.02,0 0.03,-0.01 0.03,-0.03z"/>
   <path class="fil0" d="M0.45 0l0 0.15c0.21,0 0.39,0.17 0.39,0.38l0.14 0c0,-0.29 -0.24,-0.53 -0.53,-0.53l0 0zm0.14 0.09c0,0.01 -0.01,0.02 -0.02,0.02 0,0 0,0 0,0 -0.01,-0.01 -0.02,-0.02 -0.02,-0.03 0.01,-0.01 0.02,-0.01 0.03,-0.01 0.01,0 0.01,0.01 0.01,0.02l0 0zm0.11 0.05c-0.01,0.01 -0.01,0.01 -0.02,0.01 0,0 -0.01,0 -0.01,0 -0.01,-0.01 -0.01,-0.02 0,-0.03 0,0 0.01,-0.01 0.02,0 0.01,0 0.01,0.01 0.01,0.02l0 0zm0.09 0.08c-0.01,0 -0.01,0 -0.02,0 0,0 0,0 -0.01,0 -0.01,-0.01 -0.01,-0.02 0,-0.03 0.01,0 0.02,0 0.03,0 0,0.01 0,0.02 0,0.03zm0.07 0.1c-0.01,0 -0.01,0 -0.01,0 -0.01,0 -0.02,-0.01 -0.02,-0.01 0,-0.01 0,-0.02 0.01,-0.03 0.01,0 0.02,0 0.02,0.01 0.01,0.01 0,0.02 0,0.03l0 0zm0.04 0.11c0,0 -0.01,0 -0.01,0 -0.01,0 -0.01,-0.01 -0.02,-0.02 0,-0.01 0.01,-0.02 0.02,-0.02 0.01,0 0.02,0 0.02,0.01 0,0.01 0,0.02 -0.01,0.03l0 0z"/>
  </g>
 </g>
</svg>
