<?xml version="1.0" encoding="UTF-8"?>
<!DOCTYPE svg PUBLIC "-//W3C//DTD SVG 1.1//EN" "http://www.w3.org/Graphics/SVG/1.1/DTD/svg11.dtd">
<!-- Creator: CorelDRAW -->
<svg xmlns="http://www.w3.org/2000/svg" xml:space="preserve" width="20px" height="27px" version="1.1" style="shape-rendering:geometricPrecision; text-rendering:geometricPrecision; image-rendering:optimizeQuality; fill-rule:evenodd; clip-rule:evenodd"
viewBox="0 0 0.21 0.29"
 xmlns:xlink="http://www.w3.org/1999/xlink"
 xmlns:xodm="http://www.corel.com/coreldraw/odm/2003">
 <defs>
  <style type="text/css">
   <![CDATA[
    .fil0 {fill:#848688;fill-rule:nonzero}
   ]]>
  </style>
 </defs>
 <g id="Layer_x0020_1">
  <metadata id="CorelCorpID_0Corel-Layer"/>
  <path class="fil0" d="M0.05 0.25c0,0.01 0,0.01 0,0.01 0,0 -0.01,0 -0.01,-0.01 0,0 0.01,0 0.01,0 0,0 0,0 0,0l0 0zm0.03 0c0,0.02 -0.01,0.04 -0.03,0.04 -0.02,0 -0.04,-0.02 -0.04,-0.04 0,-0.01 0.02,-0.03 0.04,-0.03 0.02,0 0.03,0.02 0.03,0.03l0 0zm-0.02 0c0,0 0,-0.01 -0.01,-0.01 -0.01,0 -0.02,0.01 -0.02,0.01 0,0.01 0.01,0.02 0.02,0.02 0.01,0 0.01,-0.01 0.01,-0.02l0 0zm0.03 -0.13l-0.03 0 0 -0.01 -0.03 -0.01 0 0.01 -0.02 -0.01c0,0 0,0 0,0 -0.01,0 -0.01,0.01 -0.01,0.01 0,0.01 0,0.01 0.01,0.01l0.07 0.02c0,0 0.01,0 0.01,0 0,0 0.01,0 0.01,-0.01 0,0 -0.01,-0.01 -0.01,-0.01l0 0zm-0.08 0.05l0 0.01c0,0.01 0,0.01 0,0.01 0,0 0,0 0,0l0.01 0 0 0.01c0,0 0.01,0 0.01,0l0 0 0 0.01c0.01,0 0.01,0 0.02,0 0,0 0.01,0 0.01,0l0 -0.01 0.01 0c0,0 0,0 0,0l0 -0.01 0.01 0c0,0 0,0 0,0 0,0 0.01,0 0.01,-0.01l0 -0.01 -0.08 0zm0.07 -0.14c0.01,0 0.02,-0.01 0.02,-0.02l0 -0.01c0,0 -0.01,0 -0.01,0l-0.09 0c0,0 0,0 0,0l0 0.01c0,0.01 0.01,0.02 0.01,0.02l0.02 0 0 0.01 -0.02 -0.01c0,0 0,0 0,0 0,0 -0.01,0.01 -0.01,0.01 0,0.01 0,0.01 0.01,0.01l0.07 0.02 0 0c0,0 0,0 0,0 0.01,0 0.01,0 0.01,-0.01 0,0 0,-0.01 0,-0.01l-0.03 0 0 -0.02 0.02 0zm0.01 0.06l-0.03 -0.01 0 0 -0.03 -0.01 0 0 -0.02 0c0,0 0,0 0,0 0,0 -0.01,0 -0.01,0.01 0,0 0,0 0.01,0.01l0.07 0.02 0 0c0,0 0,0 0.01,0 0,0 0,-0.01 0,-0.01 0,-0.01 0,-0.01 0,-0.01zm0 0.06l-0.03 0 0 0 -0.03 -0.01 0 0.01 -0.03 0c0,0 0,0 0,0 0,0 0,0 0,0.01l0 0 0.09 0 0.01 0c0,-0.01 0,-0.01 0,-0.01 0,0 -0.01,0 -0.01,0l0 0zm0.08 0.1c0,0.01 0,0.01 -0.01,0.01 0,0 0,0 0,-0.01 0,0 0,0 0,0 0.01,0 0.01,0 0.01,0l0 0zm0.03 0c0,0.02 -0.02,0.04 -0.04,0.04 -0.02,0 -0.03,-0.02 -0.03,-0.04 0,-0.01 0.01,-0.03 0.03,-0.03 0.02,0 0.04,0.02 0.04,0.03l0 0zm-0.02 0c0,0 -0.01,-0.01 -0.02,-0.01 0,0 -0.01,0.01 -0.01,0.01 0,0.01 0.01,0.02 0.01,0.02 0.01,0 0.02,-0.01 0.02,-0.02l0 0zm0.02 -0.13l-0.02 0 0 -0.01 -0.03 -0.01 0 0.01 -0.02 -0.01c0,0 0,0 0,0 -0.01,0 -0.01,0.01 -0.01,0.01 0,0.01 0,0.01 0,0.01l0.08 0.02c0,0 0,0 0,0 0.01,0 0.01,0 0.01,-0.01 0,0 0,-0.01 -0.01,-0.01l0 0zm-0.08 0.05l0.01 0.01c0,0.01 0,0.01 0,0.01 0,0 0,0 0,0l0.01 0 0 0.01c0,0 0,0 0,0l0.01 0 0 0.01c0,0 0.01,0 0.01,0 0.01,0 0.01,0 0.02,0l0 -0.01 0 0c0.01,0 0.01,0 0.01,0l0 -0.01 0.01 0c0,0 0,0 0,0 0,0 0,0 0,-0.01l0.01 -0.01 -0.09 0zm0.08 -0.14c0,0 0.01,-0.01 0.01,-0.02l0 -0.01c0,0 0,0 0,0l-0.09 0c0,0 0,0 0,0l0 0.01c0,0.01 0,0.02 0.01,0.02l0.02 0 0 0.01 -0.02 -0.01c0,0 0,0 0,0 -0.01,0 -0.01,0.01 -0.01,0.01 0,0.01 0,0.01 0,0.01l0.08 0.02 0 0c0,0 0,0 0,0 0,0 0.01,0 0.01,-0.01 0,0 0,-0.01 -0.01,-0.01l-0.02 0 0 -0.02 0.02 0zm0 0.06l-0.02 -0.01 0 0 -0.03 -0.01 0 0 -0.02 0c0,0 0,0 0,0 -0.01,0 -0.01,0 -0.01,0.01 0,0 0,0 0,0.01l0.08 0.02 0 0c0,0 0,0 0,0 0.01,0 0.01,-0.01 0.01,-0.01 0,-0.01 0,-0.01 -0.01,-0.01l0 0zm0.01 0.06l-0.03 0 0 0 -0.03 -0.01 0 0.01 -0.03 0c0,0 0,0 0,0 0,0 0,0 0,0.01l0 0 0.09 0 0 0c0,-0.01 0,-0.01 0,-0.01 0,0 0,0 0,0l0 0z"/>
 </g>
</svg>
