<?xml version="1.0" encoding="UTF-8"?>
<!DOCTYPE svg PUBLIC "-//W3C//DTD SVG 1.1//EN" "http://www.w3.org/Graphics/SVG/1.1/DTD/svg11.dtd">
<!-- Creator: CorelDRAW -->
<svg xmlns="http://www.w3.org/2000/svg" xml:space="preserve" width="20px" height="25px" version="1.1" style="shape-rendering:geometricPrecision; text-rendering:geometricPrecision; image-rendering:optimizeQuality; fill-rule:evenodd; clip-rule:evenodd"
viewBox="0 0 0.15 0.19"
 xmlns:xlink="http://www.w3.org/1999/xlink"
 xmlns:xodm="http://www.corel.com/coreldraw/odm/2003">
 <defs>
  <style type="text/css">
   <![CDATA[
    .fil0 {fill:#848688;fill-rule:nonzero}
   ]]>
  </style>
 </defs>
 <g id="Layer_x0020_1">
  <metadata id="CorelCorpID_0Corel-Layer"/>
  <g id="_1441986361200">
   <path class="fil0" d="M0.13 0.01c0.01,0 0,0 0,0l-0.02 -0.01c0,0 0,0 0,0l-0.01 0.01 0.03 0.01 0 -0.01z"/>
   <path class="fil0" d="M0.15 0.04l-0.07 -0.04c0,0 -0.01,0 -0.01,0.01l-0.07 0.13c0,0.01 0,0.01 0.01,0.02l0.06 0.03c0.01,0 0.01,0 0.01,0l0.07 -0.14c0.01,0 0,-0.01 0,-0.01zm-0.06 0.01l0.02 -0.01 0 0c0,0 0,0 0,0 0,0 0,0 0,0.01l-0.02 0 0.02 0.01c0,0 0,0 0,0 0,0 0,0 0,0l-0.02 0.01c0,0 -0.01,0 -0.01,0 0,0 0,0 0.01,0l0.01 -0.01 -0.01 -0.01c0,0 0,0 0,0 0,0 0,0 0,0l0 0zm-0.01 0.12l-0.06 -0.03 0 -0.01 0.06 0.04 0 0zm0.01 -0.02l-0.06 -0.03 0 -0.01 0.06 0.04 0 0zm0.01 -0.02l-0.06 -0.03 0 0 0.06 0.03 0 0zm0.01 -0.02l-0.06 -0.03 0 0 0.06 0.03 0 0z"/>
  </g>
 </g>
</svg>
