<?xml version="1.0" encoding="UTF-8"?>
<!DOCTYPE svg PUBLIC "-//W3C//DTD SVG 1.1//EN" "http://www.w3.org/Graphics/SVG/1.1/DTD/svg11.dtd">
<!-- Creator: CorelDRAW -->
<svg xmlns="http://www.w3.org/2000/svg" xml:space="preserve" width="4.7587mm" height="2.6965mm" version="1.1" style="shape-rendering:geometricPrecision; text-rendering:geometricPrecision; image-rendering:optimizeQuality; fill-rule:evenodd; clip-rule:evenodd"
viewBox="0 0 2.78 1.58"
 xmlns:xlink="http://www.w3.org/1999/xlink"
 xmlns:xodm="http://www.corel.com/coreldraw/odm/2003">
 <defs>
  <style type="text/css">
   <![CDATA[
    .fil0 {fill:#FFAE00;fill-rule:nonzero}
   ]]>
  </style>
 </defs>
 <g id="Layer_x0020_1">
  <metadata id="CorelCorpID_0Corel-Layer"/>
  <g id="_1443979398688">
   <path class="fil0" d="M0.09 0c-0.05,0 -0.09,0.04 -0.09,0.09 0,0.05 0.04,0.09 0.09,0.09l0.56 0c0.05,0 0.09,-0.04 0.09,-0.09 0,-0.05 -0.04,-0.09 -0.09,-0.09l-0.56 0z"/>
   <path class="fil0" d="M1.05 0c-0.09,0 -0.17,0.04 -0.22,0.11 0,0 0.01,0.01 0.01,0.01l0.63 0.55c0.04,0.03 0.09,0.04 0.14,0.01l1.07 -0.58c0.01,-0 0.01,-0.01 0.02,-0.01 -0.05,-0.06 -0.12,-0.1 -0.21,-0.1l-1.45 0z"/>
   <path class="fil0" d="M0.48 1.22l0.29 -0.93 0.6 0.52c0.1,0.08 0.24,0.1 0.35,0.04l1.07 -0.58c0,-0 0,-0 0,-0 0,0.03 -0,0.06 -0.01,0.09l-0.31 1.02c-0.04,0.12 -0.14,0.2 -0.27,0.2l-1.45 0c-0.19,0 -0.32,-0.18 -0.27,-0.36l-0 -0z"/>
   <path class="fil0" d="M-0 0.56c0,-0.05 0.04,-0.09 0.09,-0.09l0.37 0c0.05,0 0.09,0.04 0.09,0.09 0,0.05 -0.04,0.09 -0.09,0.09l-0.37 0c-0.05,0 -0.09,-0.04 -0.09,-0.09z"/>
   <path class="fil0" d="M0.09 0.93c-0.05,0 -0.09,0.04 -0.09,0.09 0,0.05 0.04,0.09 0.09,0.09l0.19 0c0.05,0 0.09,-0.04 0.09,-0.09 0,-0.05 -0.04,-0.09 -0.09,-0.09l-0.19 0z"/>
  </g>
 </g>
</svg>
