<?xml version="1.0" encoding="UTF-8"?>
<!DOCTYPE svg PUBLIC "-//W3C//DTD SVG 1.1//EN" "http://www.w3.org/Graphics/SVG/1.1/DTD/svg11.dtd">
<!-- Creator: CorelDRAW -->
<svg xmlns="http://www.w3.org/2000/svg" xml:space="preserve" width="1.3rem" height="38px" version="1.1" style="shape-rendering:geometricPrecision; text-rendering:geometricPrecision; image-rendering:optimizeQuality; fill-rule:evenodd; clip-rule:evenodd"
viewBox="0 0 0.46 0.29"
 xmlns:xlink="http://www.w3.org/1999/xlink"
 xmlns:xodm="http://www.corel.com/coreldraw/odm/2003">
 <defs>
  <style type="text/css">
   <![CDATA[
    .fil0 {fill:black;fill-rule:nonzero}
   ]]>
  </style>
 </defs>
 <g id="Layer_x0020_1">
  <metadata id="CorelCorpID_0Corel-Layer"/>
  <path class="fil0" d="M0.46 0.14c-0.01,-0.02 -0.05,-0.1 -0.07,-0.11 -0.01,0 -0.01,0 -0.01,0l-0.19 0 0 -0.02c0,0 0,-0.01 0,-0.01 -0.01,0 -0.01,0 -0.01,0l-0.14 0c0,0 0,0 0,0.01l0 0.02 -0.02 0c-0.01,0 -0.02,0 -0.02,0.01l0 0.19c0,0.01 0.01,0.02 0.02,0.02l0.03 0c0,0.02 0.02,0.04 0.04,0.04 0.03,0 0.04,-0.02 0.05,-0.04l0.18 0c0,0.02 0.02,0.04 0.04,0.04 0.03,0 0.04,-0.02 0.05,-0.04l0.03 0c0.01,0 0.02,-0.01 0.02,-0.02l0 -0.09c0,0 0,0 0,0l0 0zm-0.41 -0.13l0.12 0 0 0.02 -0.12 0 0 -0.02zm0.04 0.26c-0.01,0 -0.02,-0.01 -0.02,-0.02 -0.01,-0.01 0,-0.02 0,-0.03 0.01,0 0.02,-0.01 0.03,0 0.01,0 0.02,0.01 0.02,0.02 0,0.02 -0.01,0.03 -0.03,0.03l0 0zm0.27 0c-0.01,0 -0.02,-0.01 -0.02,-0.02 0,-0.01 0,-0.02 0.01,-0.03 0,0 0.01,-0.01 0.03,0 0.01,0 0.01,0.01 0.01,0.02 0,0.02 -0.01,0.03 -0.03,0.03l0 0zm0.08 -0.04c0,0 0,0 0,0l-0.03 0c-0.01,-0.02 -0.03,-0.03 -0.05,-0.03 -0.01,0 -0.03,0.01 -0.04,0.03l-0.19 0c0,-0.02 -0.02,-0.03 -0.04,-0.03 -0.02,0 -0.03,0.01 -0.04,0.03l-0.03 0c0,0 0,0 -0.01,0l0 -0.19c0.01,0 0.01,0 0.01,0l0.36 0c0.02,0.02 0.05,0.08 0.06,0.11l0 0.08zm-0.07 -0.18l-0.34 0c0,0 0,0.01 0,0.01 0,0 0,0 0,0l0 0.09c0,0 0,0 0,0 0,0.01 0,0.01 0,0.01l0.4 0c0,0 0,0 0,-0.01 0,0 0,0 0,0 -0.01,-0.02 -0.03,-0.07 -0.05,-0.09 0,0 -0.01,-0.01 -0.01,-0.01l0 0zm-0.17 0.02l0.06 0 0 0.07 -0.06 0 0 -0.07zm-0.02 0.07l-0.06 0 0 -0.07 0.06 0 0 0.07zm0.09 -0.07l0.06 0 0 0.07 -0.06 0 0 -0.07zm-0.23 0l0.07 0 0 0.07 -0.07 0 0 -0.07zm0.31 0.07l0 -0.07 0.02 0c0.01,0.01 0.03,0.05 0.04,0.07l-0.06 0z"/>
 </g>
</svg>
