<?xml version="1.0" encoding="UTF-8"?>
<!DOCTYPE svg PUBLIC "-//W3C//DTD SVG 1.1//EN" "http://www.w3.org/Graphics/SVG/1.1/DTD/svg11.dtd">
<!-- Creator: CorelDRAW -->
<svg xmlns="http://www.w3.org/2000/svg" xml:space="preserve" width="5.6312mm" height="2.6504mm" version="1.1" style="shape-rendering:geometricPrecision; text-rendering:geometricPrecision; image-rendering:optimizeQuality; fill-rule:evenodd; clip-rule:evenodd"
viewBox="0 0 6.84 3.22"
 xmlns:xlink="http://www.w3.org/1999/xlink"
 xmlns:xodm="http://www.corel.com/coreldraw/odm/2003">
 <defs>
  <style type="text/css">
   <![CDATA[
    .fil0 {fill:black;fill-rule:nonzero}
   ]]>
  </style>
 </defs>
 <g id="Layer_x0020_1">
  <metadata id="CorelCorpID_0Corel-Layer"/>
  <path class="fil0" d="M0.16 2.25c0.1,0.23 0.32,0.38 0.57,0.38l0.17 0c0.05,0.33 0.34,0.59 0.69,0.59 0.35,0 0.64,-0.26 0.69,-0.59l2.66 0c0.05,0.33 0.34,0.59 0.69,0.59 0.35,0 0.64,-0.26 0.69,-0.59l0.08 0c0.12,0 0.23,-0.05 0.32,-0.14 0.08,-0.09 0.12,-0.21 0.11,-0.33l-0.07 -0.66c-0.02,-0.16 -0.14,-0.3 -0.3,-0.33l-1.14 -0.24 -1.04 -0.71c-0.21,-0.14 -0.45,-0.22 -0.71,-0.22l-1.2 0c-0.2,0 -0.39,0.06 -0.56,0.17l-0.81 0.54 -0.71 0c-0.06,0 -0.1,0.04 -0.11,0.09l-0.19 1.02c-0,0.02 -0,0.04 0.01,0.06l0.15 0.36zm1.44 0.74c-0.26,0 -0.47,-0.21 -0.47,-0.47 0,-0 0,-0 0,-0 0,-0 -0,-0 -0,-0 0,-0.26 0.21,-0.47 0.47,-0.47 0.26,0 0.47,0.21 0.47,0.47 0,0.26 -0.21,0.47 -0.47,0.47l0 0zm4.04 0c-0.26,0 -0.47,-0.21 -0.47,-0.47 0,-0 0,-0 0,-0 0,-0 -0,-0 -0,-0 0,-0.26 0.21,-0.47 0.47,-0.47 0.26,0 0.47,0.21 0.47,0.47 0,0.26 -0.21,0.47 -0.47,0.47l0 0zm-5.25 -2.05l0.65 0c0.02,0 0.04,-0.01 0.06,-0.02l0.84 -0.56c0.13,-0.09 0.28,-0.13 0.43,-0.13l1.2 0c0.21,0 0.41,0.06 0.58,0.18l1.06 0.72c0.01,0.01 0.03,0.01 0.04,0.02l1.16 0.25c0.06,0.01 0.11,0.07 0.12,0.13l0.07 0.66c0.01,0.06 -0.01,0.11 -0.05,0.15 -0.04,0.04 -0.09,0.06 -0.15,0.06l-0.08 0c-0.05,-0.33 -0.34,-0.59 -0.69,-0.59 -0.35,0 -0.64,0.26 -0.69,0.59l-2.66 0c-0.05,-0.33 -0.34,-0.59 -0.69,-0.59 -0.35,0 -0.64,0.26 -0.69,0.59l-0.17 0c-0.16,0 -0.3,-0.09 -0.36,-0.24l-0.14 -0.33 0.16 -0.9 0 0z"/>
 </g>
</svg>
