<?xml version="1.0" encoding="UTF-8"?>
<!DOCTYPE svg PUBLIC "-//W3C//DTD SVG 1.1//EN" "http://www.w3.org/Graphics/SVG/1.1/DTD/svg11.dtd">
<!-- Creator: CorelDRAW -->
<svg xmlns="http://www.w3.org/2000/svg" xml:space="preserve" width="5.1218mm" height="3.6388mm" version="1.1" style="shape-rendering:geometricPrecision; text-rendering:geometricPrecision; image-rendering:optimizeQuality; fill-rule:evenodd; clip-rule:evenodd"
viewBox="0 0 4.15 2.95"
 xmlns:xlink="http://www.w3.org/1999/xlink"
 xmlns:xodm="http://www.corel.com/coreldraw/odm/2003">
 <defs>
  <style type="text/css">
   <![CDATA[
    .fil0 {fill:black;fill-rule:nonzero}
   ]]>
  </style>
 </defs>
 <g id="Layer_x0020_1">
  <metadata id="CorelCorpID_0Corel-Layer"/>
  <path class="fil0" d="M2 1.98l0 -0 0.34 -0.34 -0.94 0 -0.19 0.3 -0 0.01 -0.56 0.87 0.49 0 0.85 -0.83 -0 0zm1.03 -0.67c-0.04,0 -0.07,-0.03 -0.07,-0.07 0,-0.04 0.03,-0.07 0.07,-0.07l0.36 0c-0.01,-0.03 -0.02,-0.05 -0.03,-0.08 -0.05,-0.1 -0.17,-0.17 -0.32,-0.21 -0.16,-0.04 -0.36,-0.06 -0.57,-0.05 -0.07,0 -0.13,0.01 -0.2,0.01l-0 0c-0.27,0.03 -0.55,0.08 -0.8,0.15 -0,0 -0.01,0 -0.01,0 -0.28,0.07 -0.52,0.16 -0.67,0.24 -0.03,0.02 -0.07,0.01 -0.09,-0.03 -0.01,-0.01 -0.01,-0.02 -0.01,-0.04 0,-0.18 -0.06,-0.38 -0.18,-0.53 -0.09,-0.11 -0.21,-0.2 -0.37,-0.25l0.12 1.15c0.1,0.04 0.42,0.17 0.86,0.27l0.19 -0.29c0.01,-0.02 0.03,-0.03 0.06,-0.03l1.14 -0c0.04,0 0.07,0.03 0.07,0.07 0,0.02 -0.01,0.04 -0.02,0.05l-0.35 0.34c0.28,0.01 0.58,-0.02 0.86,-0.08 0.32,-0.07 0.64,-0.2 0.93,-0.4 -0.03,-0.06 -0.09,-0.1 -0.15,-0.13 -0.16,-0.07 -0.63,-0.04 -0.81,-0.04l-0 -0zm-0.91 -0.57l-0.61 -0.6 -0.49 0 0.46 0.73c0.21,-0.05 0.43,-0.1 0.64,-0.13l0 0zm-0.78 0.16l-0.5 -0.79c-0.01,-0.01 -0.01,-0.03 -0.01,-0.04 0,-0.04 0.03,-0.07 0.07,-0.07l0.64 0c0.02,0 0.03,0.01 0.05,0.02l0.71 0.7c0.06,-0.01 0.12,-0.01 0.18,-0.01 0.23,-0.01 0.44,0 0.61,0.05 0.18,0.05 0.32,0.14 0.4,0.27 0.02,0.04 0.04,0.09 0.05,0.14 0.15,-0 0.28,0.02 0.38,0.06 0.12,0.05 0.2,0.14 0.25,0.25 0.01,0.03 0,0.06 -0.02,0.08 -0.32,0.23 -0.67,0.37 -1.02,0.45 -0.34,0.08 -0.69,0.1 -1.03,0.08l-0.85 0.83c-0.01,0.01 -0.03,0.02 -0.05,0.02l-0.64 0c-0.04,0 -0.07,-0.03 -0.07,-0.07 0,-0.02 0.01,-0.03 0.01,-0.04l0.57 -0.89c-0.5,-0.12 -0.84,-0.26 -0.87,-0.28 -0.02,-0.01 -0.04,-0.03 -0.04,-0.06l-0.14 -1.29c-0,-0.01 -0,-0.01 0,-0.02 0.01,-0.04 0.04,-0.06 0.08,-0.05 0.24,0.05 0.41,0.17 0.54,0.32 0.12,0.15 0.18,0.33 0.2,0.51 0.14,-0.06 0.32,-0.13 0.52,-0.19l-0 0z"/>
 </g>
</svg>
