<?xml version="1.0" encoding="UTF-8"?>
<!DOCTYPE svg PUBLIC "-//W3C//DTD SVG 1.1//EN" "http://www.w3.org/Graphics/SVG/1.1/DTD/svg11.dtd">
<!-- Creator: CorelDRAW -->
<svg xmlns="http://www.w3.org/2000/svg" xml:space="preserve" width="5.2462mm" height="3.1031mm" version="1.1" style="shape-rendering:geometricPrecision; text-rendering:geometricPrecision; image-rendering:optimizeQuality; fill-rule:evenodd; clip-rule:evenodd"
viewBox="0 0 5.36 3.17"
 xmlns:xlink="http://www.w3.org/1999/xlink"
 xmlns:xodm="http://www.corel.com/coreldraw/odm/2003">
 <defs>
  <style type="text/css">
   <![CDATA[
    .fil0 {fill:black;fill-rule:nonzero}
   ]]>
  </style>
 </defs>
 <g id="Layer_x0020_1">
  <metadata id="CorelCorpID_0Corel-Layer"/>
  <path class="fil0" d="M4.33 1.12c-0.1,0 -0.19,0.01 -0.27,0.04l-0.31 -0.81 0.61 0c0.1,0 0.18,0.08 0.18,0.18 0,0.1 -0.08,0.18 -0.18,0.18 -0.05,0 -0.1,0.04 -0.1,0.1 0,0.05 0.04,0.1 0.1,0.1 0.21,0 0.37,-0.17 0.37,-0.37 0,-0.21 -0.17,-0.37 -0.37,-0.37l-0.75 0c-0,0 -0,0 -0,0l-0 0c-0,0 -0,0 -0.01,0 -0,0 -0.01,0 -0.01,0 -0,0 -0.01,0 -0.01,0 -0,0 -0,0 -0.01,0 -0,0 -0,0 -0,0 -0,0 -0.01,0 -0.01,0.01 -0,0 -0,0 -0.01,0 -0,0 -0.01,0 -0.01,0.01 -0,0 -0,0 -0.01,0.01 -0,0 -0,0 -0.01,0.01 -0,0 -0,0 -0.01,0.01 -0,0 -0,0.01 -0,0.01 -0,0 -0,0 -0,0.01 -0,0 -0,0.01 -0,0.01 -0,0 -0,0.01 -0,0.01 -0,0 -0,0.01 -0,0.01 -0,0 -0,0.01 -0,0.01 0,0 -0,0 -0,0 0,0 0,0 0,0.01 0,0 0,0.01 0,0.01 0,0 0,0.01 0,0.01 0,0 0,0 0,0.01l0.15 0.39 -1.58 0.03 -0.16 -0.51 0.33 0c0.05,0 0.1,-0.04 0.1,-0.1 0,-0.05 -0.04,-0.1 -0.1,-0.1l-0.75 0c-0.05,0 -0.1,0.04 -0.1,0.1 0,0.05 0.04,0.1 0.1,0.1l0.21 0 0.18 0.57 -0.35 0.48c-0.15,-0.09 -0.33,-0.14 -0.52,-0.14 -0.57,0 -1.03,0.46 -1.03,1.03 0,0.57 0.46,1.03 1.03,1.03 0.53,0 0.97,-0.41 1.02,-0.93l0.1 0c0.02,0.06 0.05,0.11 0.1,0.15l-0.06 0.19c-0.02,0.05 0.01,0.11 0.07,0.12 0.01,0 0.02,0 0.03,0 0.04,0 0.08,-0.03 0.09,-0.07l0.06 -0.19c0.15,-0.01 0.27,-0.13 0.27,-0.28 0,-0.04 -0.01,-0.08 -0.02,-0.11l1.08 -1.11 0.12 0.31c-0.34,0.17 -0.57,0.52 -0.57,0.92 0,0.57 0.46,1.03 1.03,1.03 0.57,0 1.03,-0.46 1.03,-1.03 0,-0.57 -0.46,-1.03 -1.03,-1.03zm-2.36 -0.12l0.29 0.91c-0.05,0.03 -0.08,0.07 -0.11,0.13l-0.11 0c-0.03,-0.27 -0.15,-0.5 -0.34,-0.67l0.27 -0.37zm-0.12 1.04l-0.63 0 0.37 -0.51c0.14,0.13 0.24,0.31 0.26,0.51zm-0.83 0.93c-0.46,0 -0.83,-0.37 -0.83,-0.83 0,-0.46 0.37,-0.83 0.83,-0.83 0.15,0 0.29,0.04 0.41,0.11l-0.49 0.67c-0.02,0.03 -0.02,0.07 -0.01,0.1 0.02,0.03 0.05,0.05 0.09,0.05l0.83 0c-0.05,0.41 -0.4,0.73 -0.83,0.73zm1.39 -0.73c-0.05,0 -0.09,-0.04 -0.09,-0.09 0,-0.05 0.04,-0.09 0.09,-0.09 0.05,0 0.09,0.04 0.09,0.09 0,0.05 -0.04,0.09 -0.09,0.09zm0.2 -0.42l0.03 -0.09c0.02,-0.05 -0.01,-0.11 -0.07,-0.12 -0.05,-0.02 -0.11,0.01 -0.12,0.07l-0.03 0.11 -0.28 -0.88 1.39 -0.03 -0.92 0.95zm1.72 1.16c-0.46,0 -0.83,-0.37 -0.83,-0.83 0,-0.32 0.18,-0.6 0.45,-0.74l0.3 0.77c0.01,0.04 0.05,0.06 0.09,0.06 0.01,0 0.02,-0 0.03,-0.01 0.05,-0.02 0.07,-0.08 0.06,-0.13l-0.3 -0.77c0.07,-0.02 0.13,-0.03 0.2,-0.03 0.46,0 0.83,0.37 0.83,0.83 0,0.46 -0.37,0.83 -0.83,0.83z"/>
 </g>
</svg>
