<?xml version="1.0" encoding="UTF-8"?>
<!DOCTYPE svg PUBLIC "-//W3C//DTD SVG 1.1//EN" "http://www.w3.org/Graphics/SVG/1.1/DTD/svg11.dtd">
<!-- Creator: CorelDRAW -->
<svg xmlns="http://www.w3.org/2000/svg" xml:space="preserve" width="6.0841mm" height="2.6844mm" version="1.1" style="shape-rendering:geometricPrecision; text-rendering:geometricPrecision; image-rendering:optimizeQuality; fill-rule:evenodd; clip-rule:evenodd"
viewBox="0 0 6.32 2.79"
 xmlns:xlink="http://www.w3.org/1999/xlink"
 xmlns:xodm="http://www.corel.com/coreldraw/odm/2003">
 <defs>
  <style type="text/css">
   <![CDATA[
    .fil0 {fill:black;fill-rule:nonzero}
   ]]>
  </style>
 </defs>
 <g id="Layer_x0020_1">
  <metadata id="CorelCorpID_0Corel-Layer"/>
  <path class="fil0" d="M4.79 0c0.03,0 0.06,0.02 0.07,0.04l0.68 0.88 0.66 -0.09c0.01,-0 0.01,-0 0.02,-0 0.06,0 0.11,0.05 0.11,0.11 0,0.01 -0,0.02 -0,0.03 -0.13,0.45 -0.26,0.83 -0.48,1.13 -0.21,0.3 -0.52,0.52 -0.97,0.61 -0.23,0.05 -0.63,0.07 -1.1,0.08 -0.48,0.01 -1.03,0 -1.55,-0.01 -1.05,-0.02 -1.99,-0.07 -1.99,-0.07 -0.05,-0 -0.09,-0.04 -0.1,-0.09l-0.12 -0.81c-0,-0 -0,-0.01 -0,-0.01 0,-0.05 0.04,-0.1 0.09,-0.11l2.22 -0.31 -0.12 -0.8 -0.25 0.04c-0.01,0 -0.01,0 -0.02,0 -0.05,0 -0.1,-0.04 -0.11,-0.09 -0,-0.01 -0,-0.01 -0,-0.02 0,-0.05 0.04,-0.1 0.09,-0.11l0.35 -0.05c0,0 0,0 0,0 0,0 0,0 0,0 0,0 0,0 0,0 0,0 0,0 0,0l2.48 -0.35c0,-0 0.01,-0 0.02,-0 0,0 0.01,0 0.01,0l0 -0zm-0.06 0.22l-1.01 0.14 0.25 0.78 1.33 -0.19 -0.57 -0.73zm-1.22 0.17l-1.09 0.15 0.12 0.8 1.22 -0.17 -0.25 -0.78zm2.56 0.67l-3.61 0.51c0,0 0,0 0,0 0,0 0,0 0,0 0,0 0,0 0,0 0,0 0,0 0,0l-2.22 0.31 0.05 0.33 5.66 -0.8c0.04,-0.11 0.08,-0.23 0.12,-0.35l-0 0zm-0.21 0.58l-5.54 0.78 0.01 0.09c0.21,0.01 0.99,0.04 1.9,0.06 0.52,0.01 1.07,0.02 1.54,0.01 0.47,-0.01 0.87,-0.03 1.06,-0.07 0.41,-0.09 0.65,-0.26 0.84,-0.53 0.07,-0.1 0.13,-0.21 0.19,-0.34l-0 0z"/>
 </g>
</svg>
