<?xml version="1.0" encoding="UTF-8"?>
<!DOCTYPE svg PUBLIC "-//W3C//DTD SVG 1.1//EN" "http://www.w3.org/Graphics/SVG/1.1/DTD/svg11.dtd">
<!-- Creator: CorelDRAW -->
<svg xmlns="http://www.w3.org/2000/svg" xml:space="preserve" width="5.1271mm" height="3.0759mm" version="1.1" style="shape-rendering:geometricPrecision; text-rendering:geometricPrecision; image-rendering:optimizeQuality; fill-rule:evenodd; clip-rule:evenodd"
viewBox="0 0 4.89 2.93"
 xmlns:xlink="http://www.w3.org/1999/xlink"
 xmlns:xodm="http://www.corel.com/coreldraw/odm/2003">
 <defs>
  <style type="text/css">
   <![CDATA[
    .fil0 {fill:black;fill-rule:nonzero}
   ]]>
  </style>
 </defs>
 <g id="Layer_x0020_1">
  <metadata id="CorelCorpID_0Corel-Layer"/>
  <path class="fil0" d="M4.07 1.3c-0.09,0 -0.17,0.01 -0.25,0.04l-0.13 -0.29c0.02,0 0.04,0.01 0.05,0.01l0.16 -0c0.09,0 0.16,-0.07 0.16,-0.16l0 -0.33c-0,-0.09 -0.07,-0.16 -0.16,-0.16l-0.16 0c-0.11,0 -0.21,0.06 -0.27,0.15l-0.16 -0.36c-0.05,-0.12 -0.17,-0.19 -0.3,-0.19l-0.33 0c-0.04,0 -0.08,0.04 -0.08,0.08 0,0.04 0.04,0.08 0.08,0.08l0.33 0c0.06,0 0.12,0.04 0.15,0.1l0.12 0.28c-0.06,-0.03 -0.13,-0.05 -0.19,-0.05l-0.49 0c-0.24,0 -0.47,0.12 -0.61,0.33l-0.45 -0c-0.15,0 -0.3,-0.04 -0.35,-0.1 -0.04,-0.04 -0.1,-0.07 -0.16,-0.07 -0,0 -0,0 -0,0l-0.3 0c-0.22,0 -0.41,0.18 -0.41,0.41 0,0.13 0.11,0.24 0.24,0.24l0.45 0 -0.01 0.03c-0.07,-0.02 -0.13,-0.03 -0.2,-0.03 -0.45,0 -0.81,0.36 -0.81,0.81 0,0.45 0.36,0.81 0.81,0.81 0.32,0 0.62,-0.19 0.75,-0.49l0.39 0c0.09,-0 0.16,-0.07 0.16,-0.16l0.56 0c0,-0 0,-0 0,-0 0.19,0 0.35,-0.13 0.39,-0.31l0.17 -0.7c0.12,-0.05 0.21,-0.15 0.24,-0.28l0.18 0.42c-0.25,0.14 -0.41,0.41 -0.41,0.71 0,0.45 0.36,0.81 0.81,0.81 0.45,0 0.81,-0.36 0.81,-0.81 0,-0.45 -0.36,-0.81 -0.81,-0.81 -0,0 -0,0 -0,0zm-3.5 -0.16c-0.04,0 -0.08,-0.04 -0.08,-0.08 0,-0.13 0.11,-0.24 0.24,-0.24l0.3 0c0,0 0,0 0,0 0.02,0 0.03,0.01 0.05,0.02 0.11,0.11 0.32,0.14 0.47,0.14l0.37 0c-0.02,0.05 -0.03,0.11 -0.04,0.16l-1.31 0zm1.52 0.16l-0.07 0.26c-0.01,0.04 -0.04,0.06 -0.08,0.06 -0,0 -0,0 -0,0l-0.07 0c-0.04,0 -0.07,-0.03 -0.08,-0.06l-0.07 -0.26 0.36 0zm-0.93 0.08l0.03 -0.08 0.37 0 0.08 0.3 0 0 0 0 0.09 0.35 -0.12 0c-0.05,-0.25 -0.22,-0.46 -0.44,-0.57l0 0zm0.28 0.57l-0.17 0c-0.04,-0.11 -0.12,-0.2 -0.22,-0.26l0.06 -0.16c0.17,0.08 0.29,0.24 0.33,0.42l0 0zm-0.45 -0.1c0.04,0.03 0.07,0.06 0.1,0.1l-0.14 0 0.04 -0.1zm-0.18 0.92c-0,0 -0,0 -0,0 -0.36,0 -0.65,-0.29 -0.65,-0.65 0,-0.36 0.29,-0.65 0.65,-0.65 0.05,0 0.1,0.01 0.15,0.02l-0.06 0.15c-0.03,-0.01 -0.06,-0.01 -0.09,-0.01 -0.27,0 -0.49,0.22 -0.49,0.49 0,0.27 0.22,0.49 0.49,0.49 0.14,0 0.27,-0.06 0.36,-0.16l0.2 0c-0.12,0.2 -0.33,0.33 -0.56,0.33l-0 0zm0 -0.33c-0.18,-0 -0.33,-0.15 -0.33,-0.33 0,-0.18 0.15,-0.33 0.33,-0.33 0.01,0 0.02,0 0.03,0l-0.06 0.16c-0.08,0.01 -0.13,0.08 -0.13,0.16l0 0.16c0,0.09 0.07,0.16 0.16,0.16l-0 0zm1.14 -0.16l-1.14 0 0 -0.16 1.14 0 0 0.16zm0.65 -0.16c-0.13,0 -0.24,-0.11 -0.24,-0.24 0,-0.13 0.11,-0.24 0.24,-0.24 0.13,0 0.24,0.11 0.24,0.24 -0,0.13 -0.11,0.24 -0.24,0.24zm0.37 -0.42c-0.07,-0.14 -0.21,-0.23 -0.37,-0.23 -0.22,0 -0.41,0.18 -0.41,0.41 0,0.09 0.03,0.18 0.08,0.25l-0.17 0c0,-0.09 -0.07,-0.16 -0.16,-0.16l-0.06 0 -0.04 -0.16c0.01,0 0.02,0 0.02,0l0.07 0c0,0 0,0 0,0 0.11,0 0.21,-0.08 0.24,-0.19l0.08 -0.3 0.81 0 -0.1 0.4zm0.12 -0.56l-1.05 0c0.04,-0.28 0.28,-0.49 0.56,-0.49l0.49 0c0.13,0 0.24,0.11 0.24,0.24 0,0.13 -0.11,0.24 -0.24,0.24zm0.78 0.72l0.13 0.29c0.01,0.03 0.04,0.05 0.08,0.05 0.04,0 0.08,-0.04 0.08,-0.08 0,-0.01 -0,-0.02 -0.01,-0.03l-0.13 -0.29c0.02,-0 0.03,-0 0.05,-0.01 0,-0 0,-0 0,-0 0.18,0 0.33,0.15 0.33,0.33 0,0.18 -0.15,0.33 -0.33,0.33 -0.18,0 -0.33,-0.15 -0.33,-0.33 0,-0.1 0.05,-0.2 0.12,-0.26zm-0.29 -1.13c0,-0.09 0.07,-0.16 0.16,-0.16l0.16 0 0 0.33 -0.16 0c-0.09,-0 -0.16,-0.07 -0.16,-0.16l0 0zm0.49 2.04c-0,0 -0,0 -0,0 -0.36,0 -0.65,-0.29 -0.65,-0.65 0,-0.23 0.12,-0.44 0.32,-0.56l0.07 0.15c-0.14,0.09 -0.23,0.25 -0.23,0.42 0,0.27 0.22,0.5 0.5,0.5 0.27,0 0.5,-0.22 0.5,-0.5 0,-0.27 -0.22,-0.5 -0.5,-0.5 -0.04,0 -0.08,0.01 -0.12,0.02l-0.07 -0.15c0.06,-0.02 0.12,-0.03 0.19,-0.03 0.36,0 0.65,0.29 0.65,0.65 0,0.36 -0.29,0.65 -0.65,0.65 0,0 -0,0 -0,0l0 0z"/>
 </g>
</svg>
