<?xml version="1.0" encoding="UTF-8"?>
<!DOCTYPE svg PUBLIC "-//W3C//DTD SVG 1.1//EN" "http://www.w3.org/Graphics/SVG/1.1/DTD/svg11.dtd">
<!-- Creator: CorelDRAW -->
<svg xmlns="http://www.w3.org/2000/svg" xml:space="preserve" width="8.4368mm" height="2.474mm" version="1.1" style="shape-rendering:geometricPrecision; text-rendering:geometricPrecision; image-rendering:optimizeQuality; fill-rule:evenodd; clip-rule:evenodd"
viewBox="0 0 14.66 4.3"
 xmlns:xlink="http://www.w3.org/1999/xlink"
 xmlns:xodm="http://www.corel.com/coreldraw/odm/2003">
 <defs>
  <style type="text/css">
   <![CDATA[
    .fil0 {fill:black;fill-rule:nonzero}
   ]]>
  </style>
 </defs>
 <g id="Layer_x0020_1">
  <metadata id="CorelCorpID_0Corel-Layer"/>
  <path class="fil0" d="M0.15 0.76l5.97 -0.71c0.18,-0.02 0.36,-0.03 0.54,-0.04 0.02,-0 0.03,-0 0.05,-0 0.72,-0.03 1.43,0.06 2.12,0.25l4.32 1.21c0.9,0.25 1.51,1 1.51,1.87 0,0.04 -0.02,0.08 -0.05,0.11 -0.03,0.03 -0.07,0.04 -0.12,0.04l-1.9 0c-0.25,0.48 -0.78,0.81 -1.39,0.81 -0.61,0 -1.14,-0.33 -1.39,-0.81l-5.68 0c-0.25,0.48 -0.78,0.81 -1.39,0.81 -0.61,0 -1.14,-0.33 -1.39,-0.81l-0.03 0c-0.35,0 -0.65,-0.22 -0.74,-0.53l-0.56 -2.01c-0.01,-0.04 -0,-0.09 0.02,-0.12 0.03,-0.04 0.07,-0.06 0.12,-0.07zm4.09 -0.18c0.64,0.25 1.3,0.43 1.97,0.55 0.06,-0.27 0.14,-0.54 0.24,-0.8 -0.1,0.01 -0.19,0.01 -0.29,0.02l-1.92 0.23zm4.49 -0.03c-0.63,-0.18 -1.27,-0.26 -1.92,-0.24 -0.12,0.28 -0.21,0.58 -0.28,0.87 1.26,0.18 2.55,0.12 3.81,-0.18l-1.61 -0.45zm5.58 2.64c-0.07,-0.66 -0.56,-1.23 -1.26,-1.42l-2.12 -0.59c-0.2,0.06 -0.4,0.11 -0.6,0.15 0.06,0.09 0.12,0.18 0.18,0.27 0.21,-0.1 0.44,-0.15 0.69,-0.15 0.86,0 1.56,0.64 1.56,1.43 0,0.11 -0.02,0.22 -0.04,0.32l1.61 0 0 0zm-3.12 0.81c0.67,0 1.22,-0.51 1.22,-1.13 0,-0.62 -0.55,-1.13 -1.22,-1.13 -0.67,0 -1.22,0.51 -1.22,1.13 0,0.62 0.55,1.13 1.22,1.13zm-0.97 -2.24c-0.08,-0.12 -0.16,-0.24 -0.24,-0.36 -0.67,0.13 -1.35,0.2 -2.02,0.2 -0.5,0 -0.99,-0.04 -1.49,-0.11 -0.09,0.56 -0.09,1.14 0,1.71l3.2 0c-0.03,-0.1 -0.04,-0.21 -0.04,-0.32 -0,-0.45 0.23,-0.85 0.59,-1.11zm-7.5 2.24c0.67,0 1.22,-0.51 1.22,-1.13 0,-0.62 -0.55,-1.13 -1.22,-1.13 -0.67,0 -1.22,0.51 -1.22,1.13 0,0.62 0.55,1.13 1.22,1.13zm-1.84 -1.1c0.04,0.15 0.17,0.25 0.32,0.28 -0.02,-0.1 -0.04,-0.2 -0.04,-0.3 0,-0.79 0.7,-1.43 1.56,-1.43 0.86,0 1.56,0.64 1.56,1.43 0,0.11 -0.02,0.22 -0.04,0.32l1.91 0c-0.09,-0.59 -0.09,-1.18 0,-1.76 -0.87,-0.15 -1.73,-0.41 -2.54,-0.77l-3.23 0.39 0.06 0.23 0.39 0c0.09,0 0.17,0.07 0.17,0.15 0,0.08 -0.07,0.15 -0.17,0.15l-0.3 0 0.02 0.08 0.39 0c0.09,0 0.17,0.07 0.17,0.15 0,0.08 -0.07,0.15 -0.17,0.15l-0.3 0 0.02 0.08 0.39 0c0.09,0 0.17,0.07 0.17,0.15 0,0.08 -0.07,0.15 -0.17,0.15l-0.3 0 0.15 0.54z"/>
  <path class="fil0" d="M7.38 2.16l-0.66 0c-0.09,0 -0.17,-0.07 -0.17,-0.15 0,-0.08 0.07,-0.15 0.17,-0.15l0.66 0c0.09,0 0.17,0.07 0.17,0.15 0,0.08 -0.08,0.15 -0.17,0.15z"/>
  <path class="fil0" d="M2.73 2.3c0.34,0 0.61,0.25 0.61,0.56 0,0.31 -0.27,0.56 -0.61,0.56 -0.34,0 -0.61,-0.25 -0.61,-0.56 0,-0.31 0.27,-0.56 0.61,-0.56zm0 0.82c0.15,0 0.28,-0.11 0.28,-0.26 0,-0.14 -0.12,-0.26 -0.28,-0.26 -0.15,0 -0.28,0.11 -0.28,0.26 -0,0.14 0.12,0.26 0.28,0.26z"/>
  <path class="fil0" d="M11.2 2.3c0.34,0 0.61,0.25 0.61,0.56 0,0.31 -0.27,0.56 -0.61,0.56 -0.34,0 -0.61,-0.25 -0.61,-0.56 0,-0.31 0.27,-0.56 0.61,-0.56zm0 0.82c0.15,0 0.28,-0.11 0.28,-0.26 0,-0.14 -0.12,-0.26 -0.28,-0.26 -0.15,0 -0.28,0.11 -0.28,0.26 0,0.14 0.12,0.26 0.28,0.26z"/>
 </g>
</svg>
