<?xml version="1.0" encoding="UTF-8"?>
<!DOCTYPE svg PUBLIC "-//W3C//DTD SVG 1.1//EN" "http://www.w3.org/Graphics/SVG/1.1/DTD/svg11.dtd">
<!-- Creator: CorelDRAW -->
<svg xmlns="http://www.w3.org/2000/svg" xml:space="preserve" width="4.658mm" height="2.7956mm" version="1.1" style="shape-rendering:geometricPrecision; text-rendering:geometricPrecision; image-rendering:optimizeQuality; fill-rule:evenodd; clip-rule:evenodd"
viewBox="0 0 3.86 2.32"
 xmlns:xlink="http://www.w3.org/1999/xlink"
 xmlns:xodm="http://www.corel.com/coreldraw/odm/2003">
 <defs>
  <style type="text/css">
   <![CDATA[
    .fil0 {fill:black;fill-rule:nonzero}
   ]]>
  </style>
 </defs>
 <g id="Layer_x0020_1">
  <metadata id="CorelCorpID_0Corel-Layer"/>
  <path class="fil0" d="M3.21 1.03c-0.02,0 -0.04,0 -0.05,0 0.01,-0 0.01,-0.01 0.02,-0.01 0.24,-0.12 0.36,-0.12 0.36,-0.12 0,0 0,0 0,0 0.04,0 0.06,-0.03 0.06,-0.06 0,-0 -0,-0.01 -0,-0.01 -0.07,-0.47 -0.52,-0.8 -0.54,-0.81 -0.01,-0.01 -0.02,-0.01 -0.04,-0.01 -0.01,0 -0.03,0 -0.04,0.01l-0.08 0.05c-0.05,0.04 -0.09,0.1 -0.09,0.16 0,0.03 0.01,0.07 0.03,0.1 0.03,0.05 0.06,0.11 0.08,0.16 -0.11,-0.06 -0.33,-0.19 -0.52,-0.28 -0.29,-0.15 -0.64,-0 -0.78,0.14l-0.11 0.11 -0.23 0c-0,0 -0,0 -0,0 -0.03,0 -0.06,-0.01 -0.09,-0.02l-0.28 -0.14c-0.04,-0.02 -0.09,-0.03 -0.14,-0.03 -0,0 -0,0 -0,0l-0.25 0c-0,0 -0,0 -0,0 -0.07,0 -0.14,0.04 -0.17,0.11l-0.03 0.06c-0,0.01 -0.01,0.02 -0.01,0.03 0,0.02 0.01,0.04 0.03,0.05l0.77 0.59 -0.08 0.07c-0.11,-0.09 -0.25,-0.13 -0.39,-0.13 -0.35,0 -0.64,0.29 -0.64,0.64 0,0.35 0.29,0.64 0.64,0.64 0.35,0 0.64,-0.29 0.64,-0.64 0,-0 0,-0 0,-0 0,-0.01 -0,-0.02 -0,-0.02l0.17 -0.04 -0.11 0.3c-0,0.01 -0,0.01 -0,0.02 0,0.04 0.03,0.06 0.06,0.06 0,0 0,0 0,0l1.22 0c0.01,-0 0.01,-0 0.02,-0 0.11,0.2 0.33,0.33 0.56,0.33 0.36,0 0.64,-0.29 0.64,-0.64 0,-0.36 -0.29,-0.64 -0.64,-0.64 0,0 -0,0 -0,0zm-1.5 -0.6c0.12,-0.12 0.41,-0.23 0.63,-0.12 0.16,0.08 0.35,0.19 0.47,0.26l-0.69 0.2 -0.48 -0.27 0.07 -0.07zm0.15 0.7l-0.62 -0.1 -0.62 -0.48 0.08 0.01c0.03,0 0.05,0.01 0.07,0.03l0.38 0.24c0.05,0.03 0.11,0.05 0.17,0.05 0,0 0,0 0,0 0.02,0 0.05,-0 0.07,-0.01l0.46 -0.11 0.17 0.09 -0.17 0.28zm-1.09 -0.75c0,0 0,0 0,0 0.03,0 0.06,0.01 0.09,0.02l0.28 0.14c0.04,0.02 0.09,0.03 0.14,0.03 0,0 0,0 0,0l0.24 0 0.17 0.1 -0.32 0.08c-0.01,0 -0.03,0 -0.04,0 -0.04,0 -0.07,-0.01 -0.1,-0.03l-0.38 -0.24c-0.04,-0.02 -0.08,-0.04 -0.12,-0.04l-0.24 -0.04c0.01,-0.01 0.03,-0.02 0.04,-0.02l0.25 -0zm-0.13 1.8c-0,-0 -0,-0 -0,-0 -0.28,0 -0.51,-0.23 -0.51,-0.51 0,-0.28 0.23,-0.51 0.51,-0.51 0.1,0 0.2,0.03 0.29,0.09l-0.11 0.09c-0.05,-0.03 -0.12,-0.04 -0.18,-0.04 0,0 -0,0 -0,0 -0.21,0 -0.39,0.17 -0.39,0.39 0,0.21 0.17,0.39 0.39,0.39 0.2,0 0.37,-0.15 0.38,-0.35l0.13 -0.03c-0,0.28 -0.23,0.51 -0.51,0.51l0 0zm0.01 -0.4c0.01,-0 0.02,-0 0.03,-0l0.21 -0.05c-0.03,0.11 -0.13,0.19 -0.25,0.19 -0.14,0 -0.26,-0.11 -0.26,-0.26 0,-0.14 0.11,-0.26 0.26,-0.26 0,0 0,0 0,0 0.02,0 0.04,0 0.06,0.01l-0.14 0.11c-0.03,0.03 -0.05,0.07 -0.05,0.11 0,0.08 0.06,0.14 0.14,0.14l0 0zm0 -0.13c-0.01,-0 -0.01,-0.01 -0.01,-0.01 0,-0 0,-0.01 0,-0.01l0.59 -0.47 0.56 0.09 -0.1 0.17 -1.04 0.24zm0.85 0.21l0.1 -0.29 0.14 -0.03c0.02,-0 0.03,-0.01 0.04,-0.03l0.37 -0.62 0.88 -0.25c0.03,-0.01 0.05,-0.03 0.05,-0.06 0,-0.01 -0,-0.01 -0,-0.02 -0.03,-0.11 -0.07,-0.21 -0.13,-0.31 -0.01,-0.01 -0.01,-0.02 -0.01,-0.03 0,-0.02 0.01,-0.04 0.03,-0.05l0.04 -0.03c0.1,0.08 0.37,0.32 0.44,0.64 -0.12,0.03 -0.23,0.07 -0.34,0.13 -0.34,0.17 -0.53,0.51 -0.55,0.96l-1.07 0zm1.71 0.32c-0,-0 -0,-0 -0,-0 -0.25,0 -0.46,-0.18 -0.5,-0.42 0.01,-0.17 0.07,-0.33 0.16,-0.47 0.03,-0.02 0.06,-0.05 0.09,-0.06l0.05 0.12c-0.11,0.07 -0.18,0.2 -0.18,0.33 0,0.21 0.17,0.39 0.39,0.39 0.21,0 0.39,-0.17 0.39,-0.39 0,-0.21 -0.17,-0.39 -0.39,-0.39 -0.03,0 -0.06,0 -0.09,0.01l-0.05 -0.12c0.04,-0.01 0.09,-0.02 0.14,-0.02 0.28,0 0.51,0.23 0.51,0.51 0,0.28 -0.23,0.51 -0.51,0.51 -0,0 -0,0 -0,0l0 0zm-0.06 -0.49c0.01,0.02 0.03,0.04 0.06,0.04 0,0 0,0 0,0 0,0 0,0 0,0 0.01,0 0.02,-0 0.02,-0 0.02,-0.01 0.04,-0.03 0.04,-0.06 0,-0.01 -0,-0.02 -0,-0.02l-0.1 -0.23c0.01,-0 0.02,-0 0.04,-0 0,-0 0,-0 0,-0 0.14,0 0.26,0.12 0.26,0.26 0,0.14 -0.12,0.26 -0.26,0.26 -0.14,0 -0.26,-0.12 -0.26,-0.26 0,-0.08 0.04,-0.16 0.1,-0.21l0.1 0.23zm-0.39 -0.75c0,0.01 0,0.01 0,0.02 0,0.03 -0.02,0.05 -0.04,0.06l-0.26 0.09c-0.01,0 -0.01,0 -0.02,0 0,0 -0,0 -0,0 -0.04,0 -0.06,-0.03 -0.06,-0.06 0,-0.03 0.02,-0.05 0.04,-0.06l0.26 -0.09c0.01,-0 0.01,-0 0.02,-0 0.03,0 0.05,0.02 0.06,0.04z"/>
 </g>
</svg>
