<?xml version="1.0" encoding="UTF-8"?>
<!DOCTYPE svg PUBLIC "-//W3C//DTD SVG 1.1//EN" "http://www.w3.org/Graphics/SVG/1.1/DTD/svg11.dtd">
<!-- Creator: CorelDRAW -->
<svg xmlns="http://www.w3.org/2000/svg" xml:space="preserve" width="25px" height="29px" version="1.1" style="shape-rendering:geometricPrecision; text-rendering:geometricPrecision; image-rendering:optimizeQuality; fill-rule:evenodd; clip-rule:evenodd"
viewBox="0 0 0.53 0.26"
 xmlns:xlink="http://www.w3.org/1999/xlink"
 xmlns:xodm="http://www.corel.com/coreldraw/odm/2003">
 <defs>
  <style type="text/css">
   <![CDATA[
    .fil0 {fill:black;fill-rule:nonzero}
   ]]>
  </style>
 </defs>
 <g id="Layer_x0020_1">
  <metadata id="CorelCorpID_0Corel-Layer"/>
  <path class="fil0" d="M0.53 0.17l-0.03 -0.06c-0.01,-0.01 -0.02,-0.01 -0.02,-0.01l-0.01 0 -0.08 -0.08c0,0 0,0 0,0 0,0 -0.03,-0.02 -0.1,-0.02l-0.28 0c-0.01,0 -0.01,0 -0.01,0 0,0 0,0.01 0,0.01 0,0 0.01,0.01 0.02,0.02 -0.01,0 -0.01,0.03 -0.02,0.07l0 0c0,0.02 0,0.04 0,0.06l0 0c0,0.01 0,0.02 0,0.04 0,0.01 0.01,0.02 0.02,0.02l0.03 0c0.01,0.02 0.03,0.04 0.05,0.04 0.03,0 0.05,-0.02 0.05,-0.04l0.26 0c0,0.02 0.02,0.04 0.05,0.04 0.02,0 0.05,-0.02 0.05,-0.04l0.01 0c0.01,0 0.01,0 0.01,-0.01l0 -0.04c0,0 0,0 0,0l0 0zm-0.03 -0.04l0.01 0.02 -0.01 0 -0.01 -0.02 0.01 0zm-0.49 0.03c0,-0.01 0,-0.02 0,-0.03 0,-0.01 0,-0.02 0,-0.02l0.01 0 0 0.05 -0.01 0 0 0zm0.09 0.09c-0.02,0 -0.04,-0.01 -0.04,-0.04 0,-0.02 0.02,-0.03 0.04,-0.03 0.02,0 0.04,0.01 0.04,0.03 0,0.03 -0.02,0.04 -0.04,0.04zm0.36 0c-0.02,0 -0.04,-0.01 -0.04,-0.04 0,-0.05 0.08,-0.05 0.08,0 0,0.03 -0.02,0.04 -0.04,0.04l0 0zm0.06 -0.04c0,0 0,0 0,0l-0.01 0c0,0 0,-0.01 0,-0.01 0,0 0,0 0,0 -0.01,-0.01 -0.01,-0.01 -0.01,-0.02 -0.02,-0.02 -0.06,-0.02 -0.08,0 0,0.01 -0.01,0.01 -0.01,0.02 0,0 0,0 0,0 0,0 0,0.01 0,0.01l-0.26 0c0,0 0,-0.01 0,-0.01 0,0 0,0 0,0 0,-0.01 -0.01,-0.01 -0.01,-0.02 -0.02,-0.02 -0.06,-0.02 -0.08,0 0,0.01 0,0.01 -0.01,0.02 0,0 0,0 0,0 0,0 0,0.01 0,0.01l-0.03 0c-0.01,0 -0.01,-0.01 -0.01,-0.01 0,-0.01 0,-0.02 0,-0.03l0.01 0c0.01,0 0.01,0 0.01,-0.01l0 -0.06c0,0 0,0 -0.01,0l-0.01 0c0.01,-0.06 0.02,-0.07 0.02,-0.07 0,-0.01 0,-0.01 0,-0.01 0,0 -0.01,0 -0.01,0 0,0 0,-0.01 -0.01,-0.01l0.28 0c0.07,0 0.09,0.01 0.1,0.02l0.07 0.08c0.01,0 0.01,0 0.01,0l0.01 0c0,0 0,0 0.01,0l0 0.01 0 0c-0.01,0 -0.01,0 -0.01,0 0,0.01 0,0.01 0,0.01l0.01 0.03c0,0 0,0 0,0l0.03 0 0 0.01c0,0 0,0 0,0l0 0.04 0 0zm-0.4 0c0,0.01 -0.01,0.02 -0.02,0.02 -0.01,0 -0.01,-0.01 -0.01,-0.02 0,0 0,-0.01 0.01,-0.01 0.01,0 0.02,0.01 0.02,0.01zm0.35 0c0,0.01 0,0.02 -0.01,0.02 -0.01,0 -0.01,-0.01 -0.01,-0.02 0,0 0,-0.01 0.01,-0.01 0.01,0 0.01,0.01 0.01,0.01zm-0.08 -0.17c-0.01,-0.01 -0.02,-0.01 -0.03,-0.02l-0.05 0c0,0 0,0 0,0 0,0 0,0 0,0l0.01 0.05c0,0.02 0.02,0.03 0.03,0.03l0.08 0c0.01,0 0.01,0 0.01,-0.01 0,0 0,0 0,0l-0.05 -0.05 0 0zm-0.04 0.05c-0.01,0 -0.02,-0.01 -0.02,-0.02l-0.01 -0.04 0.03 0c0.01,0.01 0.02,0.01 0.03,0.02l0.04 0.04 -0.07 0 0 0zm-0.07 -0.06l-0.23 0c-0.01,0 -0.02,0 -0.02,0.01l0 0.04c0,0 0.01,0.01 0.02,0.01l0.23 0c0,0 0.01,-0.01 0.01,-0.01l0 -0.04c0,-0.01 -0.01,-0.01 -0.01,-0.01l0 0zm-0.23 0.05l0 -0.04c0,0 0,0 0,0l0.11 0 0 0.04 -0.11 0c0,0 0,0 0,0l0 0zm0.23 0c0,0 0,0 0,0l-0.11 0 0 -0.04 0.11 0c0,0 0,0 0,0l0 0.04z"/>
 </g>
</svg>
