<?xml version="1.0" encoding="UTF-8"?>
<!DOCTYPE svg PUBLIC "-//W3C//DTD SVG 1.1//EN" "http://www.w3.org/Graphics/SVG/1.1/DTD/svg11.dtd">
<!-- Creator: CorelDRAW -->
<svg xmlns="http://www.w3.org/2000/svg" xml:space="preserve" width="6.2538mm" height="4.0278mm" version="1.1" style="shape-rendering:geometricPrecision; text-rendering:geometricPrecision; image-rendering:optimizeQuality; fill-rule:evenodd; clip-rule:evenodd"
viewBox="0 0.5 6.42 4.25"
 xmlns:xlink="http://www.w3.org/1999/xlink"
 xmlns:xodm="http://www.corel.com/coreldraw/odm/2003">
 <defs>
  <style type="text/css">
   <![CDATA[
    .fil0 {fill:black;fill-rule:nonzero}
   ]]>
  </style>
 </defs>
 <g id="Layer_x0020_1">
  <metadata id="CorelCorpID_0Corel-Layer"/>
  <path class="fil0" d="M0.01 4.04l0.32 -0.66c0,0 0,0 0,0l0.12 -0.24c0.07,-0.14 0.22,-0.23 0.4,-0.23l0.12 0 0.08 -0.14c-0.08,-0.12 -0.21,-0.17 -0.31,-0.2 -0.14,-0.04 -0.24,-0.15 -0.24,-0.27 0,-0.04 0.03,-0.07 0.08,-0.07l0.52 0c0.04,0 0.08,0.03 0.08,0.07 0,0.04 -0.03,0.07 -0.08,0.07l-0.42 0c0.02,0.04 0.06,0.07 0.11,0.08 0.1,0.03 0.24,0.08 0.34,0.19l0.2 -0.36 0.24 -0.42c0.06,-0.11 0.2,-0.18 0.34,-0.18l0.66 0 0 -0.1c0,-0.05 -0.05,-0.09 -0.1,-0.09l-0.36 0c-0.04,0 -0.08,0.02 -0.09,0.05 -0.02,0.03 -0.06,0.05 -0.1,0.04 -0.04,-0.01 -0.06,-0.05 -0.04,-0.09 0.04,-0.08 0.13,-0.13 0.24,-0.13l0.1 0 0 -0.58c0,-0.04 0.03,-0.07 0.08,-0.07 0.04,0 0.08,0.03 0.08,0.07l0 0.58 0.1 0c0.14,0 0.26,0.1 0.26,0.22l0 0.1 0.31 0c0.16,0 0.32,0.07 0.41,0.18l0.33 0.39 0.33 0c0.14,0 0.27,0.05 0.37,0.13l0.61 0.54 1.25 0c0.04,0 0.07,0.02 0.08,0.05 0.01,0.03 -0.01,0.06 -0.05,0.08 -0.57,0.21 -1.01,0.64 -1.22,0.88 -0.12,0.14 -0.31,0.22 -0.51,0.22l-4.56 0c-0.03,0 -0.05,-0.01 -0.07,-0.03 -0.01,-0.02 -0.02,-0.04 -0.01,-0.06zm3.32 -2.12c-0.07,-0.08 -0.17,-0.12 -0.28,-0.12l-1.13 0c-0.08,0 -0.16,0.04 -0.2,0.11l-0.18 0.32 0.76 0 0 -0.08c0,-0.14 0.13,-0.25 0.29,-0.25l0.57 0c0.04,0 0.08,0.03 0.08,0.07 0,0.04 -0.03,0.07 -0.08,0.07l-0.57 0c-0.07,0 -0.13,0.05 -0.13,0.11l0 0.08 1.14 0 -0.26 -0.31zm1.04 0.53c-0.07,-0.06 -0.16,-0.09 -0.25,-0.09l-2.66 0 -0.3 0.54 2.87 0 -0.07 -0.07c-0.09,-0.08 -0.21,-0.13 -0.34,-0.13l-0.12 0 0 0.08c0,0.04 -0.03,0.07 -0.08,0.07 -0.04,0 -0.08,-0.03 -0.08,-0.07l0 -0.08 -0.45 0 0 0.08c0,0.04 -0.03,0.07 -0.08,0.07 -0.04,0 -0.08,-0.03 -0.08,-0.07l0 -0.08 -0.45 0 0 0.08c0,0.04 -0.03,0.07 -0.08,0.07 -0.04,0 -0.08,-0.03 -0.08,-0.07l0 -0.08 -0.45 0 0 0.08c0,0.04 -0.03,0.07 -0.08,0.07 -0.04,0 -0.08,-0.03 -0.08,-0.07l0 -0.08c-0.03,-0.01 -0.06,-0.03 -0.06,-0.06 0,-0.04 0.03,-0.07 0.08,-0.07l2.08 0c0.18,0 0.34,0.06 0.46,0.18l0.17 0.16 0.65 0 -0.51 -0.45zm0.28 1.54c0.15,0 0.29,-0.06 0.38,-0.16 0.09,-0.1 0.21,-0.23 0.36,-0.36l-2.15 0c-0.04,0 -0.08,-0.03 -0.08,-0.07 0,-0.04 0.03,-0.07 0.08,-0.07l2.31 0c0.14,-0.1 0.29,-0.21 0.46,-0.29l-5.16 0c-0.11,0 -0.21,0.06 -0.25,0.15l-0.07 0.15 1.82 0c0.04,0 0.08,0.03 0.08,0.07 0,0.04 -0.03,0.07 -0.08,0.07l-1.88 0 -0.26 0.53 4.44 0z"/>
  <path class="fil0" d="M2.71 3.34l0.11 0c0.04,0 0.08,0.03 0.08,0.07 0,0.04 -0.03,0.07 -0.08,0.07l-0.11 0c-0.04,0 -0.08,-0.03 -0.08,-0.07 0,-0.04 0.04,-0.07 0.08,-0.07z"/>
  <path class="fil0" d="M1.92 1.25c-0.04,0 -0.08,-0.03 -0.08,-0.07l0 -1.11c0,-0.04 0.03,-0.07 0.08,-0.07 0.04,0 0.08,0.03 0.08,0.07l0 1.11c-0,0.04 -0.04,0.07 -0.08,0.07z"/>
 </g>
</svg>
