<?xml version="1.0" encoding="UTF-8"?>
<!DOCTYPE svg PUBLIC "-//W3C//DTD SVG 1.1//EN" "http://www.w3.org/Graphics/SVG/1.1/DTD/svg11.dtd">
<!-- Creator: CorelDRAW -->
<svg xmlns="http://www.w3.org/2000/svg" xml:space="preserve" width="20px" height="19px" version="1.1" style="shape-rendering:geometricPrecision; text-rendering:geometricPrecision; image-rendering:optimizeQuality; fill-rule:evenodd; clip-rule:evenodd"
viewBox="0 0 0.86 0.8"
 xmlns:xlink="http://www.w3.org/1999/xlink"
 xmlns:xodm="http://www.corel.com/coreldraw/odm/2003">
 <defs>
  <style type="text/css">
   <![CDATA[
    .fil0 {fill:#848688}
    .fil1 {fill:#848688;fill-rule:nonzero}
   ]]>
  </style>
 </defs>
 <g id="Layer_x0020_1">
  <metadata id="CorelCorpID_0Corel-Layer"/>
  <g id="_1442113165744">
   <path class="fil0" d="M0.75 0c0.06,0 0.11,0.05 0.11,0.11l0 0.21c0,0.06 -0.05,0.11 -0.11,0.11l-0.33 0 0 -0.11c0,-0.08 -0.07,-0.15 -0.15,-0.15 -0.08,0 -0.14,0.07 -0.14,0.15l0 0.11 -0.02 0c-0.06,0 -0.11,-0.05 -0.11,-0.11l0 -0.21c0,-0.06 0.05,-0.11 0.11,-0.11l0.64 0zm0 0.11c0.01,0.01 0.01,0.02 0,0.04l-0.12 0.17c-0.01,0.01 -0.02,0.01 -0.02,0.01 -0.01,0 -0.02,0 -0.03,-0.01l-0.06 -0.08c-0.01,-0.01 -0.01,-0.03 0.01,-0.04 0.01,-0.01 0.03,-0.01 0.04,0l0.03 0.05 0.11 -0.14c0.01,-0.01 0.02,-0.01 0.04,0z"/>
   <path class="fil1" d="M0.27 0.23c-0.05,0 -0.09,0.04 -0.09,0.08l0 0.26c-0.02,-0.02 -0.06,-0.05 -0.1,-0.05 -0.04,0 -0.08,0.04 -0.08,0.08 0,0.01 0,0.02 0.01,0.03l0.07 0.16c0.01,0.01 0.02,0.01 0.03,0.01l0.51 0c0.01,0 0.02,-0.01 0.02,-0.03l0 -0.1c0,-0.08 -0.05,-0.15 -0.13,-0.17l-0.15 -0.04 0 -0.15c0,-0.04 -0.04,-0.08 -0.09,-0.08z"/>
  </g>
 </g>
</svg>
