<?xml version="1.0" encoding="UTF-8"?>
<!DOCTYPE svg PUBLIC "-//W3C//DTD SVG 1.1//EN" "http://www.w3.org/Graphics/SVG/1.1/DTD/svg11.dtd">
<!-- Creator: CorelDRAW -->
<svg xmlns="http://www.w3.org/2000/svg" xml:space="preserve" width="20px" height="15px" version="1.1" style="shape-rendering:geometricPrecision; text-rendering:geometricPrecision; image-rendering:optimizeQuality; fill-rule:evenodd; clip-rule:evenodd"
viewBox="0 0 2.29 1.68"
 xmlns:xlink="http://www.w3.org/1999/xlink"
 xmlns:xodm="http://www.corel.com/coreldraw/odm/2003">
 <defs>
  <style type="text/css">
   <![CDATA[
    .fil0 {fill:#606062;fill-rule:nonzero}
   ]]>
  </style>
 </defs>
 <g id="Layer_x0020_1">
  <metadata id="CorelCorpID_0Corel-Layer"/>
  <g id="_2279711612800">
   <path class="fil0" d="M1.53 1.06c-0.09,-0.12 -0.23,-0.2 -0.39,-0.2 -0.15,0 -0.29,0.08 -0.39,0.2 0.19,0.09 0.32,0.29 0.32,0.51l0 0.11 0.15 0 0 -0.11c0,-0.22 0.13,-0.42 0.31,-0.51z"/>
   <path class="fil0" d="M0.99 1.57c0,-0.27 -0.22,-0.49 -0.5,-0.49 -0.27,0 -0.49,0.22 -0.49,0.49l0 0.11 0.99 0 0 -0.11z"/>
   <path class="fil0" d="M1.8 1.08c-0.28,0 -0.5,0.22 -0.5,0.49l0 0.11 0.99 0 0 -0.11c0,-0.27 -0.22,-0.49 -0.49,-0.49z"/>
   <path class="fil0" d="M0.49 0.98c0.19,0 0.34,-0.15 0.34,-0.34 0,-0.18 -0.15,-0.33 -0.34,-0.33 -0.18,0 -0.33,0.15 -0.33,0.33 0,0.19 0.15,0.34 0.33,0.34z"/>
   <path class="fil0" d="M1.8 0.98c0.18,0 0.33,-0.15 0.33,-0.34 0,-0.18 -0.15,-0.33 -0.33,-0.33 -0.19,0 -0.34,0.15 -0.34,0.33 0,0.19 0.15,0.34 0.34,0.34z"/>
   <path class="fil0" d="M1.14 0.67c0.19,0 0.34,-0.15 0.34,-0.34 0,-0.18 -0.15,-0.33 -0.34,-0.33 -0.18,0 -0.33,0.15 -0.33,0.33 0,0.19 0.15,0.34 0.33,0.34z"/>
  </g>
 </g>
</svg>
