<?xml version="1.0" encoding="UTF-8"?>
<!DOCTYPE svg PUBLIC "-//W3C//DTD SVG 1.1//EN" "http://www.w3.org/Graphics/SVG/1.1/DTD/svg11.dtd">
<!-- Creator: CorelDRAW -->
<svg xmlns="http://www.w3.org/2000/svg" xml:space="preserve" width="20px" height="27px" version="1.1" style="shape-rendering:geometricPrecision; text-rendering:geometricPrecision; image-rendering:optimizeQuality; fill-rule:evenodd; clip-rule:evenodd"
viewBox="0 0 0.32 0.43"
 xmlns:xlink="http://www.w3.org/1999/xlink"
 xmlns:xodm="http://www.corel.com/coreldraw/odm/2003">
 <defs>
  <style type="text/css">
   <![CDATA[
    .fil0 {fill:black;fill-rule:nonzero}
   ]]>
  </style>
 </defs>
 <g id="Layer_x0020_1">
  <metadata id="CorelCorpID_0Corel-Layer"/>
  <g id="_2641024099216">
   <path class="fil0" d="M0.27 0.06c0,0 0,0 0,0 0,0 0,-0.01 0,-0.01 -0.01,-0.01 -0.04,-0.05 -0.11,-0.05 -0.06,0 -0.09,0.04 -0.1,0.05 0,0 -0.01,0.01 -0.01,0.01 0,0 0,0 0,0 0,0.02 0.02,0.03 0.03,0.03 0,-0.01 0.01,-0.02 0.02,-0.02l0.12 0c0.02,0 0.03,0.01 0.03,0.02 0.01,0 0.02,-0.01 0.02,-0.03zm-0.09 -0.01c0,0.01 -0.01,0.01 -0.02,0.01 0,0 0,0 0,0 0,0 0,0 0,0 -0.01,0 -0.02,0 -0.02,-0.01 0,0 0,0 0,0 0,-0.01 0,-0.01 0.01,-0.01 0,0 0,0 0,0 0,0 0,0 0,0l0 -0.01c0,0 0,-0.01 0,-0.01 0,0 0,-0.01 0,-0.01 0.01,0 0.01,0 0.01,0 0.01,0 0.01,0 0.01,0 0,0 0.01,0.01 0.01,0.01 0,0 -0.01,0.01 -0.01,0.01l0 0.01c0,0 0,0 0,0 0,0 0,0 0.01,0 0,0 0.01,0 0.01,0.01 0,0 -0.01,0 -0.01,0l0 0z"/>
   <path class="fil0" d="M0.18 0.4l-0.01 -0.08 -0.02 0 -0.01 0.08c0.01,0.01 0.01,0.02 0.02,0.03 0.01,-0.01 0.02,-0.02 0.02,-0.03l0 0z"/>
   <path class="fil0" d="M0.23 0.09c0,0 0,-0.01 -0.01,-0.01l-0.12 0c0,0 -0.01,0.01 -0.01,0.01l0 0.01 0.14 0 0 -0.01z"/>
   <path class="fil0" d="M0.19 0.24l0 -0.01c-0.01,0 -0.02,0 -0.03,0 -0.01,0 -0.02,0 -0.03,0l0 0.01c0.01,0.01 0.02,0.02 0.03,0.03 0.02,-0.01 0.03,-0.02 0.03,-0.03l0 0z"/>
   <path class="fil0" d="M0.16 0.14c0.04,0 0.06,-0.01 0.07,-0.02l-0.13 0c0,0.01 0.02,0.02 0.06,0.02z"/>
   <path class="fil0" d="M0.01 0.43l0.13 0 -0.09 -0.09c0,0 0,-0.01 0,-0.01 0,0 0,-0.01 0,-0.01l0.01 -0.01 -0.02 0c0,0 -0.01,-0.01 -0.01,-0.01 0,-0.01 0,-0.01 0,-0.01l0.01 -0.02c-0.02,0.01 -0.04,0.04 -0.04,0.07l0 0.08c0,0.01 0,0.01 0.01,0.01l0 0z"/>
   <path class="fil0" d="M0.19 0.29c0,0 0.01,0 0.01,0 0,0 0,0 0,0 0,0 0,0 0,0 0.01,-0.01 0.02,-0.02 0.03,-0.04l-0.02 0c-0.01,0.01 -0.02,0.02 -0.03,0.03 0,0 0.01,0.01 0.01,0.01l0 0z"/>
   <path class="fil0" d="M0.22 0.16c0,-0.01 0.01,-0.01 0.02,-0.01 0,-0.01 0.01,-0.01 0.01,-0.02 0,0 0,0 0,0 0,0 0,-0.01 -0.01,-0.01 -0.01,0.01 -0.03,0.03 -0.08,0.03 -0.05,0 -0.07,-0.02 -0.08,-0.03 0,0 0,0.01 0,0.01 0,0 0,0 0,0 0,0.01 0,0.01 0.01,0.02 0.01,0 0.01,0 0.01,0.01 0,0.03 0.03,0.06 0.06,0.06 0.03,0 0.06,-0.03 0.06,-0.06l0 0z"/>
   <path class="fil0" d="M0.25 0.3l0.03 0 -0.01 -0.04c-0.01,0 -0.01,0 -0.02,0l-0.01 -0.01c0,0.05 -0.02,0.1 -0.04,0.14l0.06 -0.06 -0.01 -0.02c0,0 0,0 0,0 0,0 0,-0.01 0,-0.01l0 0z"/>
   <path class="fil0" d="M0.22 0.29c0,0.01 -0.01,0.01 -0.01,0.01 0,0.01 -0.01,0.01 -0.01,0.01 0,0 0,0 -0.01,0 0,0 0,0 0,0l0 0.01 0 0.05c0.01,-0.02 0.02,-0.05 0.03,-0.08l0 0z"/>
   <path class="fil0" d="M0.12 0.25l-0.02 0c0,0.02 0.01,0.03 0.03,0.04 0,0 0,0 0,0 0,0 0,0 0,0 0,0 0,0 0,0 0,0 0.01,-0.01 0.02,-0.01 -0.02,-0.01 -0.02,-0.02 -0.03,-0.03l0 0z"/>
   <path class="fil0" d="M0.14 0.32l0 -0.01c-0.01,0 -0.01,0 -0.01,0 0,0 0,0 0,0 -0.01,0 -0.01,0 -0.02,-0.01 0,0 0,0 -0.01,-0.01 0.01,0.03 0.02,0.06 0.03,0.08l0.01 -0.05z"/>
   <path class="fil0" d="M0.15 0.3l0 0.01 0.02 0 0.01 -0.01c-0.01,-0.01 -0.01,-0.01 -0.02,-0.01 0,0 -0.01,0 -0.01,0.01l0 0z"/>
   <path class="fil0" d="M0.06 0.33l0.06 0.06c-0.02,-0.04 -0.03,-0.09 -0.04,-0.14l-0.01 0.01c0,0 -0.01,0 -0.01,0l-0.01 0.04 0.02 0c0,0 0.01,0.01 0.01,0.01 0,0 0,0 0,0l-0.02 0.02z"/>
   <path class="fil0" d="M0.32 0.42l0 -0.08c0,-0.03 -0.01,-0.06 -0.04,-0.07l0.01 0.02c0,0 0,0 0,0.01 0,0 0,0.01 -0.01,0.01l-0.01 0 0 0.01c0,0 0.01,0.01 0.01,0.01 0,0 -0.01,0.01 -0.01,0.01l-0.09 0.09 0.14 0c0,0 0,0 0,-0.01l0 0z"/>
  </g>
 </g>
</svg>
