<?xml version="1.0" encoding="UTF-8"?>
<!DOCTYPE svg PUBLIC "-//W3C//DTD SVG 1.1//EN" "http://www.w3.org/Graphics/SVG/1.1/DTD/svg11.dtd">
<!-- Creator: CorelDRAW -->
<svg xmlns="http://www.w3.org/2000/svg" xml:space="preserve" width="20px" height="15px" version="1.1" style="shape-rendering:geometricPrecision; text-rendering:geometricPrecision; image-rendering:optimizeQuality; fill-rule:evenodd; clip-rule:evenodd"
viewBox="0 0 1.2 0.87"
 xmlns:xlink="http://www.w3.org/1999/xlink"
 xmlns:xodm="http://www.corel.com/coreldraw/odm/2003">
 <defs>
  <style type="text/css">
   <![CDATA[
    .fil0 {fill:#606062}
   ]]>
  </style>
 </defs>
 <g id="Layer_x0020_1">
  <metadata id="CorelCorpID_0Corel-Layer"/>
  <path class="fil0" d="M0.59 0.6c0.26,-0.13 0.41,-0.08 0.54,0.02 -0.1,-0.22 -0.34,-0.25 -0.56,-0.11 -0.19,0.13 -0.38,0.22 -0.57,0.11 0.14,0.15 0.36,0.1 0.59,-0.02zm0.08 0.2c0.28,-0.1 0.4,-0.03 0.53,0.07 -0.07,-0.24 -0.33,-0.3 -0.57,-0.18 -0.22,0.1 -0.43,0.17 -0.62,0.03 0.13,0.18 0.4,0.17 0.66,0.08l0 0zm-0.01 -0.8c0.07,0 0.14,0.06 0.14,0.13 0,0.04 -0.06,0.05 -0.07,0.01 -0.01,-0.11 -0.14,-0.09 -0.14,0l0 0.31c-0.02,0.01 -0.04,0.02 -0.06,0.03l0 -0.19 -0.23 0 0 0.31c-0.02,0 -0.03,0.01 -0.05,0.01l0 -0.48c0,-0.17 0.25,-0.17 0.26,0 0,0.04 -0.06,0.05 -0.06,0.01 -0.01,-0.11 -0.15,-0.09 -0.15,0l0 0.09 0.23 0c0,-0.08 -0.01,-0.23 0.13,-0.23l0 0z"/>
 </g>
</svg>
