<?xml version="1.0" encoding="UTF-8"?>
<!DOCTYPE svg PUBLIC "-//W3C//DTD SVG 1.1//EN" "http://www.w3.org/Graphics/SVG/1.1/DTD/svg11.dtd">
<!-- Creator: CorelDRAW -->
<svg xmlns="http://www.w3.org/2000/svg" xml:space="preserve" width="20px" height="15px" version="1.1" style="shape-rendering:geometricPrecision; text-rendering:geometricPrecision; image-rendering:optimizeQuality; fill-rule:evenodd; clip-rule:evenodd"
viewBox="0 0 1.32 0.98"
 xmlns:xlink="http://www.w3.org/1999/xlink"
 xmlns:xodm="http://www.corel.com/coreldraw/odm/2003">
 <defs>
  <style type="text/css">
   <![CDATA[
    .fil0 {fill:#848688;fill-rule:nonzero}
   ]]>
  </style>
 </defs>
 <g id="Layer_x0020_1">
  <metadata id="CorelCorpID_0Corel-Layer"/>
  <g id="_1440667332880">
   <path class="fil0" d="M0.17 0.29l0.26 0 0.07 0.07c0.01,0.01 0.03,0.01 0.04,0.01l0.21 0c0.01,0 0.03,0 0.03,-0.01l0.07 -0.07 0.26 0 -0.03 -0.06 0.12 -0.02 0 -0.08 -0.17 0 -0.03 -0.06c-0.02,-0.04 -0.07,-0.07 -0.12,-0.07l-0.48 0c-0.04,0 -0.1,0.03 -0.11,0.07l-0.04 0.06 -0.17 0 0 0.08 0.13 0.02 -0.04 0.06z"/>
   <path class="fil0" d="M1.16 0.37l-0.25 0 -0.05 0.05c-0.02,0.02 -0.06,0.04 -0.09,0.04l-0.22 0c-0.03,0 -0.07,-0.02 -0.09,-0.04l-0.05 -0.05 -0.24 0c-0.1,0 -0.17,0.08 -0.17,0.17l0 0.44 0.14 0 0.03 -0.17 0.05 0 0.04 0.04c0.01,0.01 0.03,0.02 0.04,0.02l0.72 0c0.01,0 0.03,-0.01 0.04,-0.02l0.04 -0.04 0.06 0 0.02 0.17 0.14 0 0 -0.44c0,-0.09 -0.07,-0.17 -0.16,-0.17zm-0.97 0.28c-0.03,0 -0.05,-0.02 -0.05,-0.06 0,-0.03 0.02,-0.05 0.05,-0.05 0.03,0 0.06,0.02 0.06,0.05 0,0.04 -0.03,0.06 -0.06,0.06zm0.69 0.08l-0.44 0 0 -0.11 0.44 0 0 0.11 0 0zm0.25 -0.08c-0.03,0 -0.06,-0.02 -0.06,-0.06 0,-0.03 0.03,-0.05 0.06,-0.05 0.03,0 0.05,0.02 0.05,0.05 0,0.04 -0.02,0.06 -0.05,0.06z"/>
  </g>
 </g>
</svg>
