<?xml version="1.0" encoding="UTF-8"?>
<!DOCTYPE svg PUBLIC "-//W3C//DTD SVG 1.1//EN" "http://www.w3.org/Graphics/SVG/1.1/DTD/svg11.dtd">
<!-- Creator: CorelDRAW -->
<svg xmlns="http://www.w3.org/2000/svg" xml:space="preserve" width="20px" height="21px" version="1.1" style="shape-rendering:geometricPrecision; text-rendering:geometricPrecision; image-rendering:optimizeQuality; fill-rule:evenodd; clip-rule:evenodd"
viewBox="0 0 0.72 0.76"
 xmlns:xlink="http://www.w3.org/1999/xlink"
 xmlns:xodm="http://www.corel.com/coreldraw/odm/2003">
 <defs>
  <style type="text/css">
   <![CDATA[
    .fil0 {fill:#606062;fill-rule:nonzero}
   ]]>
  </style>
 </defs>
 <g id="Layer_x0020_1">
  <metadata id="CorelCorpID_0Corel-Layer"/>
  <g id="_2640321620976">
   <path class="fil0" d="M0.23 0.09c-0.02,-0.01 -0.03,-0.02 -0.03,-0.04 0,-0.03 0.02,-0.05 0.04,-0.05 0.03,0 0.05,0.02 0.05,0.05 0,0.02 -0.01,0.03 -0.03,0.04l0 0.03c0.06,0.01 0.12,0.06 0.14,0.12l-0.31 0c0.02,-0.06 0.07,-0.11 0.14,-0.12l0 -0.03 0 0zm0.01 -0.03c0.01,0 0.02,-0.01 0.02,-0.01 0,-0.01 -0.01,-0.02 -0.02,-0.02 0,0 -0.01,0.01 -0.01,0.02 0,0 0.01,0.01 0.01,0.01z"/>
   <path class="fil0" d="M0.04 0.27l0.43 0c0.01,0 0.01,0.01 0.02,0.01 0,0.01 0,0.01 -0.01,0.02l-0.08 0.08 0 0.36c0,0.01 0,0.02 -0.01,0.02l-0.29 0c-0.01,0 -0.01,-0.01 -0.01,-0.02l0 -0.2 -0.05 0c-0.02,0 -0.04,-0.02 -0.04,-0.04l0 -0.18c0,-0.03 0.02,-0.05 0.04,-0.05zm-0.01 0.23c0,0.01 0.01,0.01 0.01,0.01l0.05 0 0 -0.21 -0.05 0c0,0 -0.01,0.01 -0.01,0.02l0 0.18z"/>
   <path class="fil0" d="M0.62 0.74l0 0c-0.05,0 -0.09,-0.03 -0.1,-0.07l-0.01 0c-0.04,0 -0.07,-0.03 -0.07,-0.07 0,-0.04 0.03,-0.07 0.07,-0.07l0.01 0 0 -0.02c0,0 0,-0.01 0.01,-0.01l0.17 0c0.01,0 0.02,0.01 0.02,0.01l0 0.13c0,0.05 -0.05,0.1 -0.1,0.1zm-0.1 -0.18l-0.01 0c-0.02,0 -0.04,0.02 -0.04,0.04 0,0.02 0.02,0.04 0.04,0.04l0.01 0 0 -0.08z"/>
  </g>
 </g>
</svg>
