<?xml version="1.0" encoding="UTF-8"?>
<!DOCTYPE svg PUBLIC "-//W3C//DTD SVG 1.1//EN" "http://www.w3.org/Graphics/SVG/1.1/DTD/svg11.dtd">
<!-- Creator: CorelDRAW -->
<svg xmlns="http://www.w3.org/2000/svg" xml:space="preserve" width="20px" height="20px" version="1.1" style="shape-rendering:geometricPrecision; text-rendering:geometricPrecision; image-rendering:optimizeQuality; fill-rule:evenodd; clip-rule:evenodd"
viewBox="0 0 0.39 0.39"
 xmlns:xlink="http://www.w3.org/1999/xlink"
 xmlns:xodm="http://www.corel.com/coreldraw/odm/2003">
 <defs>
  <style type="text/css">
   <![CDATA[
    .str0 {stroke:#606062;stroke-miterlimit:22.9256}
    .fil0 {fill:#606062;fill-rule:nonzero}
   ]]>
  </style>
 </defs>
 <g id="Layer_x0020_1">
  <metadata id="CorelCorpID_0Corel-Layer"/>
  <g id="_2675809196496">
   <path class="fil0" d="M0.32 0.1c-0.02,-0.06 -0.06,-0.1 -0.06,-0.1 0,0 0,0.01 -0.02,0.03 0,0.01 0.01,0.02 0.02,0.04 -0.01,-0.01 -0.02,-0.01 -0.03,-0.02 -0.01,0.01 -0.02,0.03 -0.02,0.05 0.03,0.02 0.08,0.02 0.11,0zm-0.04 -0.05c0.01,0 0.02,0.01 0.02,0.01 0,0.01 -0.01,0.01 -0.02,0.01 0,0 -0.01,0 -0.01,-0.01 0,0 0.01,-0.01 0.01,-0.01z"/>
   <path class="fil0 str0" d="M0.34 0.19c0.01,0.01 0.03,0.02 0.05,0.04l-0.06 -0.1c0,-0.01 0,-0.01 0,-0.02 -0.04,0.03 -0.09,0.03 -0.13,0 0,0.01 0,0.01 -0.01,0.02l-0.06 0.1c0.03,-0.02 0.04,-0.03 0.06,-0.04 0,0.06 0.03,0.12 0.05,0.15l-0.05 0.05c0.04,-0.01 0.09,-0.01 0.15,0l-0.06 -0.05c0.03,-0.03 0.06,-0.09 0.06,-0.15z"/>
   <path class="fil0" d="M0.09 0.24l0 -0.07c0.01,-0.01 0.02,-0.03 0.03,-0.05l-0.06 0c0,0.02 0.01,0.04 0.02,0.05 0,0.03 0,0.05 0,0.08 0.03,0 0.06,0.03 0.06,0.06 0,0.04 -0.03,0.07 -0.06,0.07 -0.04,0 -0.06,-0.03 -0.06,-0.07 0,0 0.01,0.01 0.02,0.01l-0.04 -0.05c0,0.04 0,0.04 0,0.05 0,0.04 0.04,0.07 0.08,0.07 0.04,0 0.08,-0.03 0.08,-0.08 0,-0.03 -0.03,-0.06 -0.07,-0.07z"/>
   <path class="fil0" d="M0.12 0.1c-0.01,-0.02 -0.02,-0.03 -0.03,-0.04 0.02,-0.01 0.02,-0.04 0,-0.05 -0.01,0 -0.02,0.01 -0.03,0.02 0,0.01 0.01,0.02 0.02,0.03 -0.01,0.01 -0.02,0.02 -0.02,0.04l0.06 0zm-0.04 -0.07c0,0 0,0 0.01,0 0,0 0,0 0,0 0.01,0.01 0,0.02 0,0.02 -0.01,0 -0.01,-0.01 -0.01,-0.02z"/>
  </g>
 </g>
</svg>
