<?xml version="1.0" encoding="UTF-8"?>
<!DOCTYPE svg PUBLIC "-//W3C//DTD SVG 1.1//EN" "http://www.w3.org/Graphics/SVG/1.1/DTD/svg11.dtd">
<!-- Creator: CorelDRAW -->
<svg xmlns="http://www.w3.org/2000/svg" xml:space="preserve" width="20px" height="34px" version="1.1" style="shape-rendering:geometricPrecision; text-rendering:geometricPrecision; image-rendering:optimizeQuality; fill-rule:evenodd; clip-rule:evenodd"
viewBox="0 0 0.4 0.68"
 xmlns:xlink="http://www.w3.org/1999/xlink"
 xmlns:xodm="http://www.corel.com/coreldraw/odm/2003">
 <defs>
  <style type="text/css">
   <![CDATA[
    .fil0 {fill:#606062;fill-rule:nonzero}
   ]]>
  </style>
 </defs>
 <g id="Layer_x0020_1">
  <metadata id="CorelCorpID_0Corel-Layer"/>
  <g id="_2675802139792">
   <path class="fil0" d="M0.36 0l-0.32 0c-0.02,0 -0.04,0.02 -0.04,0.04l0 0.22c0,0 0.39,0 0.4,0l0 -0.22c0,-0.02 -0.02,-0.04 -0.04,-0.04l0 0zm-0.26 0.16c0,0.02 -0.03,0.02 -0.03,0l0 -0.06c0,-0.01 0.01,-0.02 0.02,-0.02 0.01,0 0.01,0.01 0.01,0.02l0 0.06z"/>
   <path class="fil0" d="M0.16 0.33c0.01,0 0.01,-0.01 0.01,-0.01l0.01 -0.02 -0.18 0 0 0.03 0.16 0 0 0z"/>
   <path class="fil0" d="M0.22 0.3l-0.01 0.03c-0.01,0.02 -0.03,0.03 -0.05,0.03 -0.02,0 -0.14,0 -0.16,0l0 0.24c0,0.02 0.01,0.04 0.03,0.04l0 0.02c0,0.01 0.01,0.02 0.02,0.02 0.01,0 0.02,-0.01 0.02,-0.02l0 -0.02 0.26 0 0 0.02c0,0.01 0.01,0.02 0.02,0.02 0.01,0 0.02,-0.01 0.02,-0.02 0,0 0,-0.02 0,-0.02 0.02,0 0.03,-0.02 0.03,-0.04l0 -0.3c-0.02,0 -0.15,0 -0.18,0l0 0z"/>
  </g>
 </g>
</svg>
