<?xml version="1.0" encoding="UTF-8"?>
<!DOCTYPE svg PUBLIC "-//W3C//DTD SVG 1.1//EN" "http://www.w3.org/Graphics/SVG/1.1/DTD/svg11.dtd">
<!-- Creator: CorelDRAW -->
<svg xmlns="http://www.w3.org/2000/svg" xml:space="preserve" width="20px" height="20px" version="1.1" style="shape-rendering:geometricPrecision; text-rendering:geometricPrecision; image-rendering:optimizeQuality; fill-rule:evenodd; clip-rule:evenodd"
viewBox="0 0 0.85 0.85"
 xmlns:xlink="http://www.w3.org/1999/xlink"
 xmlns:xodm="http://www.corel.com/coreldraw/odm/2003">
 <defs>
  <style type="text/css">
   <![CDATA[
    .fil0 {fill:#848688;fill-rule:nonzero}
   ]]>
  </style>
 </defs>
 <g id="Layer_x0020_1">
  <metadata id="CorelCorpID_0Corel-Layer"/>
  <g id="_1441363740912">
   <path class="fil0" d="M0.43 0c-0.24,0 -0.43,0.19 -0.43,0.43 0,0.15 0.08,0.29 0.21,0.36 0.06,0.04 0.14,0.06 0.22,0.06 0.07,0 0.15,-0.02 0.21,-0.06 0.06,-0.03 0.12,-0.09 0.15,-0.15 0.04,-0.06 0.06,-0.14 0.06,-0.21 0,-0.24 -0.19,-0.43 -0.42,-0.43zm0.33 0.44c0,0 0,0 0,0l-0.25 0 -0.01 0c0,0.05 -0.03,0.08 -0.07,0.08 -0.05,0 -0.08,-0.03 -0.08,-0.08l-0.25 0c0,0 0,0 0,0 0,0 0,-0.01 0,-0.01 0,-0.19 0.14,-0.33 0.33,-0.33 0.18,0 0.33,0.14 0.33,0.33 0,0 0,0.01 0,0.01z"/>
   <g>
    <path class="fil0" d="M0.6 0.24c0,-0.01 0,-0.01 -0.01,-0.01 0,0 -0.01,0 -0.01,0l-0.16 0.13c0,0 0,0 0,0 -0.03,0 -0.05,0.03 -0.05,0.06 0,0.03 0.02,0.05 0.05,0.05 0.03,0 0.05,-0.02 0.05,-0.05 0,0 0,0 0,0l0.13 -0.16c0.01,-0.01 0.01,-0.02 0,-0.02z"/>
    <path class="fil0" d="M0.57 0.22c-0.01,0 -0.01,0 -0.01,0l-0.05 0.04c-0.02,-0.01 -0.04,-0.02 -0.06,-0.03 -0.02,0 -0.05,-0.01 -0.08,0 -0.05,0 -0.1,0.03 -0.14,0.08 -0.02,0.02 -0.03,0.05 -0.04,0.08 0,0 0,0.01 0,0.02 0,0 0,0 0,0l-0.02 0c0,-0.13 0.11,-0.24 0.25,-0.24 0.05,0 0.11,0.02 0.15,0.05z"/>
    <path class="fil0" d="M0.66 0.35l-0.1 0.02c0,-0.01 0,-0.02 0,-0.02l0.06 -0.08c0,0 0,0 0,0 0.02,0.02 0.03,0.05 0.04,0.08z"/>
   </g>
  </g>
 </g>
</svg>
