<?xml version="1.0" encoding="UTF-8"?>
<!DOCTYPE svg PUBLIC "-//W3C//DTD SVG 1.1//EN" "http://www.w3.org/Graphics/SVG/1.1/DTD/svg11.dtd">
<!-- Creator: CorelDRAW -->
<svg xmlns="http://www.w3.org/2000/svg" xml:space="preserve" width="20px" height="20px" version="1.1" style="shape-rendering:geometricPrecision; text-rendering:geometricPrecision; image-rendering:optimizeQuality; fill-rule:evenodd; clip-rule:evenodd"
viewBox="0 0 1.4 1.4"
 xmlns:xlink="http://www.w3.org/1999/xlink"
 xmlns:xodm="http://www.corel.com/coreldraw/odm/2003">
 <defs>
  <style type="text/css">
   <![CDATA[
    .fil0 {fill:#606062;fill-rule:nonzero}
   ]]>
  </style>
 </defs>
 <g id="Layer_x0020_1">
  <metadata id="CorelCorpID_0Corel-Layer"/>
  <g id="_2640396931328">
   <path class="fil0" d="M0.8 1.01l-0.2 0c-0.02,0 -0.04,0.03 -0.04,0.05 0,0.03 0.02,0.05 0.04,0.05l0.2 0c0.02,0 0.04,-0.02 0.04,-0.05 0,-0.02 -0.02,-0.05 -0.04,-0.05z"/>
   <path class="fil0" d="M0.6 0.51c0,0.06 -0.09,0.06 -0.09,0 0,-0.07 0.09,-0.07 0.09,0z"/>
   <path class="fil0" d="M0.8 0.77c0,0.06 -0.05,0.1 -0.1,0.1 -0.05,0 -0.1,-0.04 -0.1,-0.1 0,-0.05 0.05,-0.09 0.1,-0.09 0.05,0 0.1,0.04 0.1,0.09z"/>
   <path class="fil0" d="M0.89 0.51c0,0.06 -0.09,0.06 -0.09,0 0,-0.07 0.09,-0.07 0.09,0z"/>
   <path class="fil0" d="M1.16 0.29c-0.05,-0.05 -0.14,-0.06 -0.2,-0.03 -0.08,0.03 -0.17,0.05 -0.26,0.05 -0.09,0 -0.18,-0.02 -0.26,-0.05 -0.07,-0.03 -0.15,-0.02 -0.2,0.03 -0.15,0.13 -0.24,0.33 -0.24,0.53 0,0.2 0.09,0.4 0.24,0.53 0.04,0.03 0.08,0.05 0.13,0.05 0.02,0 0.05,0 0.07,-0.01 0.09,-0.04 0.17,-0.06 0.26,-0.06 0.09,0 0.18,0.02 0.26,0.06 0.07,0.02 0.15,0.01 0.2,-0.04 0.16,-0.13 0.24,-0.32 0.24,-0.53 0,-0.2 -0.09,-0.4 -0.24,-0.53zm-0.32 0.48c0,0.08 -0.06,0.15 -0.14,0.15 -0.08,0 -0.14,-0.07 -0.14,-0.15 0,-0.08 0.06,-0.14 0.14,-0.14 0.08,0 0.14,0.06 0.14,0.14zm-0.51 0.43c0,0 -0.01,0.01 -0.02,0.01 0,0 -0.01,-0.01 -0.01,-0.01 -0.1,-0.1 -0.16,-0.23 -0.16,-0.38 0,-0.14 0.06,-0.28 0.16,-0.38 0.01,-0.01 0.02,-0.01 0.03,0 0.1,0.1 0.15,0.24 0.15,0.38 0,0.15 -0.05,0.28 -0.15,0.38zm0.13 -0.69c0,-0.06 0.04,-0.1 0.1,-0.1 0.05,0 0.09,0.04 0.09,0.1 0,0.05 -0.04,0.09 -0.09,0.09 -0.06,0 -0.1,-0.04 -0.1,-0.09zm0.34 0.65l-0.2 0c-0.05,0 -0.09,-0.04 -0.09,-0.1 0,-0.05 0.04,-0.09 0.09,-0.09l0.2 0c0.05,0 0.09,0.04 0.09,0.09 0,0.06 -0.04,0.1 -0.09,0.1l0 0zm0.04 -0.56c-0.05,0 -0.09,-0.04 -0.09,-0.09 0,-0.06 0.04,-0.1 0.09,-0.1 0.06,0 0.1,0.04 0.1,0.1 0,0.05 -0.04,0.09 -0.1,0.09zm0.26 0.6c0,0 -0.01,0.01 -0.01,0.01 -0.01,0 -0.02,-0.01 -0.02,-0.01 -0.1,-0.1 -0.15,-0.23 -0.15,-0.38 0,-0.14 0.05,-0.28 0.15,-0.38 0.01,-0.01 0.02,-0.01 0.03,0 0.1,0.1 0.16,0.24 0.16,0.38 0,0.15 -0.06,0.28 -0.16,0.38z"/>
   <path class="fil0" d="M0.55 0.11c0.03,-0.04 0.09,-0.06 0.15,-0.06 0.06,0 0.12,0.02 0.15,0.06 0,0.01 0.01,0.01 0.02,0.01 0,0 0.01,0 0.01,0 0.01,-0.01 0.02,-0.03 0.01,-0.04 -0.04,-0.05 -0.11,-0.08 -0.19,-0.08 -0.08,0 -0.15,0.03 -0.19,0.08 -0.01,0.01 -0.01,0.03 0,0.04 0.01,0 0.03,0 0.04,-0.01l0 0z"/>
   <path class="fil0" d="M0.77 0.18c0.01,0.01 0.02,0.01 0.03,0.01 0,0 0,0 0.01,0 0.01,-0.01 0.01,-0.02 0.01,-0.03 -0.02,-0.04 -0.07,-0.06 -0.12,-0.06 -0.05,0 -0.1,0.02 -0.12,0.06 -0.01,0.01 0,0.02 0.01,0.03 0.01,0.01 0.03,0 0.04,-0.01 0.01,-0.02 0.04,-0.04 0.07,-0.04 0.03,0 0.06,0.02 0.07,0.04l0 0z"/>
   <path class="fil0" d="M0.75 0.24c0,0.07 -0.1,0.07 -0.1,0 0,-0.06 0.1,-0.06 0.1,0z"/>
  </g>
 </g>
</svg>
