<?xml version="1.0" encoding="UTF-8"?>
<!DOCTYPE svg PUBLIC "-//W3C//DTD SVG 1.1//EN" "http://www.w3.org/Graphics/SVG/1.1/DTD/svg11.dtd">
<!-- Creator: CorelDRAW -->
<svg xmlns="http://www.w3.org/2000/svg" xml:space="preserve" width="20px" height="20px" version="1.1" style="shape-rendering:geometricPrecision; text-rendering:geometricPrecision; image-rendering:optimizeQuality; fill-rule:evenodd; clip-rule:evenodd"
viewBox="0 0 0.34 0.34"
 xmlns:xlink="http://www.w3.org/1999/xlink"
 xmlns:xodm="http://www.corel.com/coreldraw/odm/2003">
 <defs>
  <style type="text/css">
   <![CDATA[
    .str0 {stroke:#373435;stroke-miterlimit:22.9256}
    .fil0 {fill:#606062}
    .fil1 {fill:#FEFEFE;fill-rule:nonzero}
   ]]>
  </style>
 </defs>
 <g id="Layer_x0020_1">
  <metadata id="CorelCorpID_0Corel-Layer"/>
  <g id="_2640325225216">
   <path class="fil0 str0" d="M0.17 0c0.09,0 0.17,0.08 0.17,0.17 0,0.09 -0.08,0.17 -0.17,0.17 -0.09,0 -0.17,-0.08 -0.17,-0.17 0,-0.09 0.08,-0.17 0.17,-0.17z"/>
   <path class="fil1" d="M0.28 0.17c-0.01,0.01 -0.03,0.03 -0.04,0.04 0,0 0.01,0 0.01,0 0,0 -0.01,0.03 -0.05,0.04 -0.01,0 -0.02,-0.02 -0.02,-0.03 0,0 0,-0.08 0,-0.13l0.02 0c0,0 0,0 0,0l0 -0.02c0,0 0,0 0,0l-0.02 0c0,0 0,0 0,-0.01 0.01,0 0.01,-0.01 0.01,-0.02 0,-0.01 -0.01,-0.02 -0.02,-0.02 -0.02,0 -0.03,0.01 -0.03,0.02 0,0.01 0.01,0.02 0.02,0.02 0,0.01 0,0.01 0,0.01l-0.02 0c0,0 0,0 0,0l0 0.02c0,0 0,0 0,0l0.02 0c0,0.05 -0.01,0.13 -0.01,0.13 0,0.01 0,0.03 -0.02,0.03 -0.03,-0.01 -0.05,-0.04 -0.05,-0.04 0.01,0 0.01,0 0.02,0 -0.02,-0.01 -0.03,-0.03 -0.04,-0.04 0,0.02 0,0.04 0.01,0.05 0,0.01 0.01,0.03 0.02,0.04 0.02,0.01 0.04,0.02 0.06,0.03 0.01,0.01 0.02,0.03 0.02,0.03 0,0 0,-0.02 0.02,-0.03 0.02,-0.01 0.04,-0.02 0.05,-0.03 0.02,-0.01 0.02,-0.03 0.03,-0.04 0,-0.01 0.01,-0.03 0.01,-0.05zm-0.11 -0.14c0,0 0.01,0.01 0.01,0.01 0,0.01 -0.01,0.01 -0.01,0.01 -0.01,0 -0.01,0 -0.01,-0.01 0,0 0,-0.01 0.01,-0.01z"/>
  </g>
 </g>
</svg>
